<svg xmlns="http://www.w3.org/2000/svg" width="32" height="32" viewBox="0 0 32 32" fill="none">
  <path d="M30.9536 4.9862C30.9393 4.74156 30.8357 4.51068 30.6624 4.3374C30.4891 4.16411 30.2583 4.06049 30.0136 4.0462C23.5436 3.6712 18.3486 5.6387 16.1161 9.3237C14.6411 11.76 14.6436 14.7187 16.0961 17.5412C15.2694 18.5254 14.6652 19.6767 14.3249 20.9162L12.2911 18.875C13.2686 16.8337 13.2311 14.7062 12.1661 12.9387C10.5161 10.215 6.70737 8.75495 1.97862 9.03245C1.73398 9.04674 1.5031 9.15036 1.32982 9.32365C1.15653 9.49693 1.05291 9.72781 1.03862 9.97245C0.759874 14.7012 2.22112 18.51 4.94487 20.16C5.84371 20.7091 6.87656 20.9998 7.92987 21C8.95225 20.9874 9.95872 20.7451 10.8749 20.2912L13.9999 23.4162V27C13.9999 27.2652 14.1052 27.5195 14.2928 27.7071C14.4803 27.8946 14.7347 28 14.9999 28C15.2651 28 15.5194 27.8946 15.707 27.7071C15.8945 27.5195 15.9999 27.2652 15.9999 27V23.3137C15.9954 21.7228 16.5368 20.1786 17.5336 18.9387C18.8198 19.6109 20.2463 19.9706 21.6974 19.9887C23.1003 19.9932 24.4773 19.61 25.6761 18.8812C29.3611 16.6512 31.3336 11.4562 30.9536 4.9862ZM5.97612 18.45C4.05862 17.2887 2.97362 14.54 2.99987 11C6.53987 10.97 9.28862 12.0587 10.4499 13.9762C11.0561 14.9762 11.1549 16.1425 10.7574 17.3437L7.70612 14.2925C7.51706 14.1128 7.26531 14.0142 7.00455 14.0175C6.74379 14.0209 6.49465 14.1259 6.31025 14.3103C6.12584 14.4947 6.02077 14.7439 6.01744 15.0046C6.0141 15.2654 6.11275 15.5171 6.29237 15.7062L9.34362 18.7575C8.14237 19.155 6.97738 19.0562 5.97612 18.45ZM24.6399 17.1725C22.9649 18.1862 20.9961 18.2637 18.9961 17.4225L25.7074 10.71C25.887 10.5209 25.9857 10.2691 25.9823 10.0084C25.979 9.74762 25.8739 9.49848 25.6895 9.31408C25.5051 9.12967 25.256 9.0246 24.9952 9.02127C24.7344 9.01793 24.4827 9.11658 24.2936 9.2962L17.5811 16C16.7361 14 16.8124 12.03 17.8311 10.3562C19.5736 7.4812 23.7061 5.8787 28.9974 6.00245C29.1174 11.2925 27.5174 15.43 24.6399 17.1725Z" fill="#AD51F1"/>
</svg>