<svg xmlns="http://www.w3.org/2000/svg" width="33" height="32" viewBox="0 0 33 32" fill="none">
  <path d="M31.4999 13C31.4998 12.2334 31.2793 11.4831 30.8649 10.8383C30.4505 10.1934 29.8595 9.68126 29.1623 9.3627C28.4652 9.04413 27.6911 8.93259 26.9324 9.04136C26.1736 9.15012 25.4621 9.47461 24.8824 9.9762C22.7887 8.8637 20.2874 8.1912 17.6749 8.03495L18.3237 4.1387L20.5387 4.4787C20.6511 5.17741 21.0068 5.8139 21.5431 6.27567C22.0794 6.73744 22.7616 6.99477 23.4693 7.00216C24.1769 7.00955 24.8644 6.76653 25.4102 6.31606C25.956 5.86559 26.325 5.23667 26.452 4.54046C26.5789 3.84425 26.4556 3.12557 26.104 2.51146C25.7523 1.89734 25.1948 1.42732 24.5301 1.18448C23.8654 0.941634 23.1362 0.941598 22.4715 1.18438C21.8067 1.42716 21.2492 1.89712 20.8974 2.5112L17.6474 2.0112C17.3874 1.97111 17.1221 2.0351 16.909 2.18929C16.6958 2.34348 16.552 2.57546 16.5087 2.83495L15.6499 8.01995C12.9199 8.13745 10.2974 8.81745 8.11744 9.9762C7.32132 9.30366 6.29416 8.96839 5.25457 9.04175C4.21499 9.11511 3.24508 9.59131 2.5513 10.369C1.85751 11.1467 1.49464 12.1644 1.53991 13.2056C1.58518 14.2468 2.03503 15.2292 2.79369 15.9437C2.59926 16.6118 2.50036 17.3041 2.49994 18C2.49994 20.7412 3.99994 23.2937 6.73869 25.1862C9.35994 27 12.8262 28 16.4999 28C20.1737 28 23.6399 27 26.2612 25.1862C28.9999 23.2937 30.4999 20.7412 30.4999 18C30.4995 17.3041 30.4006 16.6118 30.2062 15.9437C30.6128 15.5685 30.9376 15.1134 31.1602 14.6068C31.3828 14.1003 31.4985 13.5532 31.4999 13ZM23.4999 2.99995C23.6977 2.99995 23.8911 3.0586 24.0555 3.16848C24.22 3.27836 24.3481 3.43454 24.4238 3.61727C24.4995 3.8 24.5193 4.00106 24.4807 4.19504C24.4421 4.38902 24.3469 4.56721 24.2071 4.70706C24.0672 4.84691 23.889 4.94215 23.695 4.98074C23.5011 5.01932 23.3 4.99952 23.1173 4.92383C22.9345 4.84815 22.7784 4.71997 22.6685 4.55552C22.5586 4.39107 22.4999 4.19773 22.4999 3.99995C22.4999 3.73474 22.6053 3.48038 22.7928 3.29285C22.9804 3.10531 23.2347 2.99995 23.4999 2.99995ZM28.5162 14.7225C28.308 14.8458 28.1516 15.0404 28.076 15.2703C28.0004 15.5001 28.0107 15.7496 28.1049 15.9725C28.3647 16.6169 28.4988 17.3051 28.4999 18C28.4999 20.0662 27.3012 22.0337 25.1249 23.5412C22.8337 25.125 19.7712 26 16.4999 26C13.2287 26 10.1662 25.125 7.87494 23.5412C5.69869 22.0337 4.49994 20.0662 4.49994 18C4.50162 17.3074 4.63481 16.6215 4.89244 15.9787C4.98695 15.7561 4.99761 15.5069 4.92246 15.2771C4.84731 15.0472 4.69143 14.8524 4.48369 14.7287C4.22932 14.577 4.01181 14.3708 3.84685 14.1248C3.6819 13.8789 3.57362 13.5994 3.52985 13.3065C3.48607 13.0136 3.50789 12.7146 3.59372 12.4312C3.67956 12.1477 3.82727 11.8869 4.02618 11.6675C4.2251 11.4481 4.47025 11.2756 4.74395 11.1625C5.01764 11.0494 5.31304 10.9984 5.60881 11.0134C5.90458 11.0283 6.19335 11.1088 6.45424 11.2489C6.71514 11.389 6.94166 11.5854 7.11744 11.8237C7.26253 12.023 7.47612 12.1617 7.71721 12.2131C7.9583 12.2646 8.20989 12.2252 8.42369 12.1025L8.46869 12.075C10.6812 10.7375 13.5312 9.99995 16.4999 9.99995C19.4662 9.99995 22.3162 10.7375 24.5287 12.075L24.5812 12.1062C24.7947 12.2264 25.0449 12.264 25.2843 12.2119C25.5237 12.1599 25.7357 12.0217 25.8799 11.8237C26.0547 11.5834 26.2807 11.385 26.5417 11.243C26.8027 11.101 27.0921 11.0189 27.3888 11.0028C27.6854 10.9866 27.982 11.0367 28.2569 11.1495C28.5318 11.2623 28.778 11.435 28.9779 11.6549C29.1777 11.8748 29.326 12.1364 29.412 12.4208C29.498 12.7052 29.5195 13.0052 29.4751 13.299C29.4306 13.5928 29.3213 13.873 29.155 14.1192C28.9887 14.3654 28.7696 14.5715 28.5137 14.7225H28.5162ZM11.4999 18C11.1044 18 10.7177 17.8827 10.3888 17.6629C10.0599 17.4431 9.80356 17.1308 9.65218 16.7653C9.50081 16.3999 9.4612 15.9977 9.53837 15.6098C9.61554 15.2218 9.80603 14.8654 10.0857 14.5857C10.3654 14.306 10.7218 14.1156 11.1098 14.0384C11.4977 13.9612 11.8999 14.0008 12.2653 14.1522C12.6308 14.3036 12.9431 14.5599 13.1629 14.8888C13.3826 15.2177 13.4999 15.6044 13.4999 16C13.4999 16.5304 13.2892 17.0391 12.9142 17.4142C12.5391 17.7892 12.0304 18 11.4999 18ZM23.4999 16C23.4999 16.3955 23.3826 16.7822 23.1629 17.1111C22.9431 17.44 22.6308 17.6963 22.2653 17.8477C21.8999 17.9991 21.4977 18.0387 21.1098 17.9615C20.7218 17.8844 20.3654 17.6939 20.0857 17.4142C19.806 17.1345 19.6155 16.7781 19.5384 16.3901C19.4612 16.0022 19.5008 15.6 19.6522 15.2346C19.8036 14.8691 20.0599 14.5568 20.3888 14.337C20.7177 14.1173 21.1044 14 21.4999 14C22.0304 14 22.5391 14.2107 22.9142 14.5857C23.2892 14.9608 23.4999 15.4695 23.4999 16ZM21.3837 21.5312C21.4453 21.6472 21.4834 21.7743 21.4959 21.9051C21.5084 22.0359 21.495 22.1678 21.4565 22.2934C21.4179 22.4191 21.355 22.5358 21.2713 22.6371C21.1876 22.7384 21.0848 22.8222 20.9687 22.8837C19.5927 23.615 18.0582 23.9974 16.4999 23.9974C14.9417 23.9974 13.4072 23.615 12.0312 22.8837C11.9151 22.8221 11.8123 22.7383 11.7287 22.637C11.645 22.5358 11.5821 22.419 11.5436 22.2934C11.505 22.1678 11.4916 22.0359 11.5041 21.9051C11.5165 21.7743 11.5546 21.6473 11.6162 21.5312C11.6778 21.4151 11.7616 21.3124 11.8628 21.2287C11.9641 21.145 12.0809 21.0821 12.2065 21.0436C12.3321 21.0051 12.464 20.9916 12.5948 21.0041C12.7256 21.0166 12.8526 21.0546 12.9687 21.1162C14.056 21.6942 15.2685 21.9965 16.4999 21.9965C17.7313 21.9965 18.9439 21.6942 20.0312 21.1162C20.1472 21.0546 20.2743 21.0165 20.4051 21.004C20.5359 20.9915 20.6678 21.0049 20.7934 21.0434C20.919 21.082 21.0358 21.1449 21.1371 21.2286C21.2384 21.3123 21.3222 21.4151 21.3837 21.5312Z" fill="#437DEE"/>
</svg>