<svg width="24" height="24" viewBox="0 0 24 24" fill="none" xmlns="http://www.w3.org/2000/svg">
<path d="M21.5757 2.42438C21.3401 2.18867 21.0459 2.02003 20.7234 1.93583C20.4009 1.85162 20.0618 1.8549 19.741 1.94531L19.7204 1.95188L1.72884 7.40625C1.3634 7.51221 1.03885 7.72684 0.798286 8.02163C0.557723 8.31642 0.41254 8.67742 0.38202 9.05669C0.351499 9.43595 0.437087 9.81553 0.627414 10.145C0.817742 10.4745 1.1038 10.7382 1.44759 10.9013L9.35259 14.6513L13.1026 22.5563C13.2523 22.8774 13.4907 23.1489 13.7897 23.339C14.0887 23.529 14.4358 23.6296 14.7901 23.6288C14.8435 23.6288 14.8979 23.6288 14.9523 23.6222C15.3312 23.592 15.6918 23.4463 15.9854 23.2047C16.2789 22.9631 16.4913 22.6373 16.5938 22.2713L22.0482 4.27969C22.051 4.273 22.0532 4.26611 22.0548 4.25906C22.1452 3.93827 22.1485 3.59918 22.0643 3.2767C21.9801 2.95422 21.8114 2.66001 21.5757 2.42438ZM14.7188 20.7113L11.5576 14.0372L15.7998 9.795C16.0111 9.58366 16.1299 9.29701 16.1299 8.99813C16.1299 8.69924 16.0111 8.4126 15.7998 8.20125C15.5884 7.98991 15.3018 7.87118 15.0029 7.87118C14.704 7.87118 14.4174 7.98991 14.206 8.20125L9.96384 12.4434L3.28884 9.28125L19.6876 4.3125L14.7188 20.7113Z" fill="white"/>
</svg>
