<svg width="32" height="33" viewBox="0 0 32 33" fill="none" xmlns="http://www.w3.org/2000/svg">
<g clip-path="url(#clip0_501_1810)">
<path fill-rule="evenodd" clip-rule="evenodd" d="M10.7681 10.1787L10.895 10.2905L22.2087 21.6042C22.5302 21.9257 22.6657 22.3889 22.5682 22.833C22.4828 23.2216 22.2294 23.5487 21.8815 23.7297L21.7269 23.7981L7.87962 28.8997C5.27635 29.8588 2.743 27.4124 3.53385 24.8146L3.59945 24.6195L8.70106 10.7723C8.85825 10.3457 9.22204 10.0285 9.66616 9.93098C9.99924 9.85782 10.3431 9.91575 10.6298 10.0849L10.7681 10.1787ZM10.4829 13.6496L6.1017 25.5414C5.9182 26.0396 6.35805 26.5248 6.85141 26.4274L6.95775 26.3974L18.8495 22.0162L10.4829 13.6496ZM22.8091 15.971C24.0242 16.035 25.6895 16.2923 27.1374 17.161C27.7687 17.5398 27.9735 18.3589 27.5947 18.9902C27.2429 19.5766 26.5115 19.795 25.9033 19.5199L25.7654 19.4475C24.8561 18.9021 23.6931 18.6879 22.669 18.6341C22.2489 18.612 21.8233 18.6094 21.4016 18.6397L20.9815 18.6815C20.2531 18.7849 19.5786 18.2785 19.4746 17.5501C19.3705 16.821 19.877 16.1457 20.6059 16.0415C21.3314 15.9382 22.0793 15.9326 22.8091 15.971ZM25.5085 12.257C26.2449 12.257 26.8418 12.854 26.8418 13.5903C26.8418 14.2741 26.3271 14.8377 25.664 14.9147L25.5085 14.9237H24.5657C23.8294 14.9237 23.2323 14.3267 23.2323 13.5903C23.2323 12.9065 23.7472 12.343 24.4102 12.266L24.5657 12.257H25.5085ZM21.2661 11.2332C21.7467 11.7138 21.7837 12.4701 21.377 12.9932L21.2661 13.1188L19.8518 14.533C19.3311 15.0537 18.4869 15.0537 17.9662 14.533C17.4856 14.0524 17.4486 13.2961 17.8553 12.773L17.9662 12.6474L19.3805 11.2332C19.9011 10.7125 20.7454 10.7125 21.2661 11.2332ZM17.8167 4.21186C18.4149 6.00628 18.0949 7.97144 17.7203 9.3448C17.4878 10.1973 17.1971 11.0379 16.8017 11.8294C16.4723 12.4881 15.6714 12.755 15.0127 12.4257C14.3547 12.0967 14.0877 11.297 14.4155 10.6388C14.7317 10.0049 14.9615 9.32536 15.1477 8.64316C15.45 7.53465 15.6026 6.33085 15.3689 5.34428L15.287 5.05514C15.0541 4.35654 15.4317 3.60144 16.1302 3.36859C16.8289 3.13572 17.5839 3.51327 17.8167 4.21186ZM25.0371 7.46208C25.5578 7.98278 25.5578 8.827 25.0371 9.3477L24.0943 10.2905C23.5737 10.8112 22.7294 10.8112 22.2087 10.2905C21.6881 9.76982 21.6881 8.92559 22.2087 8.4049L23.1515 7.46208C23.6722 6.94139 24.5165 6.94139 25.0371 7.46208Z" fill="#F19A34"/>
</g>
<defs>
<clipPath id="clip0_501_1810">
<rect width="32" height="32" fill="white" transform="translate(0 0.5)"/>
</clipPath>
</defs>
</svg>
