<svg width="295" height="78" viewBox="0 0 295 78" fill="none" xmlns="http://www.w3.org/2000/svg">
<g clip-path="url(#clip0_58_3388)">
<path d="M107.872 26.6109V30.1426H101.66V40.4697H97.202V30.1426H90.9902V26.6109H107.872ZM115.404 26.6109V31.5736H125.01V26.6109H129.468V40.4697H125.01V35.4648H115.404V40.4697H110.946V26.6109H115.404ZM147.457 38.1223H138.228L137.036 40.4697H132.18L139.563 26.6109H146.172L153.477 40.4697H148.643L147.45 38.1223H147.457ZM143.276 29.8324H142.438L139.74 35.0911H145.974L143.276 29.8324ZM163.651 26.6109L170.956 36.938H171.396L171.289 26.6109H175.62V40.4697H168.237L160.896 30.1214H160.435L160.541 40.4697H156.211V26.6109H163.658H163.651ZM184.11 26.6109V31.5736H193.716V26.6109H198.174V40.4697H193.716V35.4648H184.11V40.4697H179.652V26.6109H184.11ZM227.061 35.1264C227.082 35.9159 227.103 36.2261 227.103 36.4376C227.103 38.6792 226.514 39.7014 224.966 40.1948C223.838 40.5473 222.311 40.6742 219.216 40.6742C213.757 40.6742 211.996 40.505 210.867 39.8635C209.944 39.3418 209.526 38.5735 209.362 37.1636C209.298 36.5433 209.256 35.4013 209.256 33.6319C209.256 30.5373 209.341 29.3953 209.653 28.627C210.406 26.7589 211.932 26.4065 219.237 26.4065C222.964 26.4065 224.256 26.5545 225.222 27.0479C226.415 27.6471 226.833 28.6693 226.833 30.8898V31.5736H222.588C222.545 30.6572 222.503 30.4739 222.254 30.2624C221.942 29.9945 220.707 29.8676 218.03 29.8676C215.354 29.8676 214.601 29.9522 214.183 30.2836C213.679 30.6995 213.515 31.5101 213.515 33.6108C213.515 37.1636 213.579 37.2059 218.052 37.2059C222.524 37.2059 222.78 37.1848 222.801 35.1264H227.068H227.061ZM248.216 27.3581C249.281 28.1688 249.6 29.5575 249.6 33.5262C249.6 37.4949 249.288 38.9048 248.216 39.7155C247.151 40.5261 245.831 40.6742 240.059 40.6742C234.288 40.6742 232.882 40.5261 231.817 39.7155C230.731 38.8836 230.44 37.5161 230.44 33.4416C230.44 29.3671 230.752 28.1617 231.817 27.3581C232.882 26.5474 234.181 26.3994 240.017 26.3994C245.852 26.3994 247.151 26.5474 248.216 27.3581ZM235.019 30.8686C234.77 31.348 234.685 32.1375 234.685 33.8998C234.685 35.6621 234.813 36.1838 235.31 36.5785C235.878 37.0156 236.545 37.079 240.059 37.079C243.573 37.079 244.162 36.9944 244.723 36.5785C245.206 36.2049 245.348 35.5987 245.348 33.921C245.348 31.8626 245.22 31.0731 244.844 30.6149C244.361 30.0509 243.9 29.9945 240.009 29.9945C235.828 29.9945 235.43 30.058 235.012 30.8686H235.019ZM260.817 26.6109L268.122 36.938H268.562L268.456 26.6109H272.786V40.4697H265.403L258.063 30.1214H257.601L257.708 40.4697H253.377V26.6109H260.824H260.817ZM295 32.6169V32.9905C295 34.3651 294.915 36.7266 294.851 37.3962C294.68 39.0176 293.786 39.9692 292.11 40.3076C290.691 40.5966 289.221 40.6812 285.437 40.6812C280.645 40.6812 279.162 40.4909 277.99 39.7014C276.755 38.8907 276.528 37.8756 276.528 33.3218C276.528 26.8435 277.131 26.4065 286.176 26.4065C291.365 26.4065 293.289 26.7378 294.212 27.8375C294.794 28.5212 294.964 29.3742 294.986 31.4114H290.74C290.719 30.6008 290.676 30.4316 290.407 30.2483C289.988 29.9593 289.008 29.8747 285.828 29.8747C280.809 29.8747 280.787 29.8958 280.787 33.491C280.787 35.8384 280.915 36.5433 281.369 36.9169C281.724 37.2059 282.101 37.2694 283.293 37.3117L285.785 37.354C290.74 37.354 290.868 37.3117 290.868 35.7749V35.3802H285.281V32.6169H295.007H295Z" fill="#222222"/>
<path d="M93.7588 46.053H98.6927C100.439 46.053 100.673 46.0601 101.256 46.1869C101.93 46.3209 102.384 46.7086 102.59 47.336C102.746 47.8153 102.782 48.2453 102.782 49.3521C102.782 51.1214 102.626 51.8193 102.129 52.2775C101.603 52.7427 101 52.8485 98.6927 52.8485H93.7588V46.053ZM98.714 51.1144C100.602 51.1144 100.737 51.0157 100.737 49.4719C100.737 48.633 100.666 48.2594 100.46 48.0338C100.247 47.7871 99.9706 47.7519 98.6927 47.7519H95.8105V51.1144H98.714ZM111.535 46.053V52.8485H109.349V46.053H111.535ZM127.16 48.9996V49.1829C127.16 49.8525 127.118 51.0157 127.09 51.3399C127.004 52.1365 126.564 52.6018 125.748 52.7639C125.052 52.9049 124.335 52.9472 122.475 52.9472C120.125 52.9472 119.394 52.8555 118.819 52.4678C118.216 52.0731 118.102 51.5726 118.102 49.338C118.102 46.1587 118.4 45.9473 122.83 45.9473C125.372 45.9473 126.316 46.1094 126.77 46.6522C127.054 46.9906 127.139 47.4065 127.146 48.4075H125.066C125.059 48.0127 125.038 47.9281 124.903 47.8365C124.697 47.6955 124.214 47.6532 122.66 47.6532C120.196 47.6532 120.189 47.6602 120.189 49.4225C120.189 50.5716 120.253 50.917 120.473 51.1073C120.651 51.2483 120.835 51.2835 121.417 51.2976L122.638 51.3188C125.073 51.3188 125.13 51.2976 125.13 50.5434V50.353H122.39V48.9996H127.16ZM135.914 46.053V52.8485H133.727V46.053H135.914ZM150.417 46.053V47.7871H147.372V52.8485H145.185V47.7871H142.14V46.053H150.417ZM164.211 46.053V47.6532H158.688V48.6401H163.934V50.1345H158.688V51.2131H164.247V52.8414H156.636V46.046H164.211V46.053ZM179.233 50.2332C179.24 50.6209 179.254 50.776 179.254 50.8747C179.254 51.9744 178.963 52.4749 178.211 52.7216C177.657 52.8978 176.905 52.9542 175.392 52.9542C172.716 52.9542 171.85 52.8696 171.296 52.5595C170.842 52.3057 170.643 51.925 170.558 51.2342C170.529 50.9311 170.508 50.3671 170.508 49.5001C170.508 47.9845 170.551 47.4206 170.7 47.0469C171.069 46.1305 171.822 45.9543 175.4 45.9543C177.224 45.9543 177.863 46.0248 178.332 46.2715C178.914 46.5676 179.12 47.0681 179.12 48.1537V48.492H177.039C177.018 48.0409 176.997 47.9493 176.876 47.8506C176.72 47.7166 176.117 47.6602 174.803 47.6602C173.49 47.6602 173.121 47.7025 172.915 47.8647C172.666 48.0691 172.588 48.4638 172.588 49.493C172.588 51.2342 172.617 51.2554 174.817 51.2554C177.018 51.2554 177.139 51.2483 177.146 50.2403H179.24L179.233 50.2332ZM187.887 46.053V48.485H192.594V46.053H194.78V52.8485H192.594V50.3953H187.887V52.8485H185.7V46.053H187.887Z" fill="#222222"/>
<path d="M78.5385 39.9204C78.0487 60.8849 59.9954 78.1979 38.8824 77.9934C37.0934 77.9793 35.3328 77.8383 33.6148 77.5916C33.3237 77.5493 33.1179 77.2744 33.1676 76.9783L33.9414 72.1144C33.984 71.8253 34.2537 71.635 34.5448 71.6702C36.0924 71.8888 37.6685 72.0016 39.2729 72.0016C46.9187 72.0016 53.9753 69.4215 59.5979 65.0933H35.6452C35.3186 65.0933 35.0631 64.8043 35.1198 64.48L39.6491 36.0645L39.6633 35.9799L40.6075 30.5097C40.6501 30.2559 40.8702 30.0726 41.1329 30.0726H63.7296C64.0633 30.0726 64.3117 30.3687 64.2549 30.6929L63.403 35.6204C63.3604 35.8741 63.1333 36.0645 62.8777 36.0645H46.1378C45.8751 36.0645 45.648 36.2548 45.6125 36.5156L42.1126 58.4952C42.0629 58.8195 42.3113 59.1085 42.6379 59.1085H65.3553C65.5257 59.1085 65.6819 59.0309 65.7813 58.897C70.0053 53.3563 72.5184 46.4621 72.5184 38.997C72.5184 22.7132 60.5847 9.14337 44.9451 6.46465C44.6541 6.41531 44.4624 6.14744 44.505 5.85842L45.2788 0.994431C45.3285 0.705412 45.6054 0.500984 45.8964 0.550328C64.7022 3.73659 78.9929 20.2459 78.5314 39.9134L78.5385 39.9204Z" fill="#222222"/>
<path d="M53.8261 21.472L53.0452 26.3995C53.0026 26.6603 52.7825 26.8506 52.5199 26.8506H38.3357C38.073 26.8506 37.8458 27.0409 37.8103 27.3018L33.565 53.9338C33.5224 54.1947 33.3023 54.385 33.0397 54.385H28.0915C27.765 54.385 27.5094 54.096 27.5662 53.7717L31.7618 27.4709C31.8115 27.1467 31.563 26.8577 31.2365 26.8577H8.73201C8.51194 26.8577 8.31316 26.9916 8.22797 27.196C6.80813 30.8687 6.02722 34.8515 6.02722 39.0106C6.02722 54.1665 16.3636 66.9609 30.4059 70.8309C30.6685 70.9014 30.8389 71.1552 30.7963 71.423L30.0154 76.3152C29.9657 76.6254 29.6604 76.8298 29.3552 76.7452C12.4804 72.3606 0 57.099 0 38.9965C0 17.4962 17.6202 0 39.2728 0C40.0466 0 40.8133 0.0211478 41.58 0.0634433C41.8924 0.0845911 42.1195 0.366561 42.0769 0.676728L41.296 5.56891C41.2534 5.83678 41.0121 6.02711 40.7423 6.01301C40.2524 5.99187 39.7697 5.97777 39.2728 5.97777C28.0489 5.97777 18.1101 11.5255 12.0828 20.0058C11.8344 20.3582 12.0828 20.8446 12.523 20.8446H53.2937C53.6202 20.8446 53.8758 21.1337 53.819 21.4579L53.8261 21.472Z" fill="#222222"/>
</g>
<defs>
<clipPath id="clip0_58_3388">
<rect width="295" height="78" fill="white"/>
</clipPath>
</defs>
</svg>
