<svg width="32" height="33" viewBox="0 0 32 33" fill="none" xmlns="http://www.w3.org/2000/svg">
<g clip-path="url(#clip0_501_441)">
<path fill-rule="evenodd" clip-rule="evenodd" d="M29.3563 5.66518L28.5696 7.77318L27.5936 10.0359C26.6883 11.9759 25.4443 14.2439 23.9563 15.8092C22.5363 17.3025 20.3923 18.6799 18.6763 19.6572C18.9029 20.7409 18.8558 21.864 18.5391 22.9248C18.2225 23.9857 17.6464 24.9509 16.863 25.7332C13.8363 28.7599 10.4536 28.7599 7.93765 28.0132C6.56176 27.6091 5.26873 26.9635 4.11898 26.1065L2.96565 25.1492C2.90404 25.0974 2.85516 25.0322 2.82277 24.9585C2.79037 24.8848 2.77533 24.8047 2.77881 24.7243C2.78229 24.6439 2.80419 24.5654 2.84283 24.4948C2.88147 24.4242 2.9358 24.3634 3.00165 24.3172L3.44431 24.0012C4.41498 23.2945 5.41632 22.4252 5.65498 21.2279C5.80832 19.9945 5.89498 19.3212 5.91765 19.2105C6.10165 18.2919 6.49098 17.2492 7.43365 16.3039C8.21597 15.5205 9.18119 14.9445 10.2421 14.6279C11.3029 14.3113 12.426 14.2641 13.5096 14.4905C14.487 12.7745 15.863 10.6305 17.3576 9.21052C18.923 7.72252 21.191 6.47719 23.131 5.57318L25.3923 4.59585L27.5016 3.81052C27.76 3.72181 28.038 3.70742 28.3041 3.76897C28.5702 3.83052 28.8137 3.96555 29.0068 4.15868C29.1999 4.35181 29.335 4.59529 29.3965 4.86139C29.4581 5.12749 29.4437 5.40553 29.355 5.66385L29.3563 5.66518ZM9.32031 18.1905C8.84965 18.6599 8.64565 19.1692 8.53231 19.7332C8.38031 20.9679 8.29231 21.6399 8.26965 21.7519C8.02965 22.9572 7.32432 23.9519 6.73631 24.6159C7.35729 24.967 8.01503 25.2487 8.69765 25.4559C10.543 26.0052 12.8176 26.0052 14.9776 23.8465C15.354 23.4762 15.6533 23.0349 15.8583 22.5483C16.0633 22.0617 16.1699 21.5393 16.172 21.0113C16.1741 20.4833 16.0716 19.9601 15.8705 19.4718C15.6693 18.9836 15.3735 18.5401 15.0001 18.1667C14.6267 17.7934 14.1831 17.4977 13.6948 17.2967C13.2065 17.0957 12.6833 16.9933 12.1553 16.9955C11.6272 16.9977 11.1049 17.1045 10.6183 17.3096C10.1317 17.5147 9.69059 17.8141 9.32031 18.1905ZM15.9736 15.5572C16.6098 16.004 17.1634 16.558 17.6096 17.1945C18.131 16.8919 18.6696 16.5639 19.1963 16.2185L19.1563 16.1292C18.9369 15.6681 18.6392 15.2485 18.2763 14.8892C17.9562 14.5674 17.5888 14.2963 17.187 14.0852L16.947 13.9705C16.603 14.4972 16.275 15.0345 15.9736 15.5572ZM25.8963 7.27052C25.3843 7.48252 24.8296 7.72385 24.2563 7.99052C22.379 8.86652 20.435 9.96385 19.195 11.1425C18.9856 11.3425 18.7763 11.5625 18.5683 11.7999C19.051 12.0665 19.611 12.4532 20.1616 13.0052C20.7136 13.5559 21.099 14.1159 21.367 14.5985C21.6043 14.3905 21.8256 14.1812 22.0243 13.9719C23.203 12.7319 24.3003 10.7879 25.1763 8.90919C25.443 8.33585 25.683 7.78119 25.8963 7.27052Z" fill="#F19A34"/>
</g>
<defs>
<clipPath id="clip0_501_441">
<rect width="32" height="32" fill="white" transform="translate(0 0.5)"/>
</clipPath>
</defs>
</svg>
