<svg width="32" height="33" viewBox="0 0 32 33" fill="none" xmlns="http://www.w3.org/2000/svg">
<g clip-path="url(#clip0_501_2530)">
<path fill-rule="evenodd" clip-rule="evenodd" d="M22.6663 3.16699C23.7272 3.16699 24.7446 3.58842 25.4948 4.33857C26.2449 5.08871 26.6663 6.10613 26.6663 7.16699V25.8337C26.6663 26.8945 26.2449 27.9119 25.4948 28.6621C24.7446 29.4122 23.7272 29.8337 22.6663 29.8337H9.33301C8.27214 29.8337 7.25473 29.4122 6.50458 28.6621C5.75444 27.9119 5.33301 26.8945 5.33301 25.8337V7.16699C5.33301 6.10613 5.75444 5.08871 6.50458 4.33857C7.25473 3.58842 8.27214 3.16699 9.33301 3.16699H22.6663ZM22.6663 5.83366H9.33301C8.97939 5.83366 8.64025 5.97413 8.3902 6.22418C8.14015 6.47423 7.99967 6.81337 7.99967 7.16699V25.8337C7.99967 26.1873 8.14015 26.5264 8.3902 26.7765C8.64025 27.0265 8.97939 27.167 9.33301 27.167H22.6663C23.02 27.167 23.3591 27.0265 23.6091 26.7765C23.8592 26.5264 23.9997 26.1873 23.9997 25.8337V7.16699C23.9997 6.81337 23.8592 6.47423 23.6091 6.22418C23.3591 5.97413 23.02 5.83366 22.6663 5.83366ZM15.9997 13.8337C17.4142 13.8337 18.7707 14.3956 19.7709 15.3958C20.7711 16.396 21.333 17.7525 21.333 19.167C21.333 20.5815 20.7711 21.938 19.7709 22.9382C18.7707 23.9384 17.4142 24.5003 15.9997 24.5003C14.5852 24.5003 13.2286 23.9384 12.2284 22.9382C11.2282 21.938 10.6663 20.5815 10.6663 19.167C10.6663 17.7525 11.2282 16.396 12.2284 15.3958C13.2286 14.3956 14.5852 13.8337 15.9997 13.8337ZM15.9997 16.5003C15.2924 16.5003 14.6142 16.7813 14.1141 17.2814C13.614 17.7815 13.333 18.4597 13.333 19.167C13.333 19.8742 13.614 20.5525 14.1141 21.0526C14.6142 21.5527 15.2924 21.8337 15.9997 21.8337C16.7069 21.8337 17.3852 21.5527 17.8853 21.0526C18.3854 20.5525 18.6663 19.8742 18.6663 19.167C18.6663 18.4597 18.3854 17.7815 17.8853 17.2814C17.3852 16.7813 16.7069 16.5003 15.9997 16.5003ZM15.9997 8.50033C16.5301 8.50033 17.0388 8.71104 17.4139 9.08611C17.789 9.46118 17.9997 9.96989 17.9997 10.5003C17.9997 11.0308 17.789 11.5395 17.4139 11.9145C17.0388 12.2896 16.5301 12.5003 15.9997 12.5003C15.4692 12.5003 14.9605 12.2896 14.5855 11.9145C14.2104 11.5395 13.9997 11.0308 13.9997 10.5003C13.9997 9.96989 14.2104 9.46118 14.5855 9.08611C14.9605 8.71104 15.4692 8.50033 15.9997 8.50033Z" fill="#F19A34"/>
</g>
<defs>
<clipPath id="clip0_501_2530">
<rect width="32" height="32" fill="white" transform="translate(0 0.5)"/>
</clipPath>
</defs>
</svg>
