<svg width="32" height="33" viewBox="0 0 32 33" fill="none" xmlns="http://www.w3.org/2000/svg">
<g clip-path="url(#clip0_339_2709)">
<path d="M23.2265 4.5C24.1098 4.5 24.9306 4.93691 25.4251 5.65762L25.5418 5.84363L29.9859 13.6209C30.5453 14.5998 30.4256 15.8161 29.7077 16.6649L29.5562 16.8296L17.1787 29.2071C16.5713 29.8146 15.6115 29.8551 14.957 29.3286L14.8217 29.2071L2.4442 16.8296C1.64702 16.0324 1.44251 14.8275 1.91167 13.8197L2.0145 13.6209L6.45868 5.84363C6.89694 5.07667 7.68352 4.58077 8.55461 4.50901L8.774 4.5H23.2265ZM23.2265 7.16667H8.774L4.32982 14.944L16.0002 26.6144L27.6706 14.944L23.2265 7.16667ZM9.72409 12.8905C10.2047 12.4099 10.961 12.3729 11.4841 12.7796L11.6097 12.8905L16.0002 17.2811L20.3907 12.8905C20.9114 12.3698 21.7557 12.3698 22.2763 12.8905C22.7571 13.3712 22.794 14.1275 22.3873 14.6505L22.2763 14.7761L17.1787 19.8737C16.5713 20.4813 15.6115 20.5218 14.957 19.9952L14.8217 19.8737L9.72409 14.7761C9.2034 14.2555 9.2034 13.4112 9.72409 12.8905Z" fill="#F19A34"/>
</g>
<defs>
<clipPath id="clip0_339_2709">
<rect width="32" height="32" fill="white" transform="translate(0 0.5)"/>
</clipPath>
</defs>
</svg>
