<svg width="198" height="40" viewBox="0 0 198 40" fill="none" xmlns="http://www.w3.org/2000/svg">
<g id="Logo" clip-path="url(#clip0_53_2058)">
<path id="Vector" fill-rule="evenodd" clip-rule="evenodd" d="M25.0496 11.6853C23.4377 10.5865 21.5426 10 19.604 10V0C23.4812 0 27.2715 1.17298 30.4953 3.37061C33.7192 5.56823 36.2318 8.69181 37.7157 12.3463C39.1994 16.0008 39.5877 20.0222 38.8312 23.9018C38.0748 27.7814 36.2077 31.3451 33.466 34.1421C30.7244 36.9392 27.2313 38.844 23.4285 39.6157C19.6257 40.3874 15.684 39.9913 12.1018 38.4776C8.51969 36.9638 5.45797 34.4004 3.30387 31.1114C1.14975 27.8224 0 23.9556 0 20H9.80198C9.80198 21.9778 10.3769 23.9112 11.4539 25.5557C12.5309 27.2002 14.0618 28.4819 15.8529 29.2388C17.644 29.9957 19.6148 30.1937 21.5162 29.8078C23.4176 29.422 25.1641 28.4696 26.535 27.0711C27.9058 25.6725 28.8394 23.8907 29.2175 21.9509C29.5958 20.0111 29.4017 18.0004 28.6598 16.1732C27.9179 14.3459 26.6616 12.7841 25.0496 11.6853Z" fill="#437DEE"/>
<path id="Vector_2" fill-rule="evenodd" clip-rule="evenodd" d="M9.80198 5.28493e-06C9.80198 1.31322 9.54845 2.61358 9.05585 3.82684C8.56325 5.04009 7.84125 6.14248 6.93104 7.07107C6.02085 7.99966 4.94029 8.73625 3.75106 9.2388C2.56182 9.74134 1.28721 10 4.28454e-07 10L0 20C2.57443 20 5.12365 19.4827 7.50212 18.4776C9.88059 17.4725 12.0417 15.9993 13.8621 14.1421C15.6825 12.285 17.1265 10.0802 18.1117 7.65367C19.0969 5.22715 19.604 2.62643 19.604 0L9.80198 5.28493e-06Z" fill="#437DEE"/>
<path id="Vector_3" d="M123.132 14.4525H118.376V29.8648H123.132V14.4525Z" fill="#437DEE"/>
<path id="Vector_4" d="M118.905 11.5666C119.402 12.074 120.023 12.3277 120.769 12.3277C121.515 12.3277 122.127 12.074 122.603 11.5666C123.081 11.0381 123.319 10.4038 123.319 9.66385C123.319 8.90277 123.081 8.26849 122.603 7.76111C122.127 7.25369 121.515 7 120.769 7C120.023 7 119.402 7.25369 118.905 7.76111C118.428 8.26849 118.189 8.90277 118.189 9.66385C118.189 10.4038 118.428 11.0381 118.905 11.5666Z" fill="#437DEE"/>
<path id="Vector_5" d="M50.1436 29.8648V7.47571H55.0239V25.4885H64.7534V29.8648H50.1436Z" fill="#437DEE"/>
<path id="Vector_6" fill-rule="evenodd" clip-rule="evenodd" d="M73.5419 30.2136C71.9877 30.2136 70.5786 29.8648 69.3144 29.1671C68.071 28.4483 67.0867 27.4758 66.3614 26.2495C65.6361 25.0233 65.2734 23.6491 65.2734 22.1269C65.2734 20.6047 65.6361 19.2411 66.3614 18.036C67.0867 16.8309 68.071 15.8795 69.3144 15.1819C70.5578 14.463 71.967 14.1036 73.5419 14.1036C75.1169 14.1036 76.526 14.4525 77.7694 15.1501C79.0128 15.8478 79.9972 16.8098 80.7224 18.036C81.4478 19.2411 81.8104 20.6047 81.8104 22.1269C81.8104 23.6491 81.4478 25.0233 80.7224 26.2495C79.9972 27.4758 79.0128 28.4483 77.7694 29.1671C76.526 29.8648 75.1169 30.2136 73.5419 30.2136ZM73.5419 25.8056C74.2258 25.8056 74.8267 25.6576 75.3449 25.3616C75.8629 25.0445 76.2566 24.6111 76.526 24.0614C76.8161 23.4906 76.9612 22.8457 76.9612 22.1269C76.9612 21.4081 76.8161 20.7844 76.526 20.2559C76.2359 19.7062 75.8318 19.2834 75.3137 18.9874C74.8163 18.6702 74.2258 18.5117 73.5419 18.5117C72.8788 18.5117 72.2882 18.6702 71.7701 18.9874C71.2521 19.2834 70.8479 19.7062 70.5578 20.2559C70.2676 20.8056 70.1227 21.4398 70.1227 22.1586C70.1227 22.8563 70.2676 23.4906 70.5578 24.0614C70.8479 24.6111 71.2521 25.0445 71.7701 25.3616C72.2882 25.6576 72.8788 25.8056 73.5419 25.8056Z" fill="#437DEE"/>
<path id="Vector_7" fill-rule="evenodd" clip-rule="evenodd" d="M85.5767 35.8902C86.8408 36.4821 88.3018 36.7781 89.9597 36.7781C91.576 36.7781 93.0163 36.4504 94.2804 35.795C95.5445 35.1396 96.5391 34.2306 97.2645 33.0678C97.9897 31.905 98.3529 30.5308 98.3529 28.9451V14.4525H93.6897V15.488C93.3429 15.1902 92.9491 14.9402 92.5086 14.7379C91.7003 14.3362 90.7781 14.1353 89.7421 14.1353C88.3536 14.1353 87.1205 14.4736 86.043 15.1501C84.9653 15.8055 84.1157 16.7146 83.494 17.8774C82.8722 19.0191 82.5615 20.3087 82.5615 21.7464C82.5615 23.1629 82.8722 24.4525 83.494 25.6153C84.1157 26.7781 84.9653 27.6978 86.043 28.3743C87.1205 29.0508 88.3536 29.3891 89.7421 29.3891C90.7574 29.3891 91.6796 29.1883 92.5086 28.7866C92.9101 28.592 93.2727 28.3627 93.5965 28.0986V29.072C93.5965 30.1502 93.2546 30.9853 92.5707 31.5773C91.9076 32.1693 90.9854 32.4652 89.8042 32.4652C88.851 32.4652 88.0324 32.2961 87.3485 31.9578C86.6854 31.6196 86.0844 31.1227 85.5455 30.4673L82.6237 33.4483C83.3489 34.5054 84.3333 35.3194 85.5767 35.8902ZM92.3531 24.6322C91.8764 24.9282 91.3067 25.0762 90.6435 25.0762C89.9803 25.0762 89.4001 24.9282 88.9027 24.6322C88.426 24.3362 88.0531 23.9345 87.7837 23.4271C87.5143 22.8986 87.3796 22.3383 87.3796 21.7464C87.3796 21.1121 87.5143 20.5413 87.7837 20.0339C88.0531 19.5265 88.4364 19.1248 88.9338 18.8288C89.4311 18.5328 90.001 18.3848 90.6435 18.3848C91.3067 18.3848 91.8764 18.5328 92.3531 18.8288C92.8505 19.1248 93.2234 19.5265 93.4722 20.0339C93.7416 20.5413 93.8762 21.1121 93.8762 21.7464C93.8762 22.3806 93.7416 22.9514 93.4722 23.4588C93.2234 23.9451 92.8505 24.3362 92.3531 24.6322Z" fill="#437DEE"/>
<path id="Vector_8" fill-rule="evenodd" clip-rule="evenodd" d="M108.362 30.2136C106.807 30.2136 105.398 29.8648 104.134 29.1671C102.89 28.4483 101.906 27.4758 101.181 26.2495C100.455 25.0233 100.093 23.6491 100.093 22.1269C100.093 20.6047 100.455 19.2411 101.181 18.036C101.906 16.8309 102.89 15.8795 104.134 15.1819C105.377 14.463 106.787 14.1036 108.362 14.1036C109.936 14.1036 111.345 14.4525 112.588 15.1501C113.832 15.8478 114.816 16.8098 115.542 18.036C116.267 19.2411 116.63 20.6047 116.63 22.1269C116.63 23.6491 116.267 25.0233 115.542 26.2495C114.816 27.4758 113.832 28.4483 112.588 29.1671C111.345 29.8648 109.936 30.2136 108.362 30.2136ZM108.362 25.8056C109.045 25.8056 109.646 25.6576 110.164 25.3616C110.682 25.0445 111.076 24.6111 111.345 24.0614C111.636 23.4906 111.781 22.8457 111.781 22.1269C111.781 21.4081 111.636 20.7844 111.345 20.2559C111.055 19.7062 110.651 19.2834 110.133 18.9874C109.636 18.6702 109.045 18.5117 108.362 18.5117C107.698 18.5117 107.107 18.6702 106.59 18.9874C106.071 19.2834 105.667 19.7062 105.377 20.2559C105.087 20.8056 104.942 21.4398 104.942 22.1586C104.942 22.8563 105.087 23.4906 105.377 24.0614C105.667 24.6111 106.071 25.0445 106.59 25.3616C107.107 25.6576 107.698 25.8056 108.362 25.8056Z" fill="#437DEE"/>
<path id="Vector_9" fill-rule="evenodd" clip-rule="evenodd" d="M134.563 30.1819C133.548 30.1819 132.615 29.9811 131.765 29.5794C131.318 29.368 130.914 29.1156 130.554 28.8222V36.3659H125.859V14.4525H130.615V15.5162C130.96 15.2283 131.344 14.9794 131.765 14.7696C132.615 14.3467 133.548 14.1353 134.563 14.1353C135.993 14.1353 137.257 14.4842 138.355 15.1819C139.474 15.8795 140.345 16.8309 140.966 18.036C141.609 19.2411 141.93 20.6153 141.93 22.1586C141.93 23.702 141.609 25.0762 140.966 26.2813C140.345 27.4864 139.474 28.4377 138.355 29.1354C137.257 29.8331 135.993 30.1819 134.563 30.1819ZM133.693 25.8056C134.376 25.8056 134.967 25.647 135.464 25.3299C135.983 25.0128 136.387 24.5793 136.677 24.0297C136.967 23.48 137.112 22.8563 137.112 22.1586C137.112 21.4398 136.967 20.8056 136.677 20.2559C136.387 19.7062 135.983 19.2834 135.464 18.9874C134.967 18.6702 134.387 18.5117 133.724 18.5117C133.061 18.5117 132.47 18.6702 131.952 18.9874C131.454 19.2834 131.061 19.7062 130.771 20.2559C130.481 20.8056 130.336 21.4398 130.336 22.1586C130.336 22.8563 130.47 23.48 130.74 24.0297C131.03 24.5793 131.434 25.0128 131.952 25.3299C132.47 25.647 133.05 25.8056 133.693 25.8056Z" fill="#437DEE"/>
<path id="Vector_10" d="M146.585 29.8965C147.456 30.1291 148.336 30.2453 149.227 30.2453C151.113 30.2453 152.605 29.8014 153.703 28.9134C154.822 28.0255 155.381 26.831 155.381 25.3299C155.381 24.3574 155.206 23.5751 154.853 22.9832C154.501 22.3701 154.045 21.8838 153.486 21.5244C152.926 21.165 152.335 20.8795 151.714 20.6681C151.092 20.4567 150.501 20.277 149.942 20.129C149.383 19.981 148.927 19.8119 148.574 19.6216C148.222 19.4313 148.046 19.1776 148.046 18.8605C148.046 18.5645 148.181 18.3425 148.449 18.1945C148.719 18.0254 149.123 17.9409 149.662 17.9409C150.222 17.9409 150.791 18.0571 151.371 18.2897C151.972 18.5222 152.511 18.924 152.988 19.4948L155.692 16.7041C155.009 15.8161 154.118 15.1501 153.019 14.7062C151.942 14.2411 150.761 14.0085 149.476 14.0085C148.253 14.0085 147.186 14.2199 146.274 14.6427C145.362 15.0656 144.657 15.647 144.16 16.3869C143.663 17.1057 143.414 17.962 143.414 18.9557C143.414 19.8859 143.591 20.6576 143.943 21.2707C144.294 21.8626 144.751 22.3278 145.31 22.666C145.87 23.0043 146.461 23.2686 147.082 23.4588C147.704 23.6491 148.295 23.8288 148.854 23.998C149.413 24.146 149.87 24.3257 150.222 24.5371C150.595 24.7274 150.781 25.0128 150.781 25.3933C150.781 25.6893 150.626 25.9218 150.315 26.091C150.025 26.2601 149.6 26.3447 149.041 26.3447C148.232 26.3447 147.486 26.1967 146.803 25.9007C146.119 25.5836 145.528 25.1502 145.031 24.6005L142.326 27.3912C142.845 27.962 143.466 28.4695 144.191 28.9134C144.937 29.3362 145.735 29.6639 146.585 29.8965Z" fill="#437DEE"/>
<path id="Vector_11" d="M164.054 30.2136C162.666 30.2136 161.433 29.9282 160.355 29.3574C159.298 28.7654 158.469 27.962 157.869 26.9472C157.267 25.9113 156.967 24.7274 156.967 23.3954V14.4525H161.723V23.332C161.723 23.8605 161.805 24.3151 161.972 24.6956C162.158 25.0762 162.427 25.3722 162.779 25.5836C163.132 25.795 163.557 25.9007 164.054 25.9007C164.758 25.9007 165.318 25.6787 165.733 25.2347C166.147 24.7696 166.354 24.1354 166.354 23.332V14.4525H171.11V23.3637C171.11 24.7168 170.81 25.9113 170.208 26.9472C169.607 27.962 168.779 28.7654 167.722 29.3574C166.665 29.9282 165.443 30.2136 164.054 30.2136Z" fill="#437DEE"/>
<path id="Vector_12" d="M178.231 14.4525H173.475V29.8648H178.231V20.8584C178.231 20.3299 178.334 19.8859 178.541 19.5265C178.77 19.1671 179.071 18.8922 179.443 18.702C179.816 18.4905 180.241 18.3848 180.717 18.3848C181.401 18.3848 181.971 18.6068 182.427 19.0508C182.904 19.4736 183.142 20.0762 183.142 20.8584V29.8648H187.898V20.8584C187.898 20.3299 188.002 19.8859 188.209 19.5265C188.437 19.1671 188.737 18.8922 189.111 18.702C189.483 18.4905 189.909 18.3848 190.385 18.3848C191.069 18.3848 191.639 18.6068 192.094 19.0508C192.571 19.4736 192.809 20.0762 192.809 20.8584V29.8648H197.566V20.3193C197.566 19.0297 197.296 17.9303 196.757 17.0212C196.239 16.0909 195.524 15.3827 194.613 14.8965C193.722 14.389 192.695 14.1353 191.535 14.1353C190.354 14.1353 189.286 14.3996 188.333 14.9282C187.714 15.2649 187.173 15.6995 186.709 16.2319C186.277 15.675 185.752 15.2193 185.131 14.8647C184.303 14.3785 183.36 14.1353 182.303 14.1353C181.184 14.1353 180.179 14.3785 179.288 14.8647C178.9 15.067 178.548 15.3093 178.231 15.5916V14.4525Z" fill="#437DEE"/>
</g>
<defs>
<clipPath id="clip0_53_2058">
<rect width="198" height="40" fill="white"/>
</clipPath>
</defs>
</svg>
