<svg width="60" height="60" viewBox="0 0 60 60" fill="none" xmlns="http://www.w3.org/2000/svg">
<path id="Vector" fill-rule="evenodd" clip-rule="evenodd" d="M20.5719 0C17.1873 0 13.9415 1.34451 11.5482 3.73774L0 15.2859V20.5719C0 24.3064 1.60416 27.6663 4.16102 30C1.60416 32.3337 0 35.6935 0 39.4281V44.7141L11.5482 56.2623C13.9415 58.6555 17.1873 60 20.5719 60C24.3065 60 27.6663 58.3959 30 55.839C32.3337 58.3959 35.6936 60 39.4281 60C42.8127 60 46.0586 58.6555 48.4518 56.2623L60 44.7141V39.4281C60 35.6935 58.3959 32.3337 55.839 30C58.3959 27.6663 60 24.3064 60 20.5719V15.2859L48.4518 3.73774C46.0586 1.34451 42.8127 0 39.4281 0C35.6936 0 32.3337 1.60416 30 4.16101C27.6663 1.60416 24.3065 0 20.5719 0ZM38.6382 30C38.4944 29.8687 38.3532 29.7339 38.2149 29.5956L30 21.3807L21.7851 29.5956C21.6468 29.7339 21.5057 29.8687 21.3618 30C21.5057 30.1312 21.6468 30.2661 21.7851 30.4044L30 38.6193L38.2149 30.4044C38.3532 30.2661 38.4944 30.1312 38.6382 30ZM33.3333 44.7141V47.2386C33.3333 50.6046 36.0621 53.3334 39.4281 53.3334C41.0445 53.3334 42.5948 52.6912 43.7378 51.5482L53.3334 41.9526V39.4281C53.3334 36.0621 50.6046 33.3333 47.2386 33.3333C45.6222 33.3333 44.072 33.9754 42.929 35.1184L33.3333 44.7141ZM26.6667 44.7141L17.0711 35.1184C15.9281 33.9754 14.3779 33.3333 12.7614 33.3333C9.39539 33.3333 6.66666 36.0621 6.66666 39.4281V41.9526L16.2623 51.5482C17.4053 52.6912 18.9555 53.3334 20.5719 53.3334C23.9379 53.3334 26.6667 50.6046 26.6667 47.2386V44.7141ZM26.6667 12.7614V15.2859L17.0711 24.8815C15.9281 26.0245 14.3779 26.6667 12.7614 26.6667C9.39539 26.6667 6.66666 23.9379 6.66666 20.5719V18.0474L16.2623 8.45178C17.4053 7.30879 18.9555 6.66667 20.5719 6.66667C23.9379 6.66667 26.6667 9.39538 26.6667 12.7614ZM42.929 24.8815L33.3333 15.2859V12.7614C33.3333 9.39538 36.0621 6.66667 39.4281 6.66667C41.0445 6.66667 42.5948 7.30879 43.7378 8.45178L53.3334 18.0474V20.5719C53.3334 23.9379 50.6046 26.6667 47.2386 26.6667C45.6222 26.6667 44.072 26.0245 42.929 24.8815Z" fill="#F19A34"/>
</svg>
