<svg width="186" height="42" viewBox="0 0 186 42" fill="none" xmlns="http://www.w3.org/2000/svg">
<g id="Logo" clip-path="url(#clip0_53_2090)">
<path id="Vector" fill-rule="evenodd" clip-rule="evenodd" d="M59.0371 3.22873C59.0371 1.83934 60.1757 0.713013 61.5804 0.713013H66.011C67.0107 0.713013 67.9796 1.05571 68.7526 1.68277L70.1004 2.77605L70.1341 2.80646C70.1652 2.79608 70.1963 2.78594 70.2275 2.77605C72.6591 2.00566 75.6093 1.85915 78.6204 1.85915C81.6315 1.85915 84.5817 2.00566 87.0133 2.77605C87.0445 2.78594 87.0756 2.79608 87.1067 2.80646L87.1404 2.77605L88.4882 1.68277C89.2612 1.05571 90.2301 0.713013 91.2298 0.713013H95.6604C97.0651 0.713013 98.2037 1.83934 98.2037 3.22873V4.78391C98.2037 5.98716 97.6913 7.13475 96.7921 7.94515L95.7048 8.92514C95.174 9.40356 94.5369 9.75174 93.8449 9.94156L93.5877 10.0121C94.5952 12.3901 95.1518 14.9319 95.1518 16.9881C95.1518 25.2595 89.9779 28.8318 85.4191 31.9794C81.829 34.4582 78.6204 36.6735 78.6204 40.7131C78.6204 36.6735 75.4118 34.4582 71.8217 31.9794C67.2629 28.8318 62.089 25.2595 62.089 16.9881C62.089 14.9319 62.6456 12.3901 63.6531 10.0121L63.3959 9.94156C62.7039 9.75174 62.0668 9.40356 61.536 8.92514L60.4487 7.94515C59.5495 7.13475 59.0371 5.98716 59.0371 4.78391V3.22873ZM81.9267 23.7503C81.9267 24.1455 81.7525 24.5244 81.4425 24.8039C81.1325 25.0833 80.712 25.2403 80.2735 25.2403C79.895 25.2403 79.5298 25.1232 79.2376 24.9114C79.735 26.2284 81.0079 27.4763 82.944 25.4695C84.6532 23.6048 82.868 19.6719 81.1288 17.3381C80.5491 16.5602 79.5974 16.1858 78.6204 16.1858C77.6434 16.1858 76.6917 16.5602 76.112 17.3381C74.3728 19.6719 72.5876 23.6048 74.2968 25.4695C76.2329 27.4763 77.5058 26.2284 78.0032 24.9114C77.711 25.1232 77.3458 25.2403 76.9673 25.2403C76.5288 25.2403 76.1083 25.0833 75.7983 24.8039C75.4883 24.5244 75.3141 24.1455 75.3141 23.7503H81.9267ZM72.2897 12.1082H67.6843L71.3138 14.9829C72.1125 15.6154 73.2799 15.4132 73.7741 14.5567C74.3981 13.4753 73.5693 12.1082 72.2897 12.1082ZM84.9511 12.1082H89.5565L85.927 14.9829C85.1283 15.6154 83.9609 15.4132 83.4667 14.5567C82.8427 13.4753 83.6715 12.1082 84.9511 12.1082Z" fill="#72B800"/>
<path id="Vector_2" d="M103.69 29.0463H107.77V13.6563H103.69V29.0463ZM103.69 11.2563H107.77V7.59631H103.69V11.2563Z" fill="#355030"/>
<path id="Vector_3" d="M110.399 34.0863H114.479V27.3063H114.539C115.409 28.6263 116.819 29.4963 118.979 29.4963C122.939 29.4963 125.639 26.3463 125.639 21.3663C125.639 16.5663 123.029 13.2363 118.949 13.2363C116.849 13.2363 115.409 14.2263 114.419 15.5763H114.329V13.6563H110.399V34.0863ZM118.109 26.1063C115.679 26.1063 114.389 24.2763 114.389 21.4863C114.389 18.7263 115.409 16.5363 117.959 16.5363C120.479 16.5363 121.499 18.5763 121.499 21.4863C121.499 24.3963 120.179 26.1063 118.109 26.1063Z" fill="#355030"/>
<path id="Vector_4" d="M133.778 29.4963C137.618 29.4963 140.258 27.6363 140.258 24.5463C140.258 20.9463 137.408 20.2263 134.828 19.6863C132.638 19.2363 130.598 19.1163 130.598 17.7963C130.598 16.6863 131.648 16.0863 133.238 16.0863C134.978 16.0863 136.028 16.6863 136.208 18.3363H139.898C139.598 15.2463 137.348 13.2363 133.298 13.2363C129.788 13.2363 127.028 14.8263 127.028 18.1563C127.028 21.5163 129.728 22.2663 132.488 22.8063C134.588 23.2263 136.538 23.3763 136.538 24.8463C136.538 25.9263 135.518 26.6163 133.718 26.6163C131.888 26.6163 130.628 25.8363 130.358 24.0663H126.578C126.818 27.3363 129.308 29.4963 133.778 29.4963Z" fill="#355030"/>
<path id="Vector_5" d="M155.749 29.0463V13.6562H151.669V22.5363C151.669 24.5763 150.499 26.0163 148.579 26.0163C146.839 26.0163 146.029 25.0262 146.029 23.2262V13.6562H141.979V23.9163C141.979 27.2762 143.899 29.4662 147.319 29.4662C149.479 29.4662 150.679 28.6562 151.729 27.2463H151.819V29.0463H155.749Z" fill="#355030"/>
<path id="Vector_6" d="M158.388 29.0463H162.468V20.1063C162.468 18.0663 163.578 16.7463 165.228 16.7463C166.728 16.7463 167.598 17.6463 167.598 19.3863V29.0463H171.678V20.1063C171.678 18.0663 172.728 16.7463 174.438 16.7463C175.938 16.7463 176.808 17.6463 176.808 19.3863V29.0463H180.888V18.6963C180.888 15.3363 179.058 13.2363 175.818 13.2363C173.868 13.2363 172.248 14.2563 171.198 15.9363H171.138C170.388 14.3163 168.828 13.2363 166.878 13.2363C164.748 13.2363 163.248 14.3163 162.408 15.7263H162.318V13.6563H158.388V29.0463Z" fill="#355030"/>
<path id="Vector_7" d="M0.683594 29.0463H4.76359V7.59631H0.683594V29.0463Z" fill="#355030"/>
<path id="Vector_8" d="M14.7402 29.4963C19.5102 29.4963 22.7802 25.9563 22.7802 21.3663C22.7802 16.7763 19.5102 13.2363 14.7402 13.2363C9.9702 13.2363 6.7002 16.7763 6.7002 21.3663C6.7002 25.9563 9.9702 29.4963 14.7402 29.4963ZM14.7402 26.3763C12.2202 26.3763 10.8402 24.3663 10.8402 21.3663C10.8402 18.3663 12.2202 16.3263 14.7402 16.3263C17.2302 16.3263 18.6402 18.3663 18.6402 21.3663C18.6402 24.3663 17.2302 26.3763 14.7402 26.3763Z" fill="#355030"/>
<path id="Vector_9" d="M31.4568 34.2963C33.7368 34.2963 35.7168 33.7563 37.0068 32.5563C38.1468 31.5063 38.8368 30.0363 38.8368 27.8763V13.6563H34.9068V15.2763H34.8468C33.9168 13.9863 32.5068 13.2363 30.5868 13.2363C26.6868 13.2363 23.9268 16.1763 23.9268 20.7663C23.9268 25.4163 27.2868 28.1163 30.7068 28.1163C32.6568 28.1163 33.8268 27.3363 34.7268 26.3163H34.8168V27.9963C34.8168 30.0963 33.7068 31.2063 31.3968 31.2063C29.5068 31.2063 28.6368 30.4563 28.3068 29.4963H24.2568C24.6768 32.4963 27.2568 34.2963 31.4568 34.2963ZM31.3968 24.8463C29.2968 24.8463 27.9168 23.3163 27.9168 20.7063C27.9168 18.1263 29.2968 16.5063 31.3668 16.5063C33.8268 16.5063 35.0268 18.4263 35.0268 20.6763C35.0268 22.9563 33.9768 24.8463 31.3968 24.8463Z" fill="#355030"/>
<path id="Vector_10" d="M48.7539 29.4963C53.5239 29.4963 56.7939 25.9563 56.7939 21.3663C56.7939 16.7763 53.5239 13.2363 48.7539 13.2363C43.9839 13.2363 40.7139 16.7763 40.7139 21.3663C40.7139 25.9563 43.9839 29.4963 48.7539 29.4963ZM48.7539 26.3763C46.2339 26.3763 44.8539 24.3663 44.8539 21.3663C44.8539 18.3663 46.2339 16.3263 48.7539 16.3263C51.2439 16.3263 52.6539 18.3663 52.6539 21.3663C52.6539 24.3663 51.2439 26.3763 48.7539 26.3763Z" fill="#355030"/>
<path id="Vector_11" d="M180.704 10.2963C180.704 9.6059 181.263 9.04626 181.954 9.04626H184.454C185.144 9.04626 185.704 9.6059 185.704 10.2963C185.704 10.9866 185.144 11.5463 184.454 11.5463H181.954C181.263 11.5463 180.704 10.9866 180.704 10.2963Z" fill="#355030"/>
</g>
<defs>
<clipPath id="clip0_53_2090">
<rect width="186" height="41" fill="white" transform="translate(0 0.5)"/>
</clipPath>
</defs>
</svg>
