<svg height="512" viewBox="0 0 64 64" width="512" xmlns="http://www.w3.org/2000/svg" xmlns:xlink="http://www.w3.org/1999/xlink"><linearGradient id="New_Gradient_Swatch_1" gradientUnits="userSpaceOnUse" x1="13" x2="13" y1="-2.003" y2="65.526"><stop offset="0" stop-color="#fff33b"/><stop offset=".014" stop-color="#fee72e"/><stop offset=".042" stop-color="#fed51b"/><stop offset=".07" stop-color="#fdca10"/><stop offset=".1" stop-color="#fdc70c"/><stop offset=".4" stop-color="#f3903f"/><stop offset=".8" stop-color="#ed683c"/><stop offset="1" stop-color="#e93e3a"/></linearGradient><linearGradient id="New_Gradient_Swatch_1-2" x1="11" x2="11" xlink:href="#New_Gradient_Swatch_1" y1="-2.003" y2="65.526"/><linearGradient id="New_Gradient_Swatch_1-3" x1="15" x2="15" xlink:href="#New_Gradient_Swatch_1" y1="-2.003" y2="65.526"/><linearGradient id="New_Gradient_Swatch_1-4" x1="7" x2="7" xlink:href="#New_Gradient_Swatch_1" y1="-2.003" y2="65.526"/><linearGradient id="New_Gradient_Swatch_1-5" x1="51" x2="51" xlink:href="#New_Gradient_Swatch_1" y1="-2.003" y2="65.526"/><linearGradient id="New_Gradient_Swatch_1-6" x1="49" x2="49" xlink:href="#New_Gradient_Swatch_1" y1="-2.003" y2="65.526"/><linearGradient id="New_Gradient_Swatch_1-7" x1="53" x2="53" xlink:href="#New_Gradient_Swatch_1" y1="-2.003" y2="65.526"/><linearGradient id="New_Gradient_Swatch_1-8" x1="45" x2="45" xlink:href="#New_Gradient_Swatch_1" y1="-2.003" y2="65.526"/><linearGradient id="New_Gradient_Swatch_1-17" x1="32" x2="32" xlink:href="#New_Gradient_Swatch_1" y1="-2.003" y2="65.526"/><linearGradient id="New_Gradient_Swatch_1-18" x1="7.627" x2="7.627" xlink:href="#New_Gradient_Swatch_1" y1="-2.003" y2="65.526"/><linearGradient id="New_Gradient_Swatch_1-20" x1="56.373" x2="56.373" xlink:href="#New_Gradient_Swatch_1" y1="-2.003" y2="65.526"/><linearGradient id="New_Gradient_Swatch_1-23" gradientTransform="matrix(.259 .966 -.966 .259 39.063 -27.476)" x1="37.436" x2="37.436" xlink:href="#New_Gradient_Swatch_1" y1="-2.003" y2="65.526"/><linearGradient id="New_Gradient_Swatch_1-24" gradientTransform="matrix(.966 .259 -.259 .966 3.937 -6.476)" x1="26.564" x2="26.564" xlink:href="#New_Gradient_Swatch_1" y1="-2.003" y2="65.526"/><linearGradient id="New_Gradient_Swatch_1-26" gradientTransform="matrix(.259 .966 -.966 .259 34.343 8.372)" x1="11.716" x2="11.716" xlink:href="#New_Gradient_Swatch_1" y1="-2.003" y2="65.526"/><linearGradient id="New_Gradient_Swatch_1-27" gradientTransform="matrix(.966 .259 -.259 .966 10.088 -1.757)" x1="11.716" x2="11.716" xlink:href="#New_Gradient_Swatch_1" y1="-2.003" y2="65.526"/><linearGradient id="New_Gradient_Swatch_1-29" gradientTransform="matrix(.259 .966 -.966 .259 70.192 13.093)" x1="26.564" x2="26.564" xlink:href="#New_Gradient_Swatch_1" y1="-2.003" y2="65.526"/><linearGradient id="New_Gradient_Swatch_1-30" gradientTransform="matrix(.966 .259 -.259 .966 14.808 -7.907)" x1="37.436" x2="37.436" xlink:href="#New_Gradient_Swatch_1" y1="-2.003" y2="65.526"/><linearGradient id="New_Gradient_Swatch_1-32" gradientTransform="matrix(.259 .966 -.966 .259 74.912 -22.756)" x1="52.284" x2="52.284" xlink:href="#New_Gradient_Swatch_1" y1="-2.003" y2="65.526"/><linearGradient id="New_Gradient_Swatch_1-33" gradientTransform="matrix(.966 .259 -.259 .966 8.657 -12.627)" x1="52.284" x2="52.284" xlink:href="#New_Gradient_Swatch_1" y1="-2.003" y2="65.526"/><g id="social_network-cloud-browser-web-cloud_computing" data-name="social network-cloud-browser-web-cloud computing"><path d="m21 42h-16a3.009 3.009 0 0 0 -3 3v14a3.009 3.009 0 0 0 3 3h16a3.009 3.009 0 0 0 3-3v-14a3.009 3.009 0 0 0 -3-3zm1 17a1 1 0 0 1 -1 1h-16a1 1 0 0 1 -1-1v-9h18zm0-11h-18v-3a1 1 0 0 1 1-1h16a1 1 0 0 1 1 1z" fill="url(#New_Gradient_Swatch_1)"/><path d="m10 45h2v2h-2z" fill="url(#New_Gradient_Swatch_1-2)"/><path d="m14 45h2v2h-2z" fill="url(#New_Gradient_Swatch_1-3)"/><path d="m6 45h2v2h-2z" fill="url(#New_Gradient_Swatch_1-4)"/><path d="m59 2h-16a3 3 0 0 0 -3 3v14a3 3 0 0 0 3 3h16a3 3 0 0 0 3-3v-14a3 3 0 0 0 -3-3zm-16 2h16a1 1 0 0 1 1 1v3h-18v-3a1 1 0 0 1 1-1zm16 16h-16a1 1 0 0 1 -1-1v-9h18v9a1 1 0 0 1 -1 1z" fill="url(#New_Gradient_Swatch_1-5)"/><path d="m48 5h2v2h-2z" fill="url(#New_Gradient_Swatch_1-6)"/><path d="m52 5h2v2h-2z" fill="url(#New_Gradient_Swatch_1-7)"/><path d="m44 5h2v2h-2z" fill="url(#New_Gradient_Swatch_1-8)"/><path d="m5 22h16a3 3 0 0 0 3-3v-14a3 3 0 0 0 -3-3h-16a3 3 0 0 0 -3 3v14a3 3 0 0 0 3 3zm16-2h-16a1 1 0 0 1 -1-1v-9h18v9a1 1 0 0 1 -1 1zm-16-16h16a1 1 0 0 1 1 1v3h-18v-3a1 1 0 0 1 1-1z" fill="url(#New_Gradient_Swatch_1)"/><path d="m10 5h2v2h-2z" fill="url(#New_Gradient_Swatch_1-2)"/><path d="m14 5h2v2h-2z" fill="url(#New_Gradient_Swatch_1-3)"/><path d="m6 5h2v2h-2z" fill="url(#New_Gradient_Swatch_1-4)"/><path d="m59 42h-16a3.009 3.009 0 0 0 -3 3v14a3.009 3.009 0 0 0 3 3h16a3.009 3.009 0 0 0 3-3v-14a3.009 3.009 0 0 0 -3-3zm1 17a1 1 0 0 1 -1 1h-16a1 1 0 0 1 -1-1v-9h18zm0-11h-18v-3a1 1 0 0 1 1-1h16a1 1 0 0 1 1 1z" fill="url(#New_Gradient_Swatch_1-5)"/><path d="m48 45h2v2h-2z" fill="url(#New_Gradient_Swatch_1-6)"/><path d="m52 45h2v2h-2z" fill="url(#New_Gradient_Swatch_1-7)"/><path d="m44 45h2v2h-2z" fill="url(#New_Gradient_Swatch_1-8)"/><path d="m45 35a5.009 5.009 0 0 0 -4.084-4.916 5.009 5.009 0 0 0 -4.916-4.084 4.812 4.812 0 0 0 -1.375.2 5.934 5.934 0 0 0 -4.625-2.2 6.02 6.02 0 0 0 -5.67 4.037 6 6 0 0 0 .67 11.963h15a5.006 5.006 0 0 0 5-5zm-24-1a4.006 4.006 0 0 1 3.954-4 1.413 1.413 0 0 0 .146.01 1 1 0 0 0 .98-.8 4.01 4.01 0 0 1 3.92-3.21 3.965 3.965 0 0 1 3.405 1.934 1 1 0 0 0 1.292.379 2.966 2.966 0 0 1 1.303-.313 3 3 0 0 1 3 3 1 1 0 0 0 1 1 3 3 0 0 1 0 6h-15a4 4 0 0 1 -4-4z" fill="url(#New_Gradient_Swatch_1-17)"/><path d="m7.36 23.681a26.123 26.123 0 0 0 0 16.638l1.9-.638a24.133 24.133 0 0 1 0-15.362z" fill="url(#New_Gradient_Swatch_1-18)"/><path d="m26.239 55.305-.478 1.941a26.189 26.189 0 0 0 12.478 0l-.478-1.941a24.344 24.344 0 0 1 -11.522 0z" fill="url(#New_Gradient_Swatch_1-17)"/><path d="m56.64 40.319a26.123 26.123 0 0 0 0-16.638l-1.9.638a24.133 24.133 0 0 1 0 15.362z" fill="url(#New_Gradient_Swatch_1-20)"/><path d="m37.761 8.7.478-1.941a26.325 26.325 0 0 0 -12.478 0l.478 1.941a24.344 24.344 0 0 1 11.522 0z" fill="url(#New_Gradient_Swatch_1-17)"/><path d="m31 10h2v2h-2z" fill="url(#New_Gradient_Swatch_1-17)"/><path d="m36.436 10.716h2v2h-2z" fill="url(#New_Gradient_Swatch_1-23)" transform="matrix(.259 -.966 .966 .259 16.43 44.844)"/><path d="m25.565 10.716h2v2h-2z" fill="url(#New_Gradient_Swatch_1-24)" transform="matrix(.966 -.259 .259 .966 -2.127 7.275)"/><path d="m10 31h2v2h-2z" fill="url(#New_Gradient_Swatch_1-2)"/><path d="m10.716 25.565h2v2h-2z" fill="url(#New_Gradient_Swatch_1-26)" transform="matrix(.259 -.966 .966 .259 -16.976 31.006)"/><path d="m10.716 36.436h2v2h-2z" fill="url(#New_Gradient_Swatch_1-27)" transform="matrix(.966 -.259 .259 .966 -9.29 4.308)"/><path d="m31 52h2v2h-2z" fill="url(#New_Gradient_Swatch_1-17)"/><path d="m25.565 51.284h2v2h-2z" fill="url(#New_Gradient_Swatch_1-29)" transform="matrix(.259 -.966 .966 .259 -30.814 64.411)"/><path d="m36.436 51.284h2v2h-2z" fill="url(#New_Gradient_Swatch_1-30)" transform="matrix(.966 -.259 .259 .966 -12.256 11.47)"/><path d="m52 31h2v2h-2z" fill="url(#New_Gradient_Swatch_1-7)"/><path d="m51.284 36.436h2v2h-2z" fill="url(#New_Gradient_Swatch_1-32)" transform="matrix(.259 -.966 .966 .259 2.592 78.249)"/><path d="m51.284 25.565h2v2h-2z" fill="url(#New_Gradient_Swatch_1-33)" transform="matrix(.966 -.259 .259 .966 -5.094 14.437)"/></g></svg>