<svg xmlns="http://www.w3.org/2000/svg" width="63" height="37" viewBox="0 0 63 37" fill="none">
  <path d="M5.14017 0H20.9561L15.8159 18.5L20.9561 37H5.14017L0 18.5L5.14017 0Z" fill="#FBE8CA"/>
  <path fill-rule="evenodd" clip-rule="evenodd" d="M36.772 18.5L41.9121 0H26.0962L20.9561 18.5L26.0962 37H41.9121L36.772 18.5ZM41.218 36.4714L36.2247 18.5L41.218 0.528571H26.4966L21.5033 18.5L26.4966 36.4714H41.218Z" fill="#FBE8CA"/>
  <path d="M46.6701 1.85L46.2295 3.43571H62.0454L62.486 1.85H46.6701Z" fill="#FBE8CA"/>
  <path d="M45.9358 4.49286L45.4952 6.07857H61.3111L61.7517 4.49286H45.9358Z" fill="#FBE8CA"/>
  <path d="M45.2015 7.13571L44.7609 8.72143H60.5768L61.0174 7.13571H45.2015Z" fill="#FBE8CA"/>
  <path d="M44.4672 9.77857L44.0266 11.3643H59.8425L60.2831 9.77857H44.4672Z" fill="#FBE8CA"/>
  <path d="M43.7328 12.4214L43.2923 14.0071H59.1082L59.5487 12.4214H43.7328Z" fill="#FBE8CA"/>
  <path d="M42.9985 15.0643L42.5579 16.65H58.3738L58.8144 15.0643H42.9985Z" fill="#FBE8CA"/>
  <path d="M42.0439 18.5L42.2642 19.2929H58.0801L57.8598 18.5L58.0801 17.7071H42.2642L42.0439 18.5Z" fill="#FBE8CA"/>
  <path d="M42.5579 20.35L42.9985 21.9357H58.8144L58.3738 20.35H42.5579Z" fill="#FBE8CA"/>
  <path d="M43.2923 22.9929L43.7328 24.5786H59.5487L59.1082 22.9929H43.2923Z" fill="#FBE8CA"/>
  <path d="M44.0266 25.6357L44.4672 27.2214H60.2831L59.8425 25.6357H44.0266Z" fill="#FBE8CA"/>
  <path d="M44.7609 28.2786L45.2015 29.8643H61.0174L60.5768 28.2786H44.7609Z" fill="#FBE8CA"/>
  <path d="M45.4952 30.9214L45.9358 32.5071H61.7517L61.3111 30.9214H45.4952Z" fill="#FBE8CA"/>
  <path d="M46.2295 33.5643L46.6701 35.15H62.486L62.0454 33.5643H46.2295Z" fill="#FBE8CA"/>
  <path d="M63 37L62.7797 36.2071H46.9638L47.1841 37H63Z" fill="#FBE8CA"/>
  <path d="M46.9638 0.792857H62.7797L63 0H47.1841L46.9638 0.792857Z" fill="#FBE8CA"/>
</svg>