<svg width="226" height="60" viewBox="0 0 226 60" fill="none" xmlns="http://www.w3.org/2000/svg">
<g id="Logo" clip-path="url(#clip0_255_1254)">
<g id="Group">
<path id="Vector" d="M82.3947 20.47V23.1867H77.65V31.1307H74.2447V23.1867H69.5V20.47H82.3947ZM88.148 20.47V24.2875H95.4846V20.47H98.89V31.1307H95.4846V27.2807H88.148V31.1307H84.7427V20.47H88.148ZM112.631 29.325H105.581L104.67 31.1307H100.961L106.601 20.47H111.649L117.229 31.1307H113.536L112.625 29.325H112.631ZM109.437 22.9481H108.797L106.736 26.9933H111.497L109.437 22.9481ZM124.999 20.47L130.579 28.414H130.915L130.834 20.47H134.142V31.1307H128.502L122.895 23.1705H122.543L122.624 31.1307H119.317V20.47H125.005H124.999ZM140.627 20.47V24.2875H147.964V20.47H151.369V31.1307H147.964V27.2807H140.627V31.1307H137.222V20.47H140.627ZM173.433 27.0204C173.449 27.6278 173.466 27.8663 173.466 28.029C173.466 29.7534 173.016 30.5396 171.833 30.9192C170.971 31.1903 169.805 31.2879 167.441 31.2879C163.271 31.2879 161.927 31.1578 161.064 30.6644C160.359 30.2631 160.04 29.672 159.915 28.5875C159.866 28.1104 159.833 27.2319 159.833 25.8709C159.833 23.4904 159.899 22.6119 160.137 22.0209C160.712 20.5839 161.878 20.3128 167.458 20.3128C170.304 20.3128 171.291 20.4267 172.029 20.8062C172.94 21.2672 173.26 22.0534 173.26 23.7615V24.2875H170.017C169.984 23.5826 169.952 23.4416 169.762 23.2789C169.523 23.0728 168.58 22.9752 166.536 22.9752C164.491 22.9752 163.917 23.0403 163.597 23.2952C163.212 23.6151 163.087 24.2387 163.087 25.8546C163.087 28.5875 163.136 28.6201 166.552 28.6201C169.968 28.6201 170.163 28.6038 170.18 27.0204H173.439H173.433ZM189.592 21.0448C190.406 21.6684 190.65 22.7367 190.65 25.7895C190.65 28.8424 190.411 29.9269 189.592 30.5505C188.779 31.1741 187.77 31.2879 183.362 31.2879C178.953 31.2879 177.88 31.1741 177.066 30.5505C176.237 29.9106 176.014 28.8587 176.014 25.7245C176.014 22.5902 176.253 21.663 177.066 21.0448C177.88 20.4212 178.872 20.3074 183.329 20.3074C187.786 20.3074 188.779 20.4212 189.592 21.0448ZM179.512 23.7452C179.322 24.114 179.257 24.7213 179.257 26.0769C179.257 27.4325 179.354 27.8338 179.734 28.1375C180.168 28.4737 180.678 28.5225 183.362 28.5225C186.046 28.5225 186.496 28.4574 186.924 28.1375C187.293 27.8501 187.401 27.3837 187.401 26.0932C187.401 24.5098 187.304 23.9025 187.017 23.55C186.648 23.1162 186.295 23.0728 183.324 23.0728C180.13 23.0728 179.826 23.1217 179.506 23.7452H179.512ZM199.217 20.47L204.797 28.414H205.133L205.052 20.47H208.359V31.1307H202.72L197.113 23.1705H196.761L196.842 31.1307H193.534V20.47H199.223H199.217ZM225.326 25.09V25.3774C225.326 26.4348 225.261 28.2513 225.213 28.7665C225.082 30.0137 224.399 30.7457 223.12 31.006C222.035 31.2283 220.913 31.2934 218.022 31.2934C214.362 31.2934 213.229 31.147 212.334 30.5396C211.391 29.916 211.217 29.1352 211.217 25.6323C211.217 20.649 211.678 20.3128 218.586 20.3128C222.55 20.3128 224.02 20.5677 224.725 21.4136C225.169 21.9395 225.299 22.5957 225.316 24.1628H222.073C222.057 23.5392 222.024 23.409 221.818 23.2681C221.498 23.0457 220.75 22.9807 218.321 22.9807C214.487 22.9807 214.471 22.9969 214.471 25.7624C214.471 27.5681 214.568 28.1104 214.915 28.3977C215.186 28.6201 215.474 28.6689 216.385 28.7014L218.288 28.7339C222.073 28.7339 222.171 28.7014 222.171 27.5193V27.2156H217.903V25.09H225.332H225.326Z" fill="url(#paint0_linear_255_1254)"/>
<path id="Vector_2" d="M71.6152 35.4253H75.3839C76.7178 35.4253 76.8968 35.4308 77.3414 35.5284C77.8565 35.6314 78.2036 35.9296 78.3608 36.4122C78.4801 36.781 78.5072 37.1117 78.5072 37.9631C78.5072 39.3241 78.3879 39.8609 78.0084 40.2134C77.6071 40.5713 77.1462 40.6526 75.3839 40.6526H71.6152V35.4253ZM75.4001 39.3187C76.8425 39.3187 76.9455 39.2428 76.9455 38.0552C76.9455 37.41 76.8913 37.1226 76.7341 36.9491C76.5714 36.7593 76.3599 36.7322 75.3839 36.7322H73.1823V39.3187H75.4001ZM85.1932 35.4253V40.6526H83.523V35.4253H85.1932ZM97.1281 37.6919V37.8329C97.1281 38.3481 97.0956 39.2428 97.0739 39.4922C97.0088 40.105 96.6726 40.4628 96.049 40.5876C95.5176 40.696 94.97 40.7285 93.5493 40.7285C91.7544 40.7285 91.1959 40.658 90.7567 40.3598C90.2958 40.0561 90.209 39.6712 90.209 37.9522C90.209 35.5067 90.4367 35.344 93.8204 35.344C95.7616 35.344 96.4828 35.4687 96.8299 35.8862C97.0468 36.1465 97.1118 36.4665 97.1173 37.2364H95.5285C95.523 36.9328 95.5068 36.8677 95.4038 36.7972C95.2465 36.6888 94.8778 36.6562 93.6902 36.6562C91.8086 36.6562 91.8032 36.6617 91.8032 38.0173C91.8032 38.9012 91.852 39.1669 92.0201 39.3133C92.1557 39.4217 92.2967 39.4488 92.7413 39.4597L93.674 39.4759C95.5339 39.4759 95.5773 39.4597 95.5773 38.8795V38.7331H93.4842V37.6919H97.1281ZM103.814 35.4253V40.6526H102.144V35.4253H103.814ZM114.892 35.4253V36.7593H112.566V40.6526H110.896V36.7593H108.57V35.4253H114.892ZM125.428 35.4253V36.6562H121.209V37.4154H125.217V38.565H121.209V39.3946H125.455V40.6472H119.642V35.4199H125.428V35.4253ZM136.902 38.6409C136.908 38.9391 136.918 39.0584 136.918 39.1343C136.918 39.9802 136.696 40.3652 136.121 40.555C135.698 40.6906 135.124 40.734 133.969 40.734C131.924 40.734 131.263 40.6689 130.84 40.4303C130.493 40.2351 130.341 39.9423 130.276 39.4109C130.254 39.1777 130.238 38.7439 130.238 38.0769C130.238 36.9111 130.27 36.4773 130.384 36.1899C130.666 35.485 131.241 35.3494 133.974 35.3494C135.368 35.3494 135.856 35.4036 136.214 35.5934C136.658 35.8212 136.815 36.2062 136.815 37.0412V37.3015H135.227C135.21 36.9545 135.194 36.884 135.102 36.8081C134.983 36.705 134.522 36.6617 133.519 36.6617C132.515 36.6617 132.233 36.6942 132.076 36.8189C131.886 36.9762 131.827 37.2798 131.827 38.0715C131.827 39.4109 131.848 39.4271 133.529 39.4271C135.21 39.4271 135.303 39.4217 135.308 38.6463H136.908L136.902 38.6409ZM143.512 35.4253V37.2961H147.107V35.4253H148.777V40.6526H147.107V38.7656H143.512V40.6526H141.842V35.4253H143.512Z" fill="url(#paint1_linear_255_1254)"/>
</g>
<g id="Group_2">
<path id="Vector_3" d="M59.989 30.7076C59.6148 46.8341 45.8254 60.1518 29.6989 59.9945C28.3324 59.9837 26.9876 59.8752 25.6754 59.6854C25.4531 59.6529 25.2958 59.4414 25.3338 59.2137L25.9248 55.4722C25.9574 55.2498 26.1634 55.1034 26.3858 55.1305C27.5679 55.2986 28.7717 55.3854 29.9971 55.3854C35.8372 55.3854 41.2271 53.4008 45.5218 50.0713H27.2262C26.9768 50.0713 26.7816 49.849 26.825 49.5996L30.2845 27.7415L30.2954 27.6764L31.0166 23.4685C31.0491 23.2733 31.2172 23.1323 31.4178 23.1323H48.6777C48.9325 23.1323 49.1223 23.3601 49.0789 23.6095L48.4282 27.3999C48.3957 27.5951 48.2222 27.7415 48.027 27.7415H35.2407C35.0401 27.7415 34.8665 27.8879 34.8394 28.0885L32.1661 44.9959C32.1282 45.2453 32.318 45.4676 32.5674 45.4676H49.9194C50.0496 45.4676 50.1689 45.408 50.2448 45.305C53.4712 41.0429 55.3907 35.7397 55.3907 29.9972C55.3907 17.4712 46.2755 7.03293 34.3297 4.97238C34.1074 4.93442 33.961 4.72837 33.9935 4.50604L34.5846 0.764515C34.6225 0.542193 34.834 0.38494 35.0563 0.422898C49.4205 2.87387 60.336 15.5734 59.9836 30.7022L59.989 30.7076Z" fill="url(#paint2_linear_255_1254)"/>
<path id="Vector_4" d="M41.1134 16.5169L40.5169 20.3073C40.4844 20.5079 40.3163 20.6543 40.1157 20.6543H29.2815C29.0809 20.6543 28.9074 20.8007 28.8803 21.0014L25.6376 41.4876C25.6051 41.6882 25.437 41.8346 25.2363 41.8346H21.4568C21.2074 41.8346 21.0122 41.6123 21.0556 41.3629L24.2603 21.1315C24.2982 20.8821 24.1084 20.6597 23.859 20.6597H6.66968C6.50158 20.6597 6.34975 20.7628 6.28468 20.92C5.20018 23.7451 4.60371 26.8089 4.60371 30.0081C4.60371 41.6665 12.4989 51.5084 23.2246 54.4853C23.4252 54.5395 23.5554 54.7347 23.5228 54.9408L22.9263 58.704C22.8884 58.9426 22.6552 59.0999 22.4221 59.0348C9.53276 55.662 0 43.9223 0 29.9973C0 13.4587 13.4587 0 29.9973 0C30.5883 0 31.174 0.0162675 31.7596 0.0488025C31.9982 0.06507 32.1717 0.28197 32.1392 0.52056L31.5427 4.28378C31.5102 4.48983 31.3258 4.63624 31.1197 4.62539C30.7456 4.60913 30.3769 4.59828 29.9973 4.59828C21.4243 4.59828 13.8328 8.86579 9.2291 15.3891C9.03931 15.6602 9.2291 16.0343 9.5653 16.0343H40.7067C40.9562 16.0343 41.1514 16.2567 41.108 16.5061L41.1134 16.5169Z" fill="url(#paint3_linear_255_1254)"/>
</g>
</g>
<defs>
<linearGradient id="paint0_linear_255_1254" x1="58.4218" y1="14.3968" x2="242.906" y2="37.795" gradientUnits="userSpaceOnUse">
<stop stop-color="#F8AE19"/>
<stop offset="1" stop-color="#E06776"/>
</linearGradient>
<linearGradient id="paint1_linear_255_1254" x1="169.399" y1="32.7303" x2="48.3961" y2="43.5862" gradientUnits="userSpaceOnUse">
<stop stop-color="#4CBCFB"/>
<stop offset="1" stop-color="#6A66F1"/>
</linearGradient>
<linearGradient id="paint2_linear_255_1254" x1="56.2529" y1="63.7903" x2="14.4671" y2="-7.43974" gradientUnits="userSpaceOnUse">
<stop stop-color="#4CBCFB"/>
<stop offset="1" stop-color="#6A66F1"/>
</linearGradient>
<linearGradient id="paint3_linear_255_1254" x1="3.23181" y1="-6.71306" x2="43.2824" y2="70.7962" gradientUnits="userSpaceOnUse">
<stop stop-color="#F8AE19"/>
<stop offset="1" stop-color="#E06776"/>
</linearGradient>
<clipPath id="clip0_255_1254">
<rect width="225.327" height="60" fill="white"/>
</clipPath>
</defs>
</svg>
