<svg width="32" height="33" viewBox="0 0 32 33" fill="none" xmlns="http://www.w3.org/2000/svg">
<g clip-path="url(#clip0_501_2516)">
<path fill-rule="evenodd" clip-rule="evenodd" d="M20.9098 4.87613C21.3819 4.40439 22.0136 4.1268 22.6804 4.09816C23.3471 4.06953 24.0004 4.29193 24.5111 4.72147L24.6818 4.87613L25.6245 5.82013C26.0958 6.29212 26.3732 6.92362 26.4018 7.59006C26.4305 8.25649 26.2083 8.90946 25.7791 9.42013L25.6245 9.5908L24.6818 10.5335C24.6 10.6145 24.5132 10.6902 24.4218 10.7601C24.5385 11.1784 24.5512 11.6188 24.459 12.0431C24.3667 12.4674 24.1723 12.8627 23.8925 13.1948L23.7378 13.3615L22.4178 14.6815C23.3358 15.494 24.0705 16.4925 24.5732 17.6106C25.0759 18.7287 25.3352 19.9409 25.3338 21.1668C25.3338 23.3588 24.5205 25.3601 23.1791 26.8868L22.9205 27.1668H26.6671C27.007 27.1672 27.3338 27.2973 27.581 27.5306C27.8281 27.7639 27.9768 28.0827 27.9967 28.422C28.0166 28.7612 27.9062 29.0953 27.6881 29.3559C27.47 29.6165 27.1606 29.784 26.8231 29.8241L26.6671 29.8335H5.33381C4.99397 29.8331 4.6671 29.703 4.41998 29.4697C4.17287 29.2364 4.02416 28.9175 4.00425 28.5783C3.98433 28.239 4.09471 27.905 4.31283 27.6444C4.53095 27.3838 4.84035 27.2163 5.17781 27.1761L5.33381 27.1668H16.6671C17.8709 27.1669 19.0468 26.805 20.0422 26.128C21.0375 25.4511 21.8063 24.4904 22.2484 23.3708C22.6906 22.2512 22.7858 21.0245 22.5216 19.8501C22.2575 18.6757 21.6461 17.6079 20.7671 16.7855L20.5271 16.5721L16.1965 20.9055C15.7244 21.3776 15.0923 21.6554 14.4252 21.684C13.7582 21.7127 13.1047 21.49 12.5938 21.0601L12.4245 20.9041L9.59648 18.0761C9.12454 17.6043 8.8467 16.9726 8.81782 16.3058C8.78894 15.6391 9.01112 14.9857 9.44048 14.4748L9.59648 14.3055L17.1391 6.7628C17.4731 6.42872 17.8898 6.18935 18.3466 6.06917C18.8035 5.94899 19.284 5.95231 19.7391 6.0788L19.8485 5.94547L19.9671 5.82013L20.9098 4.87613ZM8.65381 19.0201L11.4805 21.8468C11.6044 21.9706 11.7026 22.1176 11.7697 22.2793C11.8368 22.4411 11.8714 22.6145 11.8714 22.7897C11.8715 22.9648 11.837 23.1382 11.7701 23.3C11.7031 23.4619 11.6049 23.6089 11.4811 23.7328C11.3574 23.8567 11.2104 23.955 11.0486 24.022C10.8868 24.0891 10.7134 24.1237 10.5383 24.1237C10.3631 24.1238 10.1897 24.0894 10.0279 24.0224C9.86607 23.9554 9.71902 23.8573 9.59514 23.7335L6.76581 20.9041C6.51597 20.6538 6.37583 20.3144 6.37621 19.9607C6.37658 19.607 6.51744 19.268 6.76781 19.0181C7.01817 18.7683 7.35753 18.6282 7.71122 18.6285C8.06492 18.6289 8.40397 18.7698 8.65381 19.0201ZM19.0245 8.64947L11.4805 16.1908L14.3085 19.0188L21.8511 11.4761L19.0231 8.64813L19.0245 8.64947ZM22.7951 6.76413L21.8525 7.7068L22.7951 8.64947L23.7378 7.7068L22.7951 6.76413Z" fill="#F19A34"/>
</g>
<defs>
<clipPath id="clip0_501_2516">
<rect width="32" height="32" fill="white" transform="translate(0 0.5)"/>
</clipPath>
</defs>
</svg>
