<svg width="50" height="60" viewBox="0 0 50 60" fill="none" xmlns="http://www.w3.org/2000/svg">
<g id="Group">
<path id="Vector" d="M10.9996 15.5C11.2622 15.303 11.5611 15.1597 11.8791 15.0782C12.1972 14.9967 12.5281 14.9787 12.8531 15.0251C13.1781 15.0716 13.4908 15.1815 13.7733 15.3488C14.0558 15.5161 14.3026 15.7374 14.4996 16C14.6966 16.2626 14.8399 16.5615 14.9214 16.8795C15.0028 17.1976 15.0209 17.5285 14.9745 17.8536C14.928 18.1786 14.818 18.4912 14.6508 18.7737C14.4835 19.0562 14.2622 19.303 13.9996 19.5C10.0896 22.4325 7.84958 25.285 6.56708 27.775C8.32801 27.3217 10.1864 27.4283 11.884 28.0799C13.5815 28.7315 15.0339 29.8958 16.0393 31.4109C17.0446 32.926 17.553 34.7167 17.4937 36.5341C17.4344 38.3515 16.8104 40.1052 15.7084 41.5516C14.6065 42.9979 13.0813 44.0651 11.3448 44.6046C9.60839 45.1442 7.747 45.1294 6.01936 44.5623C4.29173 43.9952 2.78369 42.9039 1.70485 41.4402C0.626011 39.9765 0.0299734 38.2131 -0.000417657 36.395C-0.320762 33.3248 0.115258 30.2229 1.26958 27.36C2.76208 23.595 5.67958 19.49 10.9996 15.5ZM33.4996 15.5C33.7622 15.303 34.0611 15.1597 34.3791 15.0782C34.6972 14.9967 35.0281 14.9787 35.3531 15.0251C35.6781 15.0716 35.9908 15.1815 36.2733 15.3488C36.5558 15.5161 36.8026 15.7374 36.9996 16C37.1966 16.2626 37.3399 16.5615 37.4214 16.8795C37.5028 17.1976 37.5209 17.5285 37.4745 17.8536C37.428 18.1786 37.318 18.4912 37.1508 18.7737C36.9835 19.0562 36.7622 19.303 36.4996 19.5C32.5896 22.4325 30.3496 25.285 29.0671 27.775C30.828 27.3217 32.6864 27.4283 34.384 28.0799C36.0815 28.7315 37.5339 29.8958 38.5393 31.4109C39.5446 32.926 40.053 34.7167 39.9937 36.5341C39.9344 38.3515 39.3104 40.1052 38.2084 41.5516C37.1065 42.9979 35.5813 44.0651 33.8448 44.6046C32.1084 45.1442 30.247 45.1294 28.5194 44.5623C26.7917 43.9952 25.2837 42.9039 24.2049 41.4402C23.126 39.9765 22.53 38.2131 22.4996 36.395C22.1792 33.3248 22.6153 30.2229 23.7696 27.36C25.2646 23.595 28.1796 19.49 33.4996 15.5Z" fill="#F19A34"/>
</g>
</svg>
