<svg width="24" height="24" viewBox="0 0 24 24" fill="none" xmlns="http://www.w3.org/2000/svg">
<g clip-path="url(#clip0_339_2747)">
<path fill-rule="evenodd" clip-rule="evenodd" d="M20 5C21.0544 5 21.9182 5.81588 21.9945 6.85074L22 7V17C22 18.0544 21.1841 18.9182 20.1493 18.9945L20 19H4C2.94564 19 2.08183 18.1841 2.00549 17.1493L2 17V7C2 5.94564 2.81588 5.08183 3.85074 5.00549L4 5H20ZM17.0027 7H6.99732L7 7.125C7 8.71276 5.71293 10 4.12511 10L4 9.99731V14.0027L4.12511 14C5.71293 14 7 15.2872 7 16.875L6.99732 17H17.0027L17 16.875C17 15.3439 18.1968 14.0923 19.706 14.0049L19.9376 14.0007L20 14.0027V9.99731L19.8749 10C18.3438 10 17.0923 8.80306 17.0049 7.29392L17.0007 7.06235L17.0027 7ZM19.8749 16C19.3918 16 19 16.3917 19 16.875C19 16.9175 19.003 16.9593 19.0088 17H20V16.0088C19.9592 16.003 19.9175 16 19.8749 16ZM4.12511 16C4.08253 16 4.04077 16.003 4 16.0088V17H4.99125C4.99702 16.9593 5 16.9175 5 16.875C5 16.3917 4.60824 16 4.12511 16ZM12 8C14.2091 8 16 9.79086 16 12C16 14.2091 14.2091 16 12 16C9.79086 16 8 14.2091 8 12C8 9.79086 9.79086 8 12 8ZM12 10C10.8954 10 10 10.8954 10 12C10 13.1046 10.8954 14 12 14C13.1046 14 14 13.1046 14 12C14 10.8954 13.1046 10 12 10ZM4.99125 7H4V7.99123C4.04077 7.99701 4.08253 8 4.12511 8C4.60824 8 5 7.60831 5 7.125L4.99779 7.06182L4.99125 7ZM20 7H19.0088C19.003 7.04073 19 7.08245 19 7.125C19 7.60831 19.3918 8 19.8749 8L19.9381 7.99778L20 7.99123V7Z" fill="#F19A34"/>
</g>
<defs>
<clipPath id="clip0_339_2747">
<rect width="24" height="24" fill="white"/>
</clipPath>
</defs>
</svg>
