<svg width="120" height="121" viewBox="0 0 120 121" fill="none" xmlns="http://www.w3.org/2000/svg">
<path d="M40.9487 32.3541C35.0686 39.7952 34.182 50.9189 39.8879 58.7465C45.3891 66.2937 58.5437 70.9463 67.3033 67.1954C77.9572 62.6338 83.8677 50.5628 81.8596 39.3784C77.2449 20.3741 52.2771 18.0251 40.9563 32.3541H40.9487ZM60.7033 64.2932C49.8371 64.2099 39.456 56.5112 40.2971 45.0085C41.7671 24.913 72.8197 20.0407 77.7905 40.4999C79.6167 50.6386 72.1453 64.3842 60.7108 64.2932H60.7033Z" fill="white"/>
<path d="M88.3994 63.0508C88.945 57.4056 94.7645 54.1472 95.8557 48.2671C96.6362 44.0692 95.3859 39.462 91.976 36.719C91.582 36.4007 90.3999 35.984 90.2256 35.5672C89.9907 35.0292 90.7636 33.1576 90.8166 32.4453C90.9909 29.9144 90.5135 27.285 89.3845 25.0042C87.3234 20.8593 83.277 18.0101 78.7154 17.3206C77.7909 17.1766 76.0708 17.5252 75.3282 16.9948C74.7978 16.6159 74.4189 15.1004 73.9491 14.5245C72.5927 12.8423 70.5696 11.736 68.4706 11.2586C63.7498 10.1977 59.4609 12.5543 55.9601 15.5323C53.7096 14.3123 50.1785 13.8577 48.4887 13.9562C43.4876 14.2517 40.8431 16.8811 38.4486 20.6319C30.2952 18.6769 25.8017 28.3231 28.0447 35.7036C24.6196 39.6742 22.3085 44.6678 23.1875 50.0478C23.5739 52.4347 24.5211 54.7383 26.0518 56.6326C26.6883 57.4131 27.537 57.9663 28.1811 58.7089C29.3404 60.0501 28.9312 59.0347 28.719 61.1185C27.9537 68.552 33.0837 75.5764 39.6913 76.6145C35.5009 87.223 31.2499 97.8012 26.9232 108.357C26.2033 110.107 28.5675 111.63 30.0224 110.736C33.5914 108.554 36.7739 105.985 39.6155 102.992C40.396 105.045 41.1689 107.091 41.9494 109.145C42.5859 110.819 44.7909 111.274 45.8063 109.652C51.1712 101.052 55.9071 92.118 60.0141 82.8507C60.4612 82.8432 60.9158 82.8053 61.3629 82.7447C63.083 87.2003 64.8713 91.6255 66.7732 95.9977C67.8341 98.4528 68.9328 100.893 70.0619 103.318C70.8575 105.038 71.5774 107.425 73.3884 108.395C75.548 109.554 77.2377 108.417 78.1622 106.432C78.9957 104.636 80.3976 101.241 80.4582 99.2788C80.5188 97.4526 79.8975 98.0058 81.61 98.3619C83.027 98.6574 84.5197 99.5667 85.8458 100.112C87.2552 100.696 88.3691 99.2636 88.5131 98.0815C89.0132 93.9442 87.1491 90.0418 85.8155 86.2076C84.2697 81.7672 82.7239 77.3344 81.1781 72.894C85.0729 71.0299 87.9902 67.4305 88.407 63.0583L88.3994 63.0508ZM38.8426 97.4905C37.2438 99.4455 35.5237 101.219 33.6672 102.84C37.2513 94.02 40.8051 85.1846 44.2984 76.3265C44.8818 76.1674 45.4729 75.9553 46.0639 75.6901C48.7388 78.6907 52.1032 81.1079 55.6798 82.1991C52.3305 89.6099 48.5721 96.8085 44.4045 103.795C43.7225 101.999 43.0405 100.211 42.3661 98.415C41.866 97.0889 39.9413 96.1341 38.8426 97.4829V97.4905ZM84.156 94.6414C82.345 93.7472 80.3294 92.9667 78.8214 93.7017C76.2602 94.9444 75.6692 100.37 74.9266 102.696C74.8584 102.916 74.7826 103.136 74.7145 103.363C74.4871 102.878 74.2598 102.393 74.0325 101.908C73.0095 99.7259 72.0169 97.536 71.047 95.3309C69.0389 90.7617 67.1597 86.1318 65.3638 81.4717C66.5005 80.8882 67.6143 80.1153 68.6979 79.1075C70.3498 77.5617 71.1 75.1142 73.3278 74.5913C74.6008 74.2882 75.8587 74.1821 77.1014 74.0078C78.4653 77.9254 79.8368 81.8505 81.2008 85.7681C82.1783 88.5718 83.6256 91.6028 84.156 94.6414ZM81.3069 67.8322C78.6396 70.06 75.8738 69.9918 72.6458 70.3706C70.9409 70.5752 69.8042 70.6207 68.607 71.9922C67.1976 73.5987 66.6596 75.5536 64.7804 76.8949C58.7638 81.1686 52.2396 77.0161 48.3978 71.9771C47.7158 71.0829 46.5792 70.5676 45.5108 71.2193C41.5175 73.6744 36.4178 72.2423 34.1446 68.1277C33.1746 66.3697 32.773 64.2935 32.8336 62.3006C32.8791 60.8457 33.4853 59.3908 33.0534 57.9587C32.7579 56.966 32.3487 56.6857 31.6288 56.0113C29.8708 54.3442 28.3932 53.1697 27.6582 50.7298C26.1882 45.8574 28.6357 41.1367 31.9395 37.6662C32.6366 36.9312 32.6745 35.9915 32.2729 35.1125C30.5225 31.3162 32.235 22.246 38.3273 24.9511C39.373 25.4134 40.5778 25.2618 41.2143 24.1934C43.1845 20.8593 44.7757 18.1996 49.1707 18.1617C50.2694 18.1541 51.1105 18.3814 52.1259 18.7376C52.9367 19.0179 54.528 20.2455 54.1643 19.412C54.6038 20.4425 55.4828 20.6699 56.286 20.4198C56.6876 20.3743 57.1043 20.1925 57.4756 19.8439C59.7489 17.6843 62.5147 15.3353 65.8185 15.2216C69.1147 15.1004 69.9406 16.9038 71.6683 19.215C74.0779 22.4505 77.2302 20.7456 80.7083 22.2763C83.5726 23.5417 85.6791 26.0044 86.3838 29.096C86.99 31.7406 85.3457 34.3624 85.9671 36.8023C86.3308 38.2269 87.4977 38.6512 88.4979 39.4469C91.1955 41.6065 92.4306 44.3192 91.6653 47.82C90.5969 52.7226 85.3305 55.0262 84.3758 59.6864C83.7014 62.9826 84.2318 65.3922 81.2993 67.8322H81.3069Z" fill="white"/>
<path d="M65.0534 40.7123C64.1971 41.0836 63.3257 41.3943 62.4467 41.6899C61.7041 40.3714 60.9388 39.068 60.1356 37.7874C59.1884 36.2795 56.756 36.4917 56.2786 38.2875C55.8392 39.947 55.3921 41.6065 54.9526 43.2735C53.3234 43.4023 51.7019 43.4251 50.05 43.3569C47.6327 43.2508 47.2387 46.8577 49.4892 47.5018C50.8305 47.8882 52.0656 48.3883 53.2476 49.0552C52.3838 51.336 51.3305 54.8444 52.9142 56.1931C54.945 57.9208 57.8851 55.0262 59.7719 53.094C61.4314 53.9957 63.1212 54.7383 64.9776 55.2308C66.4022 55.6097 68.1829 54.1927 67.5691 52.6393C66.8569 50.8055 66.0764 49.0097 65.258 47.2214C66.19 46.0469 67.0917 44.8572 67.9404 43.6069C69.2589 41.6595 66.7811 39.9773 65.0534 40.7199V40.7123Z" fill="white"/>
</svg>
