<svg width="120" height="121" viewBox="0 0 120 121" fill="none" xmlns="http://www.w3.org/2000/svg">
<path d="M102.049 11.7166C101.873 10.7079 100.881 10.127 100.004 10.0705C92.5252 9.55409 84.8179 11.9263 77.5607 15.4928C77.5226 15.4767 77.4921 15.4605 77.4463 15.4444C68.0677 12.5154 58.7044 16.5902 50.4248 21.2056C42.3511 25.708 35.3534 32.0824 29.7751 39.6995C28.9357 40.8453 28.9357 43.1853 30.7137 43.4515C34.079 43.9679 37.4367 44.3068 40.8173 44.4682C36.2997 49.7049 32.1255 55.2563 28.3023 60.8238C27.6613 61.7518 27.8674 62.6635 28.4397 63.2848C28.516 63.4301 28.6076 63.5753 28.7221 63.7125C28.9968 64.0433 29.2791 64.3661 29.5462 64.705C26.2267 66.5205 22.8309 68.5539 20.5874 71.7976C17.5578 76.1709 17.9547 81.5448 17.0389 86.6282C16.81 87.9111 17.6036 89.6459 19.084 89.4684C19.9387 89.3716 20.7934 89.2748 21.6404 89.1779C20.2821 94.8019 20.2058 100.482 21.2284 106.316C21.3581 107.051 22.0449 107.72 22.7088 107.882C24.4563 108.317 26.9364 107.615 29.2104 106.526C29.2486 107.462 29.4699 108.333 29.9354 109.035C31.6524 111.601 35.8952 109.552 37.9556 108.648C46.0445 105.098 53.2864 99.9176 58.3916 92.349C59.147 92.6879 60.0856 92.3652 60.6656 91.8245C64.7406 88.0483 68.8537 84.0542 72.7837 79.8261C73.6002 83.0698 74.4168 86.3135 75.2256 89.5652C75.6225 91.1306 77.7057 91.8326 78.7741 90.5577C85.3826 82.6986 90.8922 73.9277 94.929 64.3015C98.5309 55.7081 102.056 45.9771 98.8895 36.7059C101.774 28.5241 103.453 19.9549 102.026 11.7327L102.049 11.7166ZM50.1653 26.4988C56.3846 22.6418 63.8249 18.7769 71.1965 18.9544C67.007 21.4477 63.0541 24.1911 59.4828 26.8216C54.2479 30.6704 49.3335 35.197 44.7396 40.0948C44.6938 40.0948 44.648 40.0787 44.6023 40.0787C41.4964 40.0787 38.4287 39.9093 35.361 39.5785C39.6268 34.4305 44.5488 29.9845 50.1653 26.4988ZM42.9845 101.031C41.1072 102.145 39.1461 103.186 37.1849 104.13C37.0399 104.202 34.2774 105.566 33.3159 105.663C33.873 105.404 34.2317 103.234 34.514 102.774C35.8723 100.579 32.8886 98.3522 31.1793 100.055C29.7217 101.499 27.8368 102.024 25.9901 102.677C25.7765 102.75 25.3949 102.863 25.0057 102.976C24.3724 97.6099 24.9218 92.3813 26.6312 87.201C27.0509 85.9262 25.9138 84.2075 24.586 84.3608C23.5635 84.4819 22.5409 84.5948 21.5107 84.7159C21.8083 81.3915 21.9457 77.8895 23.5711 75.1058C25.5018 71.7975 29.1036 69.9982 32.2552 68.2876C32.3239 68.2472 32.3697 68.2069 32.4307 68.1665C32.7894 68.5781 33.1481 68.9734 33.5067 69.3769C33.4075 69.4576 33.3159 69.5463 33.2244 69.6593C28.9662 75.2026 29.9812 84.3204 31.6066 90.7756C31.9271 92.0343 33.0946 92.5426 34.2164 92.3409C34.7353 92.2522 35.239 92.1312 35.7502 92.0263C35.59 93.051 35.5137 94.0919 35.506 95.2215C35.506 96.6658 36.872 97.7874 38.1922 97.384C43.7934 95.6814 48.5322 92.4862 52.2562 87.7336C52.2867 87.6933 52.3096 87.6529 52.3325 87.6126C53.2024 88.3307 54.0724 89.0408 54.95 89.7428C51.8289 94.4873 47.7157 98.2232 42.9616 101.039L42.9845 101.031ZM59.0555 87.3624C49.4251 79.9068 40.6723 71.3699 32.8199 61.8728C40.8325 50.3665 50.5545 38.8603 61.6348 30.7027C71.8146 23.2067 85.2452 14.4761 98.1722 14.5084C98.9201 21.4073 96.9131 28.5563 94.723 34.963C92.3573 41.8861 89.3431 48.6883 85.8709 55.0627C79.2014 67.3113 69.0598 77.9864 59.0555 87.3624ZM90.0909 64.7695C86.9164 71.7653 82.9483 78.2688 78.3086 84.2559C77.6218 81.5044 76.9274 78.761 76.2406 76.0095C81.7654 69.6673 86.7561 62.833 90.5259 55.4419C92.3039 51.9481 94.1659 48.2122 95.8829 44.3149C95.9668 51.3671 92.922 58.5323 90.0909 64.7695Z" fill="white"/>
<path d="M78.8509 33.0181C75.7451 31.4124 71.7616 31.8804 69.3273 34.5834C66.2291 38.0288 66.5344 43.8949 70.1286 46.8158C74.2417 50.1564 80.1405 47.776 82.3764 43.2655C82.5367 43.0396 82.6664 42.7653 82.7427 42.4264C82.8419 42.152 82.8801 41.9019 82.8877 41.6679C83.4372 38.1014 82.0636 34.6803 78.8509 33.0181ZM71.7769 42.0068C70.9299 40.1267 71.6472 37.7383 73.4786 36.883C76.3555 35.5436 79.3851 38.0288 78.6448 41.2322C77.5765 44.0886 73.1276 45.0004 71.7769 41.9987V42.0068Z" fill="white"/>
<path d="M56.5602 52.0132C52.2258 52.9008 49.4099 57.3387 50.6843 61.8734C50.7377 62.059 50.8064 62.2284 50.8903 62.3817C50.8903 62.3898 50.8903 62.3979 50.898 62.414C52.592 66.6341 57.6056 68.5625 61.4441 66.3758C64.382 64.7056 66.0837 60.8648 65.2367 57.4113C64.2599 53.4333 60.2612 51.2547 56.5526 52.0132H56.5602ZM59.6431 62.293C57.7583 63.5437 55.7055 62.414 54.7593 60.542C53.6833 56.1848 60.6581 54.6356 61.1999 58.8637C61.3677 60.1709 60.6886 61.591 59.6431 62.2849V62.293Z" fill="white"/>
</svg>
