<svg width="120" height="121" viewBox="0 0 120 121" fill="none" xmlns="http://www.w3.org/2000/svg">
<path d="M109.941 35.0794C110.145 34.207 109.823 33.0202 108.935 32.6115C100.305 28.5558 89.1593 27.8877 79.751 26.6065C69.7061 25.2389 59.6219 24.1307 49.522 23.1482C37.0955 21.9299 24.6533 20.8609 12.2033 20.0042C10.592 19.8942 9.40522 21.9613 10.317 23.2975C21.03 39.0723 32.7333 53.9274 44.8689 68.6332C49.3805 74.0958 53.9314 79.5349 58.5216 84.9346C60.8717 87.7013 63.2689 90.4287 65.5954 93.2111C67.2775 95.2232 68.7158 98.1235 70.9558 99.5147C75.3495 102.242 77.8725 96.1507 79.8532 93.1403C83.2801 87.9292 86.5341 82.6159 89.6624 77.2162C93.9067 80.3602 98.0645 83.6142 102.12 86.9939C103.873 88.4558 106.105 87.0489 105.775 84.8639C104.321 75.1884 102.867 65.505 101.421 55.8295C101.515 55.7116 101.609 55.578 101.688 55.4287C105.115 48.9128 108.227 42.2712 109.933 35.0794H109.941ZM76.4656 30.5364C81.0479 31.1338 85.6302 31.794 90.189 32.5643C95.0935 33.3974 100.54 33.9398 105.225 35.7633C103.653 41.4695 101.216 46.8221 98.4968 52.0803C84.6949 48.9207 71.4903 43.8511 58.3329 38.6714C46.999 34.207 35.6651 29.7426 24.3311 25.2782C32.0024 25.8913 39.6657 26.5672 47.3212 27.2982C57.0518 28.2335 66.7744 29.2631 76.4656 30.5364ZM89.4344 71.6436C76.9293 62.9034 64.1178 54.627 51.2747 46.3977C43.855 41.6425 36.4353 36.9265 29.2357 31.8883C38.5496 35.5589 47.8557 39.2295 57.1696 42.8922C70.2406 48.0404 83.3745 53.0786 97.0821 56.2382C98.2846 64.2238 99.4793 72.2173 100.682 80.203C97.0034 77.2555 93.2543 74.4024 89.4265 71.6357L89.4344 71.6436ZM73.0466 95.5376C71.899 94.6573 70.8851 92.8102 70.107 91.8434C68.6136 89.9806 67.0338 88.1807 65.4854 86.373C61.9799 82.278 58.4901 78.1673 55.0239 74.033C48.2959 66.0081 41.6543 57.9045 35.1148 49.7302C30.4304 43.8746 25.9502 37.9169 21.6037 31.8569C42.173 47.333 64.9588 59.9874 86.0939 74.6539C84.129 78.0651 82.1169 81.4448 80.0261 84.7853C78.0219 87.9921 75.8761 92.6766 73.0466 95.5533V95.5376Z" fill="white"/>
</svg>
