<svg width="24" height="24" viewBox="0 0 24 24" fill="none" xmlns="http://www.w3.org/2000/svg">
<g clip-path="url(#clip0_339_2761)">
<path fill-rule="evenodd" clip-rule="evenodd" d="M10 4C8.34315 4 7 5.34315 7 7H4C2.89543 7 2 7.89543 2 9V19C2 20.1046 2.89543 21 4 21H20C21.1046 21 22 20.1046 22 19V9C22 7.89543 21.1046 7 20 7H17C17 5.34315 15.6569 4 14 4H10ZM10 6C9.44772 6 9 6.44772 9 7H15C15 6.44772 14.5523 6 14 6H10ZM20 9V13H4V9H20ZM4 15V19H20V15H4Z" fill="#F19A34"/>
</g>
<defs>
<clipPath id="clip0_339_2761">
<rect width="24" height="24" fill="white"/>
</clipPath>
</defs>
</svg>
