<svg xmlns="http://www.w3.org/2000/svg" width="49" height="139" viewBox="0 0 49 139" fill="none">
  <path fill-rule="evenodd" clip-rule="evenodd" d="M0.541444 101.98L-1.57136e-06 103.051L0.541444 104.123L17.4914 137.675C18.0894 138.859 19.5439 139.338 20.7401 138.746C21.9362 138.155 22.421 136.715 21.8229 135.531L5.41446 103.051L21.8229 70.5718L22.3644 69.5L21.8229 68.4282L5.41445 35.9485L21.8229 3.46881C22.421 2.28499 21.9362 0.845458 20.7401 0.253524C19.5439 -0.338395 18.0894 0.141448 17.4914 1.3253L0.541441 34.8768L-4.50452e-06 35.9485L0.541441 37.0203L16.9499 69.5L0.541444 101.98ZM27.1771 101.98L26.6356 103.051L27.1771 104.123L44.127 137.675C44.7251 138.859 46.1795 139.338 47.3757 138.746C48.5718 138.155 49.0566 136.715 48.4586 135.531L32.0501 103.051L48.4586 70.5718L49 69.5L48.4586 68.4282L32.0501 35.9485L48.4586 3.46881C49.0566 2.28499 48.5718 0.845457 47.3757 0.253523C46.1795 -0.338396 44.7251 0.141447 44.127 1.3253L27.1771 34.8768L26.6356 35.9485L27.1771 37.0203L43.5855 69.5L27.1771 101.98Z" fill="white"/>
</svg>