<svg height="512" viewBox="0 0 64 64" width="512" xmlns="http://www.w3.org/2000/svg" xmlns:xlink="http://www.w3.org/1999/xlink"><linearGradient id="New_Gradient_Swatch_1" gradientUnits="userSpaceOnUse" x1="32" x2="32" y2="68.029"><stop offset="0" stop-color="#fff33b"/><stop offset=".014" stop-color="#fee72e"/><stop offset=".042" stop-color="#fed51b"/><stop offset=".07" stop-color="#fdca10"/><stop offset=".1" stop-color="#fdc70c"/><stop offset=".4" stop-color="#f3903f"/><stop offset=".8" stop-color="#ed683c"/><stop offset="1" stop-color="#e93e3a"/></linearGradient><linearGradient id="New_Gradient_Swatch_1-2" x1="27" x2="27" xlink:href="#New_Gradient_Swatch_1" y1="0" y2="68.029"/><linearGradient id="New_Gradient_Swatch_1-3" x1="37" x2="37" xlink:href="#New_Gradient_Swatch_1" y1="0" y2="68.029"/><linearGradient id="New_Gradient_Swatch_1-5" x1="23" x2="23" xlink:href="#New_Gradient_Swatch_1" y1="0" y2="68.029"/><linearGradient id="New_Gradient_Swatch_1-6" x1="41" x2="41" xlink:href="#New_Gradient_Swatch_1" y1="0" y2="68.029"/><g id="Setting"><path d="m24 26h16a5.006 5.006 0 0 0 5-5v-2a5.006 5.006 0 0 0 -5-5h-16a5.006 5.006 0 0 0 -5 5v2a5.006 5.006 0 0 0 5 5zm-3-7a3 3 0 0 1 3-3h16a3 3 0 0 1 3 3v2a3 3 0 0 1 -3 3h-16a3 3 0 0 1 -3-3z" fill="url(#New_Gradient_Swatch_1)"/><path d="m27 23a3 3 0 1 0 -3-3 3 3 0 0 0 3 3zm0-4a1 1 0 1 1 -1 1 1 1 0 0 1 1-1z" fill="url(#New_Gradient_Swatch_1-2)"/><path d="m37 23a3 3 0 1 0 -3-3 3 3 0 0 0 3 3zm0-4a1 1 0 1 1 -1 1 1 1 0 0 1 1-1z" fill="url(#New_Gradient_Swatch_1-3)"/><path d="m28 28h8v2h-8z" fill="url(#New_Gradient_Swatch_1)"/><path d="m22 28h2v2h-2z" fill="url(#New_Gradient_Swatch_1-5)"/><path d="m40 28h2v2h-2z" fill="url(#New_Gradient_Swatch_1-6)"/><path d="m54.142 25a4 4 0 1 0 0-2h-5.142v-2h3a1 1 0 0 0 1-1v-5h1.142a4 4 0 1 0 0-2h-2.142a1 1 0 0 0 -1 1v5h-2v-6a3 3 0 0 0 -3-3h-5v-1a3 3 0 0 0 -3-3h-2v-1a3 3 0 0 0 -3-3h-2a3 3 0 0 0 -3 3v1h-2a3 3 0 0 0 -3 3v1h-5a3 3 0 0 0 -3 3v6h-2v-5a1 1 0 0 0 -1-1h-2.142a4 4 0 1 0 0 2h1.142v5a1 1 0 0 0 1 1h3v2h-5.142a4 4 0 1 0 0 2h5.142v5h-12a1 1 0 0 0 -1 1v6a1 1 0 0 0 .836.986l6.215 1.036a23.854 23.854 0 0 0 1.757 4.239l-3.663 5.129a1 1 0 0 0 .106 1.288l7.071 7.071a1 1 0 0 0 1.288.106l5.129-3.663a23.854 23.854 0 0 0 4.239 1.757l1.036 6.215a1 1 0 0 0 .986.836h10a1 1 0 0 0 .986-.836l1.036-6.215a23.854 23.854 0 0 0 4.239-1.757l5.129 3.663a1 1 0 0 0 1.288-.106l7.071-7.071a1 1 0 0 0 .106-1.288l-3.663-5.129a23.854 23.854 0 0 0 1.757-4.239l6.215-1.036a1 1 0 0 0 .836-.986v-6a1 1 0 0 0 -1-1h-12v-5zm3.858-3a2 2 0 1 1 -2 2 2 2 0 0 1 2-2zm0-10a2 2 0 1 1 -2 2 2 2 0 0 1 2-2zm-52 4a2 2 0 1 1 2-2 2 2 0 0 1 -2 2zm0 10a2 2 0 1 1 2-2 2 2 0 0 1 -2 2zm12 8h28a3 3 0 0 0 2.816-2h2.133a18.974 18.974 0 0 1 -37.9 0h2.133a3 3 0 0 0 2.818 2zm12-29a1 1 0 0 1 1-1h2a1 1 0 0 1 1 1v1h-4zm-5 4a1 1 0 0 1 1-1h12a1 1 0 0 1 1 1v1h-14zm-8 4a1 1 0 0 1 1-1h28a1 1 0 0 1 1 1v18a1 1 0 0 1 -1 1h-28a1 1 0 0 1 -1-1zm35.977 19h7.023v4.153l-6 1a1 1 0 0 0 -.8.72 21.922 21.922 0 0 1 -2.057 4.963 1 1 0 0 0 .055 1.075l3.537 4.951-5.874 5.874-4.95-3.536a1 1 0 0 0 -1.075-.055 21.922 21.922 0 0 1 -4.963 2.055 1 1 0 0 0 -.72.8l-1 6h-8.306l-1-6a1 1 0 0 0 -.72-.8 21.922 21.922 0 0 1 -4.963-2.057 1 1 0 0 0 -1.075.055l-4.951 3.537-5.874-5.873 3.536-4.951a1 1 0 0 0 .055-1.075 21.922 21.922 0 0 1 -2.055-4.963 1 1 0 0 0 -.8-.72l-6-1v-4.153h7.023a21 21 0 0 0 41.954 0z" fill="url(#New_Gradient_Swatch_1)"/></g></svg>