<svg height="480pt" viewBox="0 0 480 480.00453" width="480pt" xmlns="http://www.w3.org/2000/svg" xmlns:xlink="http://www.w3.org/1999/xlink"><linearGradient id="a"><stop offset="0" stop-color="#fff33b"/><stop offset=".014" stop-color="#fee72e"/><stop offset=".042" stop-color="#fed51b"/><stop offset=".07" stop-color="#fdca10"/><stop offset=".1" stop-color="#fdc70c"/><stop offset=".4" stop-color="#f3903f"/><stop offset=".8" stop-color="#ed683c"/><stop offset="1" stop-color="#e93e3a"/></linearGradient><linearGradient id="b" gradientUnits="userSpaceOnUse" x1="183.304809" x2="183.304809" xlink:href="#a" y1="-23.999981" y2="520.944019"/><linearGradient id="c" gradientUnits="userSpaceOnUse" x1="447.304809" x2="447.304809" xlink:href="#a" y1="-23.999981" y2="520.944019"/><linearGradient id="d" gradientUnits="userSpaceOnUse" x1="391.304809" x2="391.304809" xlink:href="#a" y1="-23.999981" y2="520.944019"/><linearGradient id="e" gradientUnits="userSpaceOnUse" x1="343.304809" x2="343.304809" xlink:href="#a" y1="-23.999981" y2="520.944019"/><path d="m190.648438 457.6875-7.34375 4.800781-114.519532-74.488281c-23.632812-15.421875-38.492187-41.1875-40-69.367188l-12.800781-254.351562c-.097656-2.15625.699219-4.253906 2.199219-5.800781 1.519531-1.601563 3.632812-2.5 5.839844-2.480469h58.5625c25.488281.023438 50.46875-7.136719 72.078124-20.65625l28.640626-17.902344 28.632812 17.902344c21.613281 13.519531 46.59375 20.675781 72.085938 20.65625h58.5625c2.195312-.011719 4.296874.890625 5.808593 2.488281 1.488281 1.535157 2.289063 3.613281 2.207031 5.75l-5.191406 103.328125c-.117187 2.125.613282 4.210938 2.039063 5.792969 1.421875 1.582031 3.417969 2.535156 5.542969 2.640625 2.128906.136719 4.21875-.59375 5.800781-2.023438 1.578125-1.429687 2.515625-3.4375 2.59375-5.570312l5.191406-103.375c.28125-6.539062-2.121094-12.910156-6.652344-17.636719-4.53125-4.726562-10.792969-7.398437-17.339843-7.394531h-58.5625c-22.488282.023438-44.53125-6.292969-63.597657-18.214844l-32.882812-20.570312c-2.59375-1.621094-5.882813-1.621094-8.476563 0l-32.890625 20.570312c-19.0625 11.925782-41.101562 18.238282-63.589843 18.214844h-58.5625c-6.546876-.007812-12.816407 2.664062-17.347657 7.394531-4.53125 4.726563-6.933593 11.101563-6.6523435 17.644531l12.8007815 254.402344c1.78125 33.304688 19.34375 63.765625 47.28125 81.992188l118.878906 77.277344c2.652344 1.722656 6.070313 1.722656 8.71875 0l11.707031-7.605469c2.480469-1.519531 3.941406-4.269531 3.8125-7.175781s-1.824218-5.515626-4.429687-6.808594c-2.605469-1.296875-5.707031-1.078125-8.105469.574218zm0 0" fill="url(#b)"/><path d="m304.90625 176.3125c2.121094.125 4.207031-.605469 5.785156-2.03125s2.515625-3.429688 2.605469-5.554688l3.640625-72.320312c.109375-2.191406-.683594-4.332031-2.195312-5.921875-1.511719-1.589844-3.609376-2.488281-5.804688-2.484375h-24.914062c-31.480469-.011719-62.332032-8.847656-89.046876-25.503906l-7.441406-4.648438c-2.589844-1.613281-5.871094-1.613281-8.460937 0l-7.441407 4.648438c-26.714843 16.65625-57.566406 25.492187-89.046874 25.503906h-24.960938c-2.195312-.003906-4.292969.894531-5.804688 2.484375-1.515624 1.589844-2.308593 3.730469-2.195312 5.921875l11.121094 220.648438c.96875 17.929687 10.429687 34.316406 25.460937 44.128906l92.722657 60.25c2.648437 1.722656 6.066406 1.722656 8.71875 0l10.34375-6.722656c3.707031-2.40625 4.761718-7.363282 2.351562-11.070313-2.40625-3.707031-7.363281-4.761719-11.070312-2.351563l-5.96875 3.886719-88.351563-57.398437c-10.746094-7.015625-17.511719-18.730469-18.214844-31.546875l-10.699219-212.230469h16.546876c34.476562-.003906 68.265624-9.679688 97.519531-27.929688l3.199219-2 3.199218 2c29.253906 18.25 63.042969 27.925782 97.519532 27.929688h16.546874l-3.203124 63.910156c-.226563 4.398438 3.140624 8.152344 7.539062 8.402344zm0 0" fill="url(#b)"/><path d="m423.304688 48h48c4.417968 0 8-3.582031 8-8s-3.582032-8-8-8h-48c-4.417969 0-8 3.582031-8 8s3.582031 8 8 8zm0 0" fill="url(#c)"/><path d="m383.304688 48h16c4.417968 0 8-3.582031 8-8s-3.582032-8-8-8h-16c-4.417969 0-8 3.582031-8 8s3.582031 8 8 8zm0 0" fill="url(#d)"/><path d="m471.304688 64h-48c-4.417969 0-8 3.582031-8 8s3.582031 8 8 8h48c4.417968 0 8-3.582031 8-8s-3.582032-8-8-8zm0 0" fill="url(#c)"/><path d="m383.304688 80h16c4.417968 0 8-3.582031 8-8s-3.582032-8-8-8h-16c-4.417969 0-8 3.582031-8 8s3.582031 8 8 8zm0 0" fill="url(#d)"/><path d="m471.304688 96h-48c-4.417969 0-8 3.582031-8 8s3.582031 8 8 8h48c4.417968 0 8-3.582031 8-8s-3.582032-8-8-8zm0 0" fill="url(#c)"/><path d="m383.304688 112h16c4.417968 0 8-3.582031 8-8s-3.582032-8-8-8h-16c-4.417969 0-8 3.582031-8 8s3.582031 8 8 8zm0 0" fill="url(#d)"/><g fill="url(#e)"><path d="m471.304688 304h-31.433594l22.226562-22.222656c3.121094-3.125 3.121094-8.1875 0-11.3125l-45.257812-45.265625c-3.171875-3-8.136719-3-11.3125 0l-22.222656 22.234375v-31.433594c0-4.417969-3.582032-8-8-8h-64c-4.417969 0-8 3.582031-8 8v31.433594l-22.222657-22.234375c-3.175781-3-8.140625-3-11.3125 0l-45.257812 45.265625c-3.121094 3.125-3.121094 8.1875 0 11.3125l22.226562 22.222656h-31.433593c-4.417969 0-8 3.582031-8 8v64c0 4.417969 3.582031 8 8 8h31.433593l-22.226562 22.222656c-3.121094 3.125-3.121094 8.1875 0 11.3125l45.257812 45.265625c3.171875 3 8.136719 3 11.3125 0l22.222657-22.234375v31.433594c0 4.417969 3.582031 8 8 8h64c4.417968 0 8-3.582031 8-8v-31.433594l22.222656 22.234375c3.175781 3 8.140625 3 11.3125 0l45.257812-45.265625c3.121094-3.125 3.121094-8.1875 0-11.3125l-22.226562-22.222656h31.433594c4.417968 0 8-3.582031 8-8v-64c0-4.417969-3.582032-8-8-8zm-8 64h-42.742188c-3.238281 0-6.152344 1.949219-7.390625 4.9375s-.554687 6.429688 1.734375 8.71875l30.222656 30.222656-33.945312 33.953125-30.222656-30.230469c-2.289063-2.289062-5.726563-2.972656-8.71875-1.734374-2.988282 1.238281-4.9375 4.152343-4.9375 7.390624v42.742188h-48v-42.742188c0-3.238281-1.949219-6.152343-4.9375-7.390624-2.988282-1.238282-6.429688-.554688-8.71875 1.734374l-30.222657 30.230469-33.945312-33.953125 30.222656-30.222656c2.289063-2.289062 2.972656-5.730469 1.734375-8.71875s-4.152344-4.9375-7.390625-4.9375h-42.742187v-48h42.742187c3.238281 0 6.152344-1.949219 7.390625-4.9375s.554688-6.429688-1.734375-8.71875l-30.222656-30.222656 33.945312-33.953125 30.222657 30.230469c2.289062 2.289062 5.730468 2.972656 8.71875 1.734374 2.988281-1.238281 4.9375-4.152343 4.9375-7.390624v-42.742188h48v42.742188c0 3.238281 1.949218 6.152343 4.9375 7.390624 2.992187 1.238282 6.429687.554688 8.71875-1.734374l30.222656-30.230469 33.945312 33.953125-30.222656 30.222656c-2.289062 2.289062-2.972656 5.730469-1.734375 8.71875s4.152344 4.9375 7.390625 4.9375h42.742188zm0 0"/><path d="m343.304688 288c-30.929688 0-56 25.070312-56 56s25.070312 56 56 56c30.929687 0 56-25.070312 56-56-.035157-30.914062-25.085938-55.964844-56-56zm0 96c-22.089844 0-40-17.910156-40-40s17.910156-40 40-40c22.089843 0 40 17.910156 40 40-.027344 22.082031-17.917969 39.972656-40 40zm0 0"/></g></svg>