<svg width="96" height="60" viewBox="0 0 96 60" fill="none" xmlns="http://www.w3.org/2000/svg">
<g id="Logo" clip-path="url(#clip0_53_2072)">
<path id="Vector" d="M89.6269 7.37528C89.6269 7.44524 89.6269 7.53269 89.609 7.58516C89.5196 8.26726 89.5196 8.94937 89.5732 9.64897C89.609 9.82387 89.6448 9.99877 89.7879 10.1387C90.0204 10.401 90.3781 10.3486 90.5213 10.0337C90.5929 9.87634 90.5929 9.71892 90.557 9.56152C90.3781 8.89689 90.3424 8.19731 90.3245 7.51519C90.3245 7.48021 90.3245 7.42774 90.3245 7.37528C90.5213 7.35779 90.7002 7.34029 90.8611 7.34029C90.9865 7.32281 91.0938 7.30531 91.1832 7.25284C91.4515 7.11293 91.4515 6.8156 91.1652 6.67568C91.0579 6.62321 90.9149 6.60571 90.7897 6.60571C90.3424 6.62321 89.8953 6.62321 89.448 6.62321C89.2871 6.62321 89.126 6.6407 88.965 6.65819C88.8755 6.67568 88.7682 6.67568 88.6968 6.72815C88.5715 6.78061 88.5 6.86806 88.5 6.99049C88.5179 7.11293 88.5715 7.18289 88.6968 7.23536C88.7682 7.28783 88.8577 7.30531 88.9471 7.30531C89.1618 7.32281 89.3944 7.35779 89.6269 7.37528ZM94.5461 8.17981C94.5461 8.19731 94.564 8.21479 94.564 8.21479C94.6355 8.68702 94.7071 9.14176 94.7607 9.59649C94.7787 9.7539 94.7966 9.89382 94.9039 10.0162C95.1364 10.3136 95.4942 10.2786 95.6551 9.96379C95.7267 9.80637 95.7446 9.64897 95.7089 9.47407C95.6015 8.94937 95.5478 8.42467 95.4405 7.91746C95.3689 7.60264 95.2796 7.30531 95.1901 7.02548C95.1364 6.85058 95.0112 6.72814 94.7966 6.71066C94.582 6.67568 94.4209 6.78061 94.3315 6.93803C94.2241 7.07794 94.1347 7.21786 94.0631 7.37528C93.9379 7.65511 93.8306 7.93496 93.6875 8.19731C93.6695 8.26726 93.6517 8.31974 93.616 8.37219C93.5981 8.33722 93.5802 8.31974 93.5802 8.31974C93.3476 7.88249 93.133 7.44524 92.9005 7.02548C92.8646 6.99049 92.8467 6.95551 92.8289 6.92054C92.7215 6.76313 92.5964 6.67568 92.3996 6.67568C92.2207 6.69316 92.0775 6.79811 91.9882 6.95551C91.9523 7.02548 91.9523 7.07794 91.9345 7.14791C91.8629 7.70759 91.7734 8.26726 91.702 8.82694C91.6661 9.14176 91.6482 9.45657 91.6482 9.77139C91.6304 9.84135 91.6482 9.9288 91.684 9.99877C91.7198 10.1387 91.8271 10.2261 91.9702 10.2436C92.1491 10.2611 92.2743 10.2086 92.328 10.0687C92.3816 9.96379 92.3996 9.87634 92.4174 9.78889C92.489 9.47407 92.5426 9.17674 92.5964 8.87941C92.6321 8.70451 92.6499 8.56459 92.7037 8.37219C92.7394 8.44216 92.7751 8.49464 92.811 8.54709C92.9719 8.75699 93.133 8.96686 93.3297 9.14176C93.5265 9.28167 93.6875 9.26419 93.8484 9.10677C93.8843 9.07179 93.9022 9.05431 93.9379 9.01932C94.099 8.77447 94.2957 8.52961 94.4566 8.28474C94.4925 8.24977 94.5104 8.21479 94.5461 8.17981Z" fill="#3A3B7B"/>
<path id="Vector_2" d="M53.3293 7.71881C53.205 8.0512 53.1812 8.29067 53.2386 8.4897C53.302 8.76036 53.4666 8.84897 53.69 8.78013C55.7911 8.27213 60.3984 9.71404 62.1042 10.1159C62.5065 10.2003 62.8337 9.69255 62.5592 9.23731C62.1586 8.79645 57.5533 6.90895 55.7961 6.80603C55.1074 6.76797 53.876 6.59528 53.3293 7.71881Z" fill="#3A3B7B"/>
<path id="Vector_3" d="M71.3365 1.60886C71.5604 1.73523 71.6855 1.85578 71.7473 1.99046C71.8394 2.16714 71.7908 2.28937 71.6362 2.35175C70.2473 3.0145 68.3992 5.86779 67.6531 6.85185C67.4723 7.07823 67.0552 6.94668 66.9922 6.57441C67.0051 6.15348 68.6434 3.05703 69.5577 2.21366C69.917 1.88439 70.5106 1.23831 71.3365 1.60886Z" fill="#3A3B7B"/>
<path id="Vector_4" d="M60.2751 0.204267C60.5442 0.00602575 60.8237 -0.063444 60.9665 0.065388C63.062 1.81759 64.1732 4.59236 64.8613 7.1326C64.8872 7.19178 64.8889 7.2767 64.8681 7.3653C64.8595 7.44102 64.803 7.52101 64.7131 7.58291C64.6171 7.65124 64.5345 7.67205 64.4956 7.61317C63.5772 6.3918 58.3317 1.63966 60.2751 0.204267Z" fill="#3A3B7B"/>
<path id="Vector_5" d="M15.9011 30.583C16.4033 30.2175 16.9493 29.9131 17.5271 29.6769C18.1316 29.508 18.7759 29.5359 19.3627 29.7568C19.9493 29.9777 20.4466 30.3793 20.7791 30.901C21.0765 31.4214 21.1928 32.0222 21.1107 32.613C21.0286 33.2035 20.7525 33.7521 20.3238 34.1761C19.9915 34.5197 19.6141 34.819 19.2019 35.0664C17.3646 36.227 15.5108 37.3239 13.6572 38.4845C13.2779 38.775 12.8755 39.0355 12.4539 39.2635C11.8127 39.5762 11.0798 39.66 10.382 39.5003C9.68428 39.3407 9.06554 38.9476 8.63281 38.3892C8.30931 37.9937 8.0363 37.5613 7.81979 37.1014C6.0637 33.4925 4.24258 29.8995 2.55152 26.2269C1.77103 24.6372 1.13689 22.8088 0.519004 21.0441C0.251678 20.5314 0.199476 19.937 0.373511 19.3872C0.547547 18.8374 0.93409 18.3756 1.45092 18.1002C1.96775 17.8247 2.57407 17.7574 3.14097 17.9123C3.70786 18.0672 4.19058 18.4322 4.48646 18.9297C5.39594 20.1114 6.20102 21.3666 6.89297 22.6817C8.64906 25.8613 10.3239 29.0409 12.0149 32.1252C12.1134 32.2956 12.222 32.4601 12.3401 32.618C13.6129 32.0948 14.8101 31.4106 15.9011 30.583Z" fill="#3A3B7B"/>
<path id="Vector_6" d="M34.0578 29.474C30.0416 34.0685 23.3099 32.9079 19.9278 26.9938C17.5212 22.7966 17.0985 15.865 22.3343 11.493C23.4524 10.5777 24.7893 9.95418 26.2204 9.68061C27.9751 9.43465 29.7645 9.73732 31.3327 10.5454C32.9009 11.3534 34.1677 12.6255 34.9522 14.1798C37.8139 19.2673 37.4074 25.7537 34.0578 29.474ZM32.4318 18.7585C32.0051 17.5083 31.1491 16.441 30.009 15.7378C29.3639 15.2882 28.5799 15.0696 27.7893 15.1188C26.9985 15.1681 26.2493 15.4821 25.6676 16.0081C23.3424 18.0272 22.8545 22.8126 24.5456 25.6584C24.7612 26.1224 25.0777 26.5348 25.4733 26.8667C25.8689 27.1986 26.3339 27.442 26.8357 27.5797C27.3375 27.7176 27.864 27.7465 28.3785 27.6646C28.893 27.5825 29.3828 27.3916 29.814 27.1051C31.0744 26.1496 31.9991 24.8339 32.4594 23.341C32.9199 21.848 32.8932 20.2518 32.3831 18.7745L32.4318 18.7585Z" fill="#3A3B7B"/>
<path id="Vector_7" d="M50.4478 20.7617C50.0367 20.8481 49.6119 20.8533 49.1986 20.7768C48.7854 20.7003 48.3919 20.5439 48.0414 20.3166C47.7347 20.145 47.4707 19.9093 47.2684 19.626C47.0661 19.3428 46.9306 19.0193 46.8716 18.6787C46.8124 18.3382 46.8313 17.9891 46.9266 17.6565C47.0221 17.3239 47.1919 17.0162 47.4236 16.7553C47.8272 16.2311 48.4002 15.8558 49.0496 15.6902C50.745 15.2091 52.4903 14.9158 54.2528 14.8158C54.6401 14.7718 55.0324 14.8038 55.4067 14.91C55.7811 15.0164 56.13 15.1946 56.433 15.4346C56.7358 15.6745 56.9867 15.9712 57.1708 16.3072C57.3548 16.6432 57.4684 17.0118 57.5048 17.3913C58.0129 19.2554 58.0685 21.2099 57.6673 23.0988C56.204 29.2037 51.1633 31.3022 45.5048 29.3467C43.9164 28.8239 42.5237 27.8497 41.5048 26.5487C40.1458 24.9818 39.1823 23.125 38.6918 21.1274C38.2944 19.3485 38.3379 17.5027 38.8189 15.7438C39.2997 13.9848 40.2039 12.3638 41.456 11.0161C42.6443 9.55132 44.1866 8.39854 45.9439 7.66157C47.0543 7.06313 48.3537 6.89298 49.5861 7.18462C49.8657 7.26028 50.1195 7.40768 50.3211 7.61156C50.5228 7.81545 50.6651 8.06837 50.7331 8.34411C50.8011 8.61983 50.7924 8.90834 50.708 9.1797C50.6235 9.45105 50.4664 9.69537 50.2528 9.88732C49.8467 10.2467 49.4056 10.5662 48.9357 10.8412C47.4901 11.7413 46.2321 12.9011 45.2284 14.2593C44.5704 15.1382 44.1173 16.1474 43.901 17.2158C43.6846 18.2842 43.7104 19.386 43.9764 20.4438C44.3451 21.886 45.1635 23.1805 46.3178 24.148C49.895 27.3277 54.5454 24.2593 53.7324 19.9191C52.5455 20.2053 51.5048 20.5073 50.4478 20.7617Z" fill="#3A3B7B"/>
<path id="Vector_8" d="M72.302 29.7282C67.0175 32.9079 61.0013 29.7282 59.6842 23.051C58.7248 18.2816 60.546 11.6043 66.92 9.06058C68.2762 8.53101 69.7471 8.34508 71.1964 8.52004C72.9376 8.8317 74.535 9.66983 75.7631 10.9163C76.9912 12.1627 77.7883 13.7546 78.0418 15.4676C79.115 21.1432 76.676 27.2004 72.302 29.7282ZM74.1395 19.0287C74.1379 17.708 73.6601 16.43 72.7899 15.4199C72.3248 14.795 71.6524 14.3474 70.8874 14.153C70.1222 13.9589 69.3121 14.03 68.5947 14.3547C65.733 15.5629 63.7167 19.9508 64.4484 23.1783C64.5043 23.6847 64.6726 24.1732 64.9417 24.6094C65.2107 25.0456 65.574 25.4191 66.0061 25.7039C66.4381 25.9885 66.9286 26.1775 67.4431 26.2575C67.9577 26.3374 68.484 26.3066 68.985 26.1671C70.4977 25.6504 71.8074 24.6848 72.7314 23.405C73.6556 22.1253 74.1478 20.5953 74.1395 19.0287Z" fill="#3A3B7B"/>
<path id="Vector_9" d="M83.3857 31.0638C83.306 31.6457 82.9931 32.1727 82.5159 32.529C82.0386 32.8852 81.4362 33.0416 80.8411 32.9636C80.246 32.8856 79.7069 32.5796 79.3426 32.113C78.9781 31.6465 78.8182 31.0574 78.898 30.4755C78.9778 29.8937 79.2907 29.3666 79.7679 29.0103C80.2451 28.654 80.8476 28.4977 81.4427 28.5757C82.0378 28.6537 82.5768 28.9596 82.9413 29.4262C83.3057 29.8929 83.4657 30.4819 83.3857 31.0638ZM81.9711 9.61704C82.2804 9.15524 82.7341 8.80357 83.2645 8.61448C83.7948 8.42538 84.3736 8.40899 84.9142 8.56776C85.4639 8.70223 85.9495 9.01724 86.29 9.46005C86.6304 9.90288 86.8048 10.4466 86.7842 11.0002C86.7125 11.8881 86.5767 12.77 86.3777 13.6393C85.8411 16.5805 85.3207 19.5216 84.7517 22.431C84.4915 23.5916 84.1501 24.7045 83.776 25.8809C83.6459 26.2487 83.4286 26.581 83.1419 26.8507C82.9637 27.0536 82.7361 27.2092 82.48 27.3032C82.2239 27.3973 81.9478 27.4266 81.6771 27.3885C81.4064 27.3505 81.1498 27.2463 80.9312 27.0857C80.7126 26.9249 80.539 26.7128 80.4265 26.4692C80.2331 26.032 80.1281 25.5622 80.1175 25.086C80.1175 23.1146 80.1175 21.1274 80.2476 19.14C80.4687 16.3039 80.9034 13.4876 81.5484 10.714C81.6243 10.3424 81.7674 9.98707 81.9711 9.66474V9.61704Z" fill="#3A3B7B"/>
<path id="Vector_10" fill-rule="evenodd" clip-rule="evenodd" d="M9.03109 43.8392C8.8391 44.2583 8.78645 44.7255 8.88027 45.175C8.94268 45.7677 9.07977 46.3506 9.28841 46.9105C9.54889 47.5962 9.84036 48.2742 10.1998 49.1098C10.2824 49.3021 10.3688 49.5028 10.4592 49.714C10.9438 50.8461 11.552 52.293 12.3631 54.3868C12.5927 54.9816 12.7966 55.5814 13.0019 56.1852C13.0848 56.4291 13.1681 56.6739 13.2533 56.9192C13.5587 57.7914 14.0842 58.575 14.7807 59.196C15.0765 59.5373 15.4688 59.786 15.9087 59.9104C16.3572 60.0372 16.8342 60.0291 17.2779 59.8873C17.7217 59.7454 18.1114 59.4762 18.3965 59.1147C18.6761 58.7603 18.8423 58.3332 18.8746 57.887C19.056 57.0178 18.9941 56.1166 18.6952 55.2786C18.2208 53.8873 17.6803 52.494 17.0572 51.1311L17.0543 51.1251C16.0291 48.993 14.987 46.8755 13.8956 44.7572L13.8875 44.7424C13.568 44.1905 13.1527 43.6971 12.6605 43.2845C12.3409 42.9162 11.9001 42.6677 11.4132 42.5821C10.9161 42.4947 10.4033 42.5828 9.96645 42.8308C9.55321 43.0615 9.22564 43.4146 9.03109 43.8392Z" fill="#3A3B7B"/>
<path id="Vector_11" fill-rule="evenodd" clip-rule="evenodd" d="M24.6897 38.5889C23.0823 38.1819 21.4035 38.1226 19.7704 38.4152C18.5055 38.537 17.2615 38.8223 16.3976 39.3874C15.9582 39.6749 15.603 40.0442 15.4054 40.5136C15.2067 40.9855 15.1814 41.5253 15.3442 42.1266C15.6415 43.2282 16.0275 44.2992 16.4122 45.3668L16.4745 45.5397L16.476 45.5435C17.6343 48.6449 18.8036 51.7359 19.9836 54.8162C20.1211 55.3017 20.3157 55.7699 20.5634 56.2116L20.568 56.2198C20.8951 56.7685 21.3147 57.2593 21.8091 57.6715C22.0563 57.8982 22.362 58.055 22.6935 58.1251C23.0283 58.1957 23.3764 58.1753 23.7 58.0656C24.0237 57.9561 24.3104 57.7618 24.5288 57.5038C24.7437 57.25 24.8845 56.9443 24.9361 56.6189C25.1494 55.735 25.0811 54.8084 24.7402 53.9635C24.6338 53.6792 24.5504 53.3886 24.4624 53.0828C24.4331 52.9808 24.4034 52.877 24.372 52.7713C27.073 51.739 29.9468 50.351 30.9574 47.1219C31.3531 46.006 31.3861 44.7977 31.0518 43.6626C30.7171 42.5263 30.0306 41.5191 29.0866 40.7798C27.802 39.7448 26.3013 38.9969 24.6897 38.5889ZM20.2341 42.5496C20.2872 42.5346 20.3408 42.5207 20.3946 42.5078C22.153 42.2375 23.952 42.5976 25.4605 43.5216C26.1252 43.9737 26.3976 44.4759 26.4443 44.9592C26.4926 45.4568 26.3076 45.9959 25.9358 46.5143C25.2334 47.4934 23.9516 48.277 22.7937 48.4231C21.9497 46.5224 21.0925 44.5449 20.2341 42.5496Z" fill="#3A3B7B"/>
<path id="Vector_12" d="M35.4061 35.11C37.3204 34.2456 39.6916 34.0962 41.5471 34.704C42.0144 34.8371 42.4199 35.125 42.6941 35.5184C42.9665 35.9093 43.0923 36.3805 43.0503 36.8515C43.0475 37.1572 42.9708 37.458 42.8264 37.7294C42.6794 38.0057 42.4665 38.2432 42.2058 38.4221C41.945 38.6009 41.6441 38.7158 41.3284 38.7569C41.0126 38.7981 40.6914 38.7642 40.3919 38.6583L40.3691 38.6502L40.3477 38.6392C40.1944 38.5608 40.0316 38.5017 39.8632 38.4633L39.8525 38.461C38.5473 38.122 37.316 38.6837 36.8663 39.3738C36.6518 39.7028 36.6252 40.035 36.8039 40.3372C36.9952 40.6608 37.4644 41.0239 38.4139 41.2827C38.675 41.3528 38.9427 41.4205 39.2142 41.4892C39.965 41.6793 40.7453 41.8767 41.4998 42.1504L41.5027 42.1515C44.9835 43.4464 46.2796 46.1283 45.8359 48.6507C45.397 51.1452 43.2663 53.4154 40.0621 53.9509C38.8962 54.2036 37.6829 54.1544 36.5422 53.8082C35.3986 53.4608 34.3679 52.8272 33.5523 51.9697L33.531 51.9473C33.2735 51.6243 33.1004 51.2448 33.0236 50.8421C32.953 50.4787 32.9902 50.1032 33.1306 49.7597C33.2703 49.4182 33.5064 49.1227 33.8112 48.9074C34.1332 48.6633 34.5213 48.5168 34.9275 48.4863C35.3324 48.4559 35.7375 48.5419 36.093 48.7337C36.4481 48.9014 36.7784 49.1153 37.0748 49.3698L37.0804 49.3744C37.6049 49.8434 38.2394 49.9656 38.8478 49.8524C39.4651 49.7376 40.0456 49.3804 40.419 48.9066C40.7899 48.4357 40.9388 47.8763 40.7621 47.3333C40.5843 46.7864 40.0496 46.1736 38.8748 45.6612C38.5677 45.5337 38.2493 45.4309 37.9181 45.3308C37.8288 45.3038 37.7379 45.277 37.646 45.2497C37.4011 45.177 37.1491 45.1022 36.902 45.0197C36.7319 44.9629 36.563 44.9092 36.3959 44.8559C35.9389 44.7104 35.4934 44.5686 35.0647 44.3783C34.1315 44.0677 33.3254 43.4712 32.7661 42.6772C32.2046 41.88 31.922 40.9267 31.9605 39.9596C31.9635 37.6028 33.4816 35.9792 35.4061 35.11Z" fill="#3A3B7B"/>
<path id="Vector_13" d="M59.6746 34.8589C59.3034 34.6816 58.8929 34.5975 58.4803 34.614C58.0675 34.6306 57.6655 34.7473 57.3106 34.9539C56.9578 35.159 56.6624 35.4462 56.4508 35.79C56.2568 36.0795 56.1224 36.4032 56.0555 36.7432C55.9885 37.0828 55.9902 37.4319 56.0601 37.7708C56.1293 38.2063 56.2059 38.6299 56.2816 39.0476C56.4069 39.7388 56.5288 40.4145 56.6093 41.1034L56.6123 41.1208C56.7954 42.2012 56.8913 43.2939 56.8998 44.3889L56.9007 44.4045C56.9633 45.587 56.5512 46.7465 55.7528 47.637L55.7401 47.6528C55.4803 47.9783 55.133 48.2267 54.7368 48.3703C54.3408 48.5139 53.9118 48.5469 53.4977 48.4657C53.0836 48.3844 52.7008 48.1921 52.3921 47.9102C52.0833 47.6284 51.8607 47.267 51.7495 46.8687C51.5123 46.0291 51.3749 45.1655 51.34 44.2952L51.7453 37.9867C51.7513 37.9043 51.7581 37.8197 51.7651 37.7344C51.7805 37.5428 51.7963 37.3477 51.8028 37.1656C51.8124 36.8978 51.8042 36.6223 51.7404 36.3616C51.6751 36.0952 51.5508 35.8417 51.3305 35.6258C51.1123 35.4121 50.8178 35.2545 50.4471 35.1472C49.7769 34.9575 49.2102 34.9635 48.7379 35.1594C48.2654 35.3554 47.9417 35.7192 47.7126 36.1395C47.4853 36.5562 47.3393 37.0496 47.2288 37.5437C47.1468 37.9104 47.081 38.2954 47.0184 38.6618C46.9967 38.7881 46.9756 38.912 46.9542 39.0324L46.9536 39.036C46.6187 41.0454 46.519 43.0857 46.6565 45.1172C46.6821 46.2151 46.9163 47.2988 47.3472 48.3129C47.8333 49.6215 48.7138 50.7552 49.8725 51.5645C51.0336 52.3755 52.4192 52.8223 53.8458 52.8459C55.2725 52.8695 56.6728 52.4687 57.8613 51.6968C59.048 50.9259 59.9676 49.8211 60.4986 48.5285C61.2414 46.8819 61.5902 45.0912 61.5182 43.2928C61.4746 41.9799 61.4015 40.6569 61.3288 39.3406C61.2931 38.6949 61.2575 38.0506 61.2256 37.4102C61.2095 36.7681 60.9929 36.1462 60.6048 35.6278C60.3647 35.3002 60.0451 35.0359 59.6746 34.8589Z" fill="#3A3B7B"/>
<path id="Vector_14" d="M72.8122 44.7509C72.7745 44.7977 72.7349 44.8461 72.6934 44.8964C72.3915 43.1935 72.1117 41.4911 71.8315 39.7862C71.731 39.1744 71.6299 38.5601 71.5283 37.9476L71.5169 37.8792L71.4798 37.8202C71.4098 37.7091 71.4029 37.6001 71.4029 37.3677V37.3409L71.3986 37.3143C71.3228 36.8344 71.1008 36.3878 70.7617 36.033C70.4235 35.6792 69.9843 35.4329 69.5011 35.326C69.0188 35.2097 68.512 35.2353 68.0444 35.3997C67.578 35.5638 67.1715 35.8586 66.8756 36.2472C66.6296 36.5455 66.4279 36.8763 66.2768 37.2297C65.9339 37.9912 65.5879 38.7546 65.241 39.52L65.235 39.5332C64.369 41.4441 63.497 43.3677 62.6505 45.3066L62.6479 45.3128C62.1282 46.57 61.6992 47.8946 61.2717 49.2152C61.1864 49.4787 61.101 49.7422 61.015 50.005C60.8606 50.4217 60.7931 50.8643 60.8163 51.3068C60.7882 51.703 60.8851 52.0982 61.0943 52.4389C61.3076 52.7867 61.6271 53.0602 62.0077 53.2212C62.411 53.3942 62.862 53.4308 63.2892 53.3256C63.7155 53.2204 64.094 52.9799 64.3653 52.6417C64.7116 52.2251 65.0096 51.7707 65.2526 51.2894C65.9697 49.8551 66.6551 48.4034 67.3373 46.9579C67.6013 46.3988 67.8578 45.8981 68.1496 45.3528C68.1697 45.42 68.1901 45.4856 68.2113 45.5513C68.5171 46.8679 69.0334 48.129 69.741 49.2884C69.8749 49.534 70.0615 49.7486 70.2878 49.9176C70.5169 50.0886 70.7813 50.2086 71.0626 50.2695C71.344 50.3305 71.6355 50.3307 71.917 50.2703C72.198 50.2101 72.4632 50.0899 72.6925 49.9197L73.1461 49.5877L76.6675 46.6877L76.4592 47.9852C76.1734 49.7687 75.8898 51.5373 75.5884 53.3063C75.3912 54.0904 75.3915 54.9094 75.5892 55.6932C75.6749 56.1344 75.893 56.5405 76.216 56.8598C76.5416 57.1818 76.9586 57.4005 77.413 57.4878C77.8673 57.5749 78.338 57.5267 78.7639 57.349C79.1836 57.174 79.5406 56.8814 79.7902 56.5084C80.3708 55.8041 80.7322 54.9514 80.8315 54.0518C80.9809 52.7815 81.1497 51.4938 81.3187 50.2065C81.5133 48.7227 81.7079 47.2394 81.8722 45.7845L81.8727 45.78C82.0309 44.1874 82.1074 42.5883 82.1021 40.9882C82.1367 40.4826 82.008 39.9788 81.7336 39.5483C81.4583 39.1163 81.0506 38.7805 80.5687 38.5883C80.0674 38.3655 79.5063 38.3059 78.9678 38.4186C78.4328 38.5304 77.9486 38.8061 77.5853 39.2055C76.9358 39.7928 76.3265 40.4213 75.7613 41.0869L75.7575 41.0914C75.1405 41.8432 74.5276 42.6097 73.9188 43.3713C73.5485 43.8342 73.1794 44.2961 72.8122 44.7509Z" fill="#3A3B7B"/>
</g>
<defs>
<clipPath id="clip0_53_2072">
<rect width="95.4545" height="60" fill="white" transform="translate(0.272461)"/>
</clipPath>
</defs>
</svg>
