<svg width="60" height="60" viewBox="0 0 60 60" fill="none" xmlns="http://www.w3.org/2000/svg">
<g id="Logo" clip-path="url(#clip0_53_2103)">
<path id="Vector" fill-rule="evenodd" clip-rule="evenodd" d="M38.3335 17.528C35.8668 15.8798 32.9667 15 30 15V0C35.9334 0 41.7336 1.75947 46.6671 5.05591C51.6006 8.35234 55.4457 13.0377 57.7164 18.5195C59.9869 24.0012 60.5811 30.0333 59.4235 35.8527C58.266 41.6721 55.4088 47.0177 51.2132 51.2132C47.0177 55.4088 41.6721 58.266 35.8527 59.4235C30.0333 60.5811 24.0012 59.9869 18.5195 57.7164C13.0377 55.4457 8.35234 51.6006 5.05591 46.6671C1.75947 41.7336 0 35.9334 0 30H15C15 32.9667 15.8798 35.8668 17.528 38.3335C19.1761 40.8003 21.5189 42.7229 24.2598 43.8582C27.0006 44.9935 30.0166 45.2906 32.9263 44.7117C35.836 44.133 38.5088 42.7044 40.6067 40.6067C42.7044 38.5088 44.133 35.836 44.7117 32.9263C45.2906 30.0166 44.9935 27.0006 43.8582 24.2598C42.7229 21.5189 40.8003 19.1761 38.3335 17.528Z" fill="#007DFC"/>
<path id="Vector_2" fill-rule="evenodd" clip-rule="evenodd" d="M15 6.49688e-06C15 1.96984 14.612 3.92038 13.8582 5.74025C13.1044 7.56014 11.9995 9.21373 10.6066 10.6066C9.21373 11.9995 7.56014 13.1044 5.74025 13.8582C3.92036 14.612 1.96982 15 6.55665e-07 15L0 30C3.93965 30 7.84073 29.2241 11.4805 27.7164C15.1203 26.2088 18.4275 23.999 21.2131 21.2132C23.9989 18.4275 26.2087 15.1203 27.7164 11.4805C29.224 7.84073 30 3.93965 30 0L15 6.49688e-06Z" fill="#007DFC"/>
</g>
<defs>
<clipPath id="clip0_53_2103">
<rect width="60" height="60" fill="white"/>
</clipPath>
</defs>
</svg>
