<svg width="40" height="40" viewBox="0 0 40 40" fill="none" xmlns="http://www.w3.org/2000/svg">
<g id="Group">
<path id="Vector" fill-rule="evenodd" clip-rule="evenodd" d="M26.1368 5.46998C26.7268 4.88031 27.5166 4.53331 28.35 4.49752C29.1834 4.46172 30 4.73973 30.6384 5.27665L30.8518 5.46998L32.0301 6.64998C32.6193 7.23996 32.966 8.02934 33.0018 8.86239C33.0376 9.69543 32.7599 10.5116 32.2234 11.15L32.0301 11.3633L30.8518 12.5416C30.7496 12.6429 30.641 12.7375 30.5268 12.825C30.6726 13.3478 30.6885 13.8983 30.5732 14.4287C30.4579 14.959 30.2148 15.4532 29.8651 15.8683L29.6718 16.0766L28.0218 17.7266C29.1692 18.7423 30.0876 19.9904 30.716 21.388C31.3444 22.7856 31.6685 24.3009 31.6668 25.8333C31.6668 28.5733 30.6501 31.075 28.9734 32.9833L28.6501 33.3333H33.3334C33.7582 33.3338 34.1668 33.4964 34.4757 33.7881C34.7846 34.0797 34.9705 34.4782 34.9954 34.9023C35.0203 35.3264 34.8823 35.7439 34.6097 36.0697C34.337 36.3955 33.9503 36.6048 33.5284 36.655L33.3334 36.6666H6.66677C6.24197 36.6662 5.83339 36.5035 5.52449 36.2119C5.2156 35.9203 5.02972 35.5217 5.00482 35.0977C4.97992 34.6736 5.1179 34.256 5.39055 33.9303C5.6632 33.6045 6.04995 33.3952 6.47177 33.345L6.66677 33.3333H20.8334C22.3381 33.3335 23.8081 32.8811 25.0523 32.0349C26.2964 31.1887 27.2573 29.9878 27.81 28.5883C28.3628 27.1888 28.4817 25.6554 28.1515 24.1874C27.8213 22.7194 27.0572 21.3847 25.9584 20.3566L25.6584 20.09L20.2451 25.5066C19.655 26.0968 18.8649 26.4441 18.0311 26.4799C17.1972 26.5157 16.3803 26.2374 15.7418 25.7L15.5301 25.505L11.9951 21.97C11.4052 21.3801 11.0579 20.5905 11.0218 19.7571C10.9857 18.9236 11.2634 18.107 11.8001 17.4683L11.9951 17.2566L21.4234 7.82832C21.8409 7.41072 22.3618 7.11151 22.9328 6.96128C23.5038 6.81105 24.1045 6.81521 24.6734 6.97332L24.8101 6.80665L24.9584 6.64998L26.1368 5.46998ZM10.8168 23.15L14.3501 26.6833C14.505 26.8381 14.6278 27.0218 14.7117 27.224C14.7955 27.4262 14.8387 27.643 14.8388 27.8619C14.8389 28.0808 14.7958 28.2976 14.7121 28.4999C14.6284 28.7022 14.5057 28.886 14.3509 29.0408C14.1962 29.1957 14.0125 29.3185 13.8103 29.4024C13.608 29.4862 13.3913 29.5294 13.1724 29.5295C12.9534 29.5296 12.7367 29.4865 12.5344 29.4028C12.3321 29.3191 12.1483 29.1964 11.9934 29.0416L8.45677 25.505C8.14448 25.192 7.9693 24.7678 7.96977 24.3257C7.97024 23.8836 8.14632 23.4598 8.45927 23.1475C8.77223 22.8352 9.19642 22.66 9.63854 22.6605C10.0807 22.6609 10.5045 22.837 10.8168 23.15ZM23.7801 10.1866L14.3501 19.6133L17.8851 23.1483L27.3134 13.72L23.7784 10.185L23.7801 10.1866ZM28.4934 7.82998L27.3151 9.00832L28.4934 10.1866L29.6718 9.00832L28.4934 7.82998Z" fill="#F19A34"/>
</g>
</svg>
