<svg width="40" height="40" viewBox="0 0 40 40" fill="none" xmlns="http://www.w3.org/2000/svg">
<g id="Group">
<path id="Vector" fill-rule="evenodd" clip-rule="evenodd" d="M28.3337 3.33337C29.6597 3.33337 30.9315 3.86016 31.8692 4.79784C32.8069 5.73552 33.3337 7.00729 33.3337 8.33337V31.6667C33.3337 32.9928 32.8069 34.2646 31.8692 35.2022C30.9315 36.1399 29.6597 36.6667 28.3337 36.6667H11.667C10.3409 36.6667 9.06914 36.1399 8.13146 35.2022C7.19378 34.2646 6.66699 32.9928 6.66699 31.6667V8.33337C6.66699 7.00729 7.19378 5.73552 8.13146 4.79784C9.06914 3.86016 10.3409 3.33337 11.667 3.33337H28.3337ZM28.3337 6.66671H11.667C11.225 6.66671 10.801 6.8423 10.4885 7.15486C10.1759 7.46742 10.0003 7.89135 10.0003 8.33337V31.6667C10.0003 32.1087 10.1759 32.5327 10.4885 32.8452C10.801 33.1578 11.225 33.3334 11.667 33.3334H28.3337C28.7757 33.3334 29.1996 33.1578 29.5122 32.8452C29.8247 32.5327 30.0003 32.1087 30.0003 31.6667V8.33337C30.0003 7.89135 29.8247 7.46742 29.5122 7.15486C29.1996 6.8423 28.7757 6.66671 28.3337 6.66671ZM20.0003 16.6667C21.7684 16.6667 23.4641 17.3691 24.7144 18.6193C25.9646 19.8696 26.667 21.5653 26.667 23.3334C26.667 25.1015 25.9646 26.7972 24.7144 28.0474C23.4641 29.2977 21.7684 30 20.0003 30C18.2322 30 16.5365 29.2977 15.2863 28.0474C14.036 26.7972 13.3337 25.1015 13.3337 23.3334C13.3337 21.5653 14.036 19.8696 15.2863 18.6193C16.5365 17.3691 18.2322 16.6667 20.0003 16.6667ZM20.0003 20C19.1163 20 18.2684 20.3512 17.6433 20.9764C17.0182 21.6015 16.667 22.4493 16.667 23.3334C16.667 24.2174 17.0182 25.0653 17.6433 25.6904C18.2684 26.3155 19.1163 26.6667 20.0003 26.6667C20.8844 26.6667 21.7322 26.3155 22.3573 25.6904C22.9825 25.0653 23.3337 24.2174 23.3337 23.3334C23.3337 22.4493 22.9825 21.6015 22.3573 20.9764C21.7322 20.3512 20.8844 20 20.0003 20ZM20.0003 10C20.6634 10 21.2993 10.2634 21.7681 10.7323C22.2369 11.2011 22.5003 11.837 22.5003 12.5C22.5003 13.1631 22.2369 13.799 21.7681 14.2678C21.2993 14.7366 20.6634 15 20.0003 15C19.3373 15 18.7014 14.7366 18.2326 14.2678C17.7637 13.799 17.5003 13.1631 17.5003 12.5C17.5003 11.837 17.7637 11.2011 18.2326 10.7323C18.7014 10.2634 19.3373 10 20.0003 10Z" fill="#F19A34"/>
</g>
</svg>
