<svg width="40" height="40" viewBox="0 0 40 40" fill="none" xmlns="http://www.w3.org/2000/svg">
<g id="Group">
<path id="Vector" d="M23.333 3.33337C24.2171 3.33337 25.0649 3.68456 25.69 4.30968C26.3152 4.93481 26.6663 5.78265 26.6663 6.66671V9.02671C29.6097 10.3134 31.6663 13.25 31.6663 16.6667V23.3334C31.6666 24.9552 31.1937 26.5419 30.3056 27.8989C29.4174 29.256 28.1527 30.3244 26.6663 30.9734V33.3334C26.6663 34.2174 26.3152 35.0653 25.69 35.6904C25.0649 36.3155 24.2171 36.6667 23.333 36.6667H16.6663C15.7823 36.6667 14.9344 36.3155 14.3093 35.6904C13.6842 35.0653 13.333 34.2174 13.333 33.3334V30.9734C11.8467 30.3244 10.5819 29.256 9.6938 27.8989C8.80568 26.5419 8.33276 24.9552 8.33301 23.3334V16.6667C8.33276 15.0449 8.80568 13.4582 9.6938 12.1012C10.5819 10.7441 11.8467 9.67564 13.333 9.02671V6.66671C13.333 5.78265 13.6842 4.93481 14.3093 4.30968C14.9344 3.68456 15.7823 3.33337 16.6663 3.33337H23.333ZM23.333 31.6667H16.6663V33.3334H23.333V31.6667ZM23.333 11.6667H16.6663C15.391 11.6666 14.1638 12.1539 13.2359 13.0288C12.308 13.9038 11.7495 15.1002 11.6747 16.3734L11.6663 16.6667V23.3334C11.6663 24.6087 12.1535 25.8359 13.0285 26.7638C13.9034 27.6917 15.0999 28.2502 16.373 28.325L16.6663 28.3334H23.333C24.6084 28.3334 25.8355 27.8462 26.7634 26.9712C27.6914 26.0963 28.2499 24.8999 28.3247 23.6267L28.333 23.3334V16.6667C28.333 15.3406 27.8062 14.0689 26.8685 13.1312C25.9309 12.1935 24.6591 11.6667 23.333 11.6667ZM19.9997 13.3334C20.4417 13.3334 20.8656 13.509 21.1782 13.8215C21.4907 14.1341 21.6663 14.558 21.6663 15V19.31L23.593 21.2367C23.8966 21.551 24.0646 21.972 24.0608 22.409C24.057 22.846 23.8817 23.2641 23.5727 23.5731C23.2637 23.8821 22.8457 24.0574 22.4087 24.0612C21.9717 24.065 21.5507 23.897 21.2363 23.5934L18.8197 21.1784C18.6624 21.0211 18.5382 20.8339 18.4546 20.6277C18.371 20.4216 18.3297 20.2008 18.333 19.9784V15C18.333 14.558 18.5086 14.1341 18.8212 13.8215C19.1337 13.509 19.5576 13.3334 19.9997 13.3334ZM23.333 6.66671H16.6663V8.33337H23.333V6.66671Z" fill="#F19A34"/>
</g>
</svg>
