<?xml version="1.0" encoding="UTF-8"?>
<!DOCTYPE svg PUBLIC "-//W3C//DTD SVG 1.1//EN" "http://www.w3.org/Graphics/SVG/1.1/DTD/svg11.dtd">
<svg xmlns="http://www.w3.org/2000/svg" version="1.1" width="2000px" height="2000px" style="shape-rendering:geometricPrecision; text-rendering:geometricPrecision; image-rendering:optimizeQuality; fill-rule:evenodd; clip-rule:evenodd" xmlns:xlink="http://www.w3.org/1999/xlink">
<g><path style="opacity:1" fill="#f5e9d9" d="M -0.5,-0.5 C 666.167,-0.5 1332.83,-0.5 1999.5,-0.5C 1999.5,666.167 1999.5,1332.83 1999.5,1999.5C 1332.83,1999.5 666.167,1999.5 -0.5,1999.5C -0.5,1332.83 -0.5,666.167 -0.5,-0.5 Z"/></g>
<g><path style="opacity:1" fill="#fad9ae" d="M 1535.5,1706.5 C 1535.71,1705.08 1536.21,1703.74 1537,1702.5C 1537.67,1549.5 1537.67,1396.5 1537,1243.5C 1533.63,1234.95 1527.46,1229.95 1518.5,1228.5C 1395.33,1227.83 1272,1227.5 1148.5,1227.5C 1024.83,1227.5 901.498,1228.17 778.5,1229.5C 772.491,1232.01 768.324,1236.34 766,1242.5C 765.333,1396.17 765.333,1549.83 766,1703.5C 768.167,1711 773,1715.83 780.5,1718C 1025.17,1718.5 1269.83,1718.67 1514.5,1718.5C 1514.5,1719.5 1514.5,1720.5 1514.5,1721.5C 1513.13,1721.34 1511.79,1721.51 1510.5,1722C 1485.95,1735.78 1460.95,1748.78 1435.5,1761C 1421.31,1765.28 1407.64,1770.62 1394.5,1777C 1321.49,1803.74 1245.82,1820.07 1167.5,1826C 1059,1834.36 953.999,1819.7 852.5,1782C 831.58,1772.73 810.747,1763.23 790,1753.5C 772.236,1743.39 754.736,1732.89 737.5,1722C 729.259,1714.88 720.593,1708.38 711.5,1702.5C 699.127,1690.13 687.127,1677.46 675.5,1664.5C 666.228,1650.94 657.228,1637.27 648.5,1623.5C 641.768,1415.3 633.768,1207.3 624.5,999.5C 618.911,950.456 612.911,901.456 606.5,852.5C 609.167,852.5 611.833,852.5 614.5,852.5C 608.605,864.649 611.605,873.816 623.5,880C 643.5,880.167 663.5,880.333 683.5,880.5C 704.882,880.645 726.215,880.145 747.5,879C 751,876.833 753.833,874 756,870.5C 759.167,864.833 762.333,859.167 765.5,853.5C 765.137,852.817 764.804,852.15 764.5,851.5C 771.442,856.315 779.109,857.482 787.5,855C 790.994,851.84 793.328,848.006 794.5,843.5C 794.56,840.845 793.893,838.511 792.5,836.5C 793.11,835.609 793.443,834.609 793.5,833.5C 803.777,830.691 807.61,824.024 805,813.5C 804.292,812.619 803.458,811.953 802.5,811.5C 803.11,810.609 803.443,809.609 803.5,808.5C 814.037,807.788 818.87,802.121 818,791.5C 817.764,789.189 816.931,787.189 815.5,785.5C 815.5,784.833 815.5,784.167 815.5,783.5C 822.469,780.364 825.302,775.031 824,767.5C 822.192,764.562 820.692,761.562 819.5,758.5C 837.643,726.221 855.809,693.888 874,661.5C 877.665,650.14 874.165,641.974 863.5,637C 822.833,636.333 782.167,636.333 741.5,637C 736,639.833 731.833,644 729,649.5C 710.312,683.554 691.145,717.221 671.5,750.5C 645.842,751.325 620.176,751.658 594.5,751.5C 613.996,750.668 633.662,750.168 653.5,750C 644.746,747.978 636.079,745.645 627.5,743C 626.151,742.228 625.318,741.061 625,739.5C 618.41,691.878 612.076,644.211 606,596.5C 599.49,566.989 581.99,547.155 553.5,537C 533.853,531.006 514.187,525.173 494.5,519.5C 493.292,518.766 491.959,518.433 490.5,518.5C 490.158,517.662 489.492,517.328 488.5,517.5C 489.307,511.536 489.64,505.536 489.5,499.5C 494.687,497.603 500.021,495.77 505.5,494C 506.823,493.184 507.489,492.017 507.5,490.5C 525.299,477.566 538.299,460.9 546.5,440.5C 566.263,445.37 580.763,438.703 590,420.5C 595.532,399.732 588.699,384.566 569.5,375C 564.246,373.729 558.913,373.229 553.5,373.5C 554.568,372.566 555.901,372.232 557.5,372.5C 557.5,369.167 557.5,365.833 557.5,362.5C 587.896,362.936 602.062,347.936 600,317.5C 595.691,306.195 587.525,299.695 575.5,298C 566.511,297.937 557.511,298.104 548.5,298.5C 534.357,299.438 521.023,296.605 508.5,290C 499.661,284.746 490.661,279.746 481.5,275C 471.212,270.759 460.545,269.092 449.5,270C 437.598,272.411 429.598,279.244 425.5,290.5C 411.38,291.651 401.213,298.651 395,311.5C 392.149,319.591 390.649,327.924 390.5,336.5C 391.174,345.544 392.174,354.544 393.5,363.5C 390.746,366.154 387.579,368.487 384,370.5C 381.618,373.84 379.284,377.173 377,380.5C 371.568,399.843 375.735,416.676 389.5,431C 394.853,434.908 400.853,436.408 407.5,435.5C 402.922,453.574 397.922,471.574 392.5,489.5C 391.507,493.791 390.84,498.124 390.5,502.5C 389.739,501.609 388.739,500.942 387.5,500.5C 352.937,510.944 318.271,521.11 283.5,531C 265.392,537.77 251.559,549.603 242,566.5C 227.321,592.548 220.155,620.548 220.5,650.5C 214.646,624.616 212.479,598.282 214,571.5C 216.153,555.491 218.487,539.491 221,523.5C 226.414,505.109 232.08,486.775 238,468.5C 246.961,446.583 256.961,425.25 268,404.5C 271.079,400.676 273.912,396.676 276.5,392.5C 277.325,391.614 278.325,391.281 279.5,391.5C 279.87,387.455 281.87,384.455 285.5,382.5C 286.713,378.451 289.213,375.451 293,373.5C 293.36,371.579 294.194,369.912 295.5,368.5C 359.101,294.777 435.101,236.944 523.5,195C 603.507,159.147 687.507,135.313 775.5,123.5C 894.699,108.786 1013.03,113.619 1130.5,138C 1133.09,139.197 1135.76,140.197 1138.5,141C 1152.67,143.367 1166.67,146.367 1180.5,150C 1196.62,156.04 1213.12,160.874 1230,164.5C 1260.79,175.473 1291.29,187.139 1321.5,199.5C 1333.48,205.061 1345.48,210.561 1357.5,216C 1378.02,226.492 1398.35,237.159 1418.5,248C 1426.77,254.765 1435.77,260.432 1445.5,265C 1464.18,277.708 1482.51,290.708 1500.5,304C 1516.97,316.632 1532.64,330.298 1547.5,345C 1548.5,345.333 1549.5,345.667 1550.5,346C 1551.54,349.547 1553.87,351.381 1557.5,351.5C 1557.28,352.675 1557.61,353.675 1558.5,354.5C 1564.1,359.248 1569.44,364.248 1574.5,369.5C 1581.12,378.62 1588.29,387.287 1596,395.5C 1606.84,411.169 1618.17,426.502 1630,441.5C 1630.67,443.5 1631.33,445.5 1632,447.5C 1637.13,453.526 1641.79,459.859 1646,466.5C 1723.4,591.282 1775.73,726.282 1803,871.5C 1826.22,999.254 1827.55,1127.25 1807,1255.5C 1799.47,1293.4 1790.14,1330.73 1779,1367.5C 1772.32,1386.18 1765.66,1404.85 1759,1423.5C 1754.08,1432.22 1749.92,1441.39 1746.5,1451C 1734.89,1474.39 1722.89,1497.55 1710.5,1520.5C 1693.79,1546.62 1676.63,1572.28 1659,1597.5C 1649.13,1606.94 1640.47,1617.28 1633,1628.5C 1628.42,1631.03 1625.25,1634.7 1623.5,1639.5C 1596.09,1663.86 1566.75,1686.19 1535.5,1706.5 Z"/></g>
<g><path style="opacity:1" fill="#383836" d="M 1279.5,267.5 C 1286.51,267.334 1293.51,267.5 1300.5,268C 1301.83,269.333 1301.83,270.667 1300.5,272C 1292.3,272.211 1284.13,272.711 1276,273.5C 1273.98,272.968 1273.15,271.635 1273.5,269.5C 1275.79,269.405 1277.79,268.738 1279.5,267.5 Z"/></g>
<g><path style="opacity:1" fill="#1f2428" d="M 557.5,362.5 C 535.503,361.233 513.837,357.9 492.5,352.5C 490.194,352.007 487.861,351.674 485.5,351.5C 474.52,347.958 463.353,344.624 452,341.5C 447.934,349.965 443.101,357.965 437.5,365.5C 436.167,366.167 435.167,367.167 434.5,368.5C 431.853,370.811 429.186,373.144 426.5,375.5C 417.787,367.073 407.454,363.74 395.5,365.5C 394.818,364.757 394.151,364.091 393.5,363.5C 392.174,354.544 391.174,345.544 390.5,336.5C 390.649,327.924 392.149,319.591 395,311.5C 401.213,298.651 411.38,291.651 425.5,290.5C 429.598,279.244 437.598,272.411 449.5,270C 460.545,269.092 471.212,270.759 481.5,275C 490.661,279.746 499.661,284.746 508.5,290C 521.023,296.605 534.357,299.438 548.5,298.5C 557.511,298.104 566.511,297.937 575.5,298C 587.525,299.695 595.691,306.195 600,317.5C 602.062,347.936 587.896,362.936 557.5,362.5 Z"/></g>
<g><path style="opacity:1" fill="#282b2b" d="M 1320.5,273.5 C 1328.71,275.518 1335.54,279.851 1341,286.5C 1342.13,288.345 1342.63,290.345 1342.5,292.5C 1341.45,292.649 1340.45,292.483 1339.5,292C 1334.43,285.929 1328.43,280.929 1321.5,277C 1320.66,275.989 1320.33,274.822 1320.5,273.5 Z"/></g>
<g><path style="opacity:1" fill="#febe06" d="M 1055.5,284.5 C 1094.92,282.776 1120.08,300.776 1131,338.5C 1135.23,374.889 1120.73,400.389 1087.5,415C 1048.19,424.925 1019.69,411.758 1002,375.5C 990.851,336.307 1003.35,307.474 1039.5,289C 1044.93,287.351 1050.26,285.851 1055.5,284.5 Z"/></g>
<g><path style="opacity:1" fill="#262a2a" d="M 1252.5,280.5 C 1253.83,280.5 1255.17,280.5 1256.5,280.5C 1254.71,284.812 1251.88,288.479 1248,291.5C 1245.32,295.53 1242.66,299.53 1240,303.5C 1237.81,302.941 1237.15,301.607 1238,299.5C 1241.87,292.417 1246.71,286.084 1252.5,280.5 Z"/></g>
<g><path style="opacity:1" fill="#272a2b" d="M 828.5,300.5 C 833.167,300.5 837.833,300.5 842.5,300.5C 842.5,301.833 842.5,303.167 842.5,304.5C 833.827,303.934 825.66,305.601 818,309.5C 815.61,308.828 815.11,307.495 816.5,305.5C 820.6,303.808 824.6,302.141 828.5,300.5 Z"/></g>
<g><path style="opacity:1" fill="#262a2a" d="M 862.5,305.5 C 870.963,307.993 878.13,312.66 884,319.5C 884.49,320.793 884.657,322.127 884.5,323.5C 880.869,322.392 877.869,320.226 875.5,317C 871.668,314.25 867.668,311.75 863.5,309.5C 862.571,308.311 862.238,306.978 862.5,305.5 Z"/></g>
<g><path style="opacity:1" fill="#262a2b" d="M 1349.5,309.5 C 1352.77,309.433 1354.27,311.099 1354,314.5C 1354.46,322.175 1354.96,329.842 1355.5,337.5C 1352.23,337.567 1350.73,335.901 1351,332.5C 1350.54,324.825 1350.04,317.158 1349.5,309.5 Z"/></g>
<g><path style="opacity:1" fill="#1e2427" d="M 1234.5,322.5 C 1235.5,322.414 1236.33,322.748 1237,323.5C 1237.67,332.167 1237.67,340.833 1237,349.5C 1235.99,350.337 1234.82,350.67 1233.5,350.5C 1233.19,341.083 1233.53,331.75 1234.5,322.5 Z"/></g>
<g><path style="opacity:1" fill="#232829" d="M 797.5,319.5 C 799.252,319.418 800.252,320.251 800.5,322C 796.963,326.9 793.797,332.066 791,337.5C 790.023,339.74 789.523,342.073 789.5,344.5C 788.167,344.5 786.833,344.5 785.5,344.5C 787.094,334.979 791.094,326.646 797.5,319.5 Z"/></g>
<g><path style="opacity:1" fill="#f6e8d6" d="M 1037.5,322.5 C 1042.68,321.507 1044.51,323.507 1043,328.5C 1033.37,335.632 1024.2,343.298 1015.5,351.5C 1024.72,359.037 1033.89,366.704 1043,374.5C 1044.1,380.451 1041.94,381.951 1036.5,379C 1026.83,371.333 1017.17,363.667 1007.5,356C 1005.88,354.883 1004.88,353.383 1004.5,351.5C 1005.56,348.932 1007.23,346.765 1009.5,345C 1019.02,337.636 1028.35,330.136 1037.5,322.5 Z"/></g>
<g><path style="opacity:1" fill="#f6e9d6" d="M 1074.5,315.5 C 1079.49,315.329 1081.33,317.662 1080,322.5C 1073.33,343.833 1066.67,365.167 1060,386.5C 1054.81,387.98 1052.81,385.98 1054,380.5C 1060.75,358.758 1067.58,337.092 1074.5,315.5 Z"/></g>
<g><path style="opacity:1" fill="#f4e7d7" d="M 485.5,351.5 C 468.925,350.87 456.758,357.87 449,372.5C 445.222,370.03 441.389,367.697 437.5,365.5C 443.101,357.965 447.934,349.965 452,341.5C 463.353,344.624 474.52,347.958 485.5,351.5 Z"/></g>
<g><path style="opacity:1" fill="#fdbf1a" d="M 485.5,351.5 C 487.861,351.674 490.194,352.007 492.5,352.5C 511.813,361.153 519.146,375.82 514.5,396.5C 516.577,398.082 518.91,399.082 521.5,399.5C 522.341,401.379 522.675,403.379 522.5,405.5C 519.529,404.173 516.529,402.84 513.5,401.5C 499.647,421.84 481.98,426.007 460.5,414C 449.408,403.962 444.908,391.462 447,376.5C 442.684,373.934 438.517,371.267 434.5,368.5C 435.167,367.167 436.167,366.167 437.5,365.5C 441.389,367.697 445.222,370.03 449,372.5C 456.758,357.87 468.925,350.87 485.5,351.5 Z"/></g>
<g><path style="opacity:1" fill="#282b2c" d="M 892.5,340.5 C 893.822,340.33 894.989,340.663 896,341.5C 898.306,350.035 898.973,358.701 898,367.5C 896.989,368.337 895.822,368.67 894.5,368.5C 894.731,359.092 894.064,349.759 892.5,340.5 Z"/></g>
<g><path style="opacity:1" fill="#f5e8d7" d="M 492.5,352.5 C 513.837,357.9 535.503,361.233 557.5,362.5C 557.5,365.833 557.5,369.167 557.5,372.5C 555.901,372.232 554.568,372.566 553.5,373.5C 540.566,375.098 531.232,381.764 525.5,393.5C 524.312,392.316 523.145,392.316 522,393.5C 521.505,395.473 521.338,397.473 521.5,399.5C 518.91,399.082 516.577,398.082 514.5,396.5C 519.146,375.82 511.813,361.153 492.5,352.5 Z"/></g>
<g><path style="opacity:1" fill="#f6e8d6" d="M 1087.5,322.5 C 1089.2,322.34 1090.87,322.506 1092.5,323C 1102.13,331.481 1112.13,339.481 1122.5,347C 1126.04,349.282 1126.37,351.949 1123.5,355C 1113.65,362.426 1103.98,370.093 1094.5,378C 1091.73,380.916 1088.89,381.082 1086,378.5C 1085.22,377.056 1085.39,375.723 1086.5,374.5C 1095.86,366.803 1105.19,359.137 1114.5,351.5C 1105.65,343.487 1096.48,335.82 1087,328.5C 1086.32,326.402 1086.49,324.402 1087.5,322.5 Z"/></g>
<g><path style="opacity:1" fill="#25292a" d="M 1363.5,354.5 C 1367.23,356.725 1370.57,359.558 1373.5,363C 1376.83,365 1380.17,367 1383.5,369C 1386.31,372.047 1385.64,373.38 1381.5,373C 1374.52,369.253 1368.35,364.419 1363,358.5C 1362.42,357.072 1362.59,355.738 1363.5,354.5 Z"/></g>
<g><path style="opacity:1" fill="#f5e8d8" d="M 476.5,355.5 C 501.486,355.984 512.986,368.65 511,393.5C 504.158,411.333 491.325,418.5 472.5,415C 456.842,408.326 450.009,396.493 452,379.5C 456.085,367.247 464.252,359.247 476.5,355.5 Z"/></g>
<g><path style="opacity:1" fill="#f5e9d9" d="M 393.5,363.5 C 394.151,364.091 394.818,364.757 395.5,365.5C 407.454,363.74 417.787,367.073 426.5,375.5C 429.186,373.144 431.853,370.811 434.5,368.5C 438.517,371.267 442.684,373.934 447,376.5C 444.908,391.462 449.408,403.962 460.5,414C 481.98,426.007 499.647,421.84 513.5,401.5C 516.529,402.84 519.529,404.173 522.5,405.5C 523.401,416.481 524.067,427.481 524.5,438.5C 516.792,436.376 509.125,434.042 501.5,431.5C 497.551,432.813 497.551,434.313 501.5,436C 510.024,438.756 518.524,441.589 527,444.5C 528.992,443.771 529.826,442.271 529.5,440C 528.763,435.863 528.429,431.697 528.5,427.5C 533.039,433.777 539.039,438.111 546.5,440.5C 538.299,460.9 525.299,477.566 507.5,490.5C 506.584,490.018 505.584,489.685 504.5,489.5C 499.21,491.43 493.876,493.264 488.5,495C 484.167,495.667 479.833,495.667 475.5,495C 467.435,489.773 460.101,483.607 453.5,476.5C 451.717,477.348 451.217,478.681 452,480.5C 457.904,487.074 464.404,492.908 471.5,498C 477.276,500.752 483.276,501.252 489.5,499.5C 489.64,505.536 489.307,511.536 488.5,517.5C 486.855,538.947 484.355,560.281 481,581.5C 450.64,555.302 420.474,528.968 390.5,502.5C 390.84,498.124 391.507,493.791 392.5,489.5C 397.922,471.574 402.922,453.574 407.5,435.5C 400.853,436.408 394.853,434.908 389.5,431C 375.735,416.676 371.568,399.843 377,380.5C 379.284,377.173 381.618,373.84 384,370.5C 387.579,368.487 390.746,366.154 393.5,363.5 Z"/></g>
<g><path style="opacity:1" fill="#1f2426" d="M 783.5,364.5 C 784.822,364.33 785.989,364.663 787,365.5C 787.667,374.167 787.667,382.833 787,391.5C 785.989,392.337 784.822,392.67 783.5,392.5C 783.5,383.167 783.5,373.833 783.5,364.5 Z"/></g>
<g><path style="opacity:1" fill="#595146" d="M 1431.5,374.5 C 1423.16,374.334 1414.83,374.5 1406.5,375C 1405.75,375.671 1405.41,376.504 1405.5,377.5C 1404.21,376.458 1404.21,375.292 1405.5,374C 1414.34,373.176 1423.01,373.343 1431.5,374.5 Z"/></g>
<g><path style="opacity:1" fill="#232829" d="M 479.5,371.5 C 486.549,370.718 493.216,371.885 499.5,375C 501.118,377.8 500.285,379.3 497,379.5C 494.679,379.091 492.513,378.257 490.5,377C 486.47,376.674 482.47,376.674 478.5,377C 477.243,374.924 477.576,373.09 479.5,371.5 Z"/></g>
<g><path style="opacity:1" fill="#1e2426" d="M 1431.5,374.5 C 1432.4,375.209 1432.74,376.209 1432.5,377.5C 1423.5,377.5 1414.5,377.5 1405.5,377.5C 1405.41,376.504 1405.75,375.671 1406.5,375C 1414.83,374.5 1423.16,374.334 1431.5,374.5 Z"/></g>
<g><path style="opacity:1" fill="#1e2427" d="M 1234.5,370.5 C 1235.5,370.414 1236.33,370.748 1237,371.5C 1237.67,380.167 1237.67,388.833 1237,397.5C 1235.99,398.337 1234.82,398.67 1233.5,398.5C 1233.19,389.083 1233.53,379.75 1234.5,370.5 Z"/></g>
<g><path style="opacity:1" fill="#25292a" d="M 1453.5,374.5 C 1464.35,375.893 1471.68,381.56 1475.5,391.5C 1471.22,389.752 1467.55,386.919 1464.5,383C 1460.95,381.059 1457.29,379.393 1453.5,378C 1452.32,376.855 1452.32,375.688 1453.5,374.5 Z"/></g>
<g><path style="opacity:1" fill="#fbd9ae" d="M 551.5,378.5 C 572.853,376.211 584.853,385.878 587.5,407.5C 584.547,430.139 571.88,439.805 549.5,436.5C 550.985,432.379 552.151,428.046 553,423.5C 554.165,412.857 554.999,402.19 555.5,391.5C 555.5,390.5 555.5,389.5 555.5,388.5C 555.833,385.167 556.167,381.833 556.5,378.5C 554.833,378.5 553.167,378.5 551.5,378.5 Z"/></g>
<g><path style="opacity:1" fill="#23282a" d="M 481.5,384.5 C 488.391,383.731 492.391,386.731 493.5,393.5C 491.445,403.781 485.945,406.448 477,401.5C 473.931,394.46 475.431,388.793 481.5,384.5 Z"/></g>
<g><path style="opacity:1" fill="#fdbf19" d="M 553.5,373.5 C 558.913,373.229 564.246,373.729 569.5,375C 588.699,384.566 595.532,399.732 590,420.5C 580.763,438.703 566.263,445.37 546.5,440.5C 539.039,438.111 533.039,433.777 528.5,427.5C 527.838,423.534 527.505,419.534 527.5,415.5C 530.227,422.424 534.561,428.257 540.5,433C 543.309,434.741 546.309,435.908 549.5,436.5C 571.88,439.805 584.547,430.139 587.5,407.5C 584.853,385.878 572.853,376.211 551.5,378.5C 547.703,378.872 544.37,380.206 541.5,382.5C 538.553,383.781 536.219,385.781 534.5,388.5C 529.68,393.827 527.346,400.16 527.5,407.5C 526.784,402.936 526.117,398.269 525.5,393.5C 531.232,381.764 540.566,375.098 553.5,373.5 Z"/></g>
<g><path style="opacity:1" fill="#272a2c" d="M 541.5,382.5 C 546.903,382.87 551.569,384.87 555.5,388.5C 555.5,389.5 555.5,390.5 555.5,391.5C 554.584,391.982 553.584,392.315 552.5,392.5C 547.061,388.967 541.061,387.633 534.5,388.5C 536.219,385.781 538.553,383.781 541.5,382.5 Z"/></g>
<g><path style="opacity:1" fill="#f3e6d7" d="M 551.5,378.5 C 553.167,378.5 554.833,378.5 556.5,378.5C 556.167,381.833 555.833,385.167 555.5,388.5C 551.569,384.87 546.903,382.87 541.5,382.5C 544.37,380.206 547.703,378.872 551.5,378.5 Z"/></g>
<g><path style="opacity:1" fill="#2b2d2d" d="M 894.5,388.5 C 895.822,388.33 896.989,388.663 898,389.5C 898.667,398.167 898.667,406.833 898,415.5C 896.989,416.337 895.822,416.67 894.5,416.5C 894.5,407.167 894.5,397.833 894.5,388.5 Z"/></g>
<g><path style="opacity:1" fill="#24292b" d="M 394.5,373.5 C 410.736,372.929 416.736,380.596 412.5,396.5C 401.547,398.949 397.38,405.616 400,416.5C 401.626,419.128 403.626,421.461 406,423.5C 406.301,426.091 405.134,426.925 402.5,426C 391.903,416.065 391.903,406.065 402.5,396C 404.65,394.589 406.984,393.755 409.5,393.5C 410.977,383.16 406.644,377.993 396.5,378C 393.156,379.894 391.822,382.727 392.5,386.5C 389.739,387.085 388.073,386.085 387.5,383.5C 388.379,379.05 390.713,375.717 394.5,373.5 Z"/></g>
<g><path style="opacity:1" fill="#2b2d2d" d="M 1007.5,400.5 C 1008.5,400.5 1009.5,400.5 1010.5,400.5C 1010.5,409.833 1010.5,419.167 1010.5,428.5C 1009.18,428.67 1008.01,428.337 1007,427.5C 1006.2,418.422 1006.36,409.422 1007.5,400.5 Z"/></g>
<g><path style="opacity:1" fill="#1f2527" d="M 1119.5,402.5 C 1120.5,402.5 1121.5,402.5 1122.5,402.5C 1122.5,411.833 1122.5,421.167 1122.5,430.5C 1121.18,430.67 1120.01,430.337 1119,429.5C 1118.2,420.422 1118.36,411.422 1119.5,402.5 Z"/></g>
<g><path style="opacity:1" fill="#f5e8d7" d="M 534.5,388.5 C 541.061,387.633 547.061,388.967 552.5,392.5C 553.584,392.315 554.584,391.982 555.5,391.5C 554.999,402.19 554.165,412.857 553,423.5C 552.151,428.046 550.985,432.379 549.5,436.5C 546.309,435.908 543.309,434.741 540.5,433C 534.561,428.257 530.227,422.424 527.5,415.5C 527.5,412.833 527.5,410.167 527.5,407.5C 527.346,400.16 529.68,393.827 534.5,388.5 Z"/></g>
<g><path style="opacity:1" fill="#23282b" d="M 537.5,396.5 C 546.991,396.493 550.824,401.159 549,410.5C 545.96,416.368 541.46,417.868 535.5,415C 529.795,408.077 530.462,401.911 537.5,396.5 Z"/></g>
<g><path style="opacity:1" fill="#1f2426" d="M 783.5,412.5 C 784.822,412.33 785.989,412.663 787,413.5C 787.667,422.167 787.667,430.833 787,439.5C 785.989,440.337 784.822,440.67 783.5,440.5C 783.5,431.167 783.5,421.833 783.5,412.5 Z"/></g>
<g><path style="opacity:1" fill="#febe04" d="M 1499.5,492.5 C 1498.83,492.5 1498.17,492.5 1497.5,492.5C 1476.35,493.51 1462.85,483.844 1457,463.5C 1455.03,437.643 1466.86,422.976 1492.5,419.5C 1518.56,422.625 1530.73,437.292 1529,463.5C 1524.55,478.782 1514.72,488.448 1499.5,492.5 Z"/></g>
<g><path style="opacity:1" fill="#1e2427" d="M 1234.5,418.5 C 1235.5,418.414 1236.33,418.748 1237,419.5C 1237.67,428.167 1237.67,436.833 1237,445.5C 1235.99,446.337 1234.82,446.67 1233.5,446.5C 1233.19,437.083 1233.53,427.75 1234.5,418.5 Z"/></g>
<g><path style="opacity:1" fill="#242829" d="M 525.5,393.5 C 526.117,398.269 526.784,402.936 527.5,407.5C 527.5,410.167 527.5,412.833 527.5,415.5C 527.505,419.534 527.838,423.534 528.5,427.5C 528.429,431.697 528.763,435.863 529.5,440C 529.826,442.271 528.992,443.771 527,444.5C 518.524,441.589 510.024,438.756 501.5,436C 497.551,434.313 497.551,432.813 501.5,431.5C 509.125,434.042 516.792,436.376 524.5,438.5C 524.067,427.481 523.401,416.481 522.5,405.5C 522.675,403.379 522.341,401.379 521.5,399.5C 521.338,397.473 521.505,395.473 522,393.5C 523.145,392.316 524.312,392.316 525.5,393.5 Z"/></g>
<g><path style="opacity:1" fill="#2b2d2d" d="M 894.5,436.5 C 895.822,436.33 896.989,436.663 898,437.5C 898.667,446.167 898.667,454.833 898,463.5C 896.989,464.337 895.822,464.67 894.5,464.5C 894.5,455.167 894.5,445.833 894.5,436.5 Z"/></g>
<g><path style="opacity:1" fill="#272b2c" d="M 470.5,431.5 C 481.583,435.872 492.583,440.539 503.5,445.5C 504.583,446.365 504.749,447.365 504,448.5C 496.253,460.123 486.42,462.29 474.5,455C 468.185,448.082 466.852,440.248 470.5,431.5 Z"/></g>
<g><path style="opacity:1" fill="#f2e6d7" d="M 472.5,436.5 C 481.916,439.711 490.916,443.711 499.5,448.5C 494.583,455.082 488.25,456.915 480.5,454C 473.387,450.271 470.721,444.438 472.5,436.5 Z"/></g>
<g><path style="opacity:1" fill="#292c2c" d="M 1315.5,442.5 C 1324.52,442.062 1327.19,445.895 1323.5,454C 1317.11,457.223 1313.11,455.389 1311.5,448.5C 1311.87,445.744 1313.2,443.744 1315.5,442.5 Z"/></g>
<g><path style="opacity:1" fill="#f0d2a9" d="M 1316.5,446.5 C 1320.14,445.737 1321.64,447.07 1321,450.5C 1316.42,452.413 1314.92,451.079 1316.5,446.5 Z"/></g>
<g><path style="opacity:1" fill="#25282a" d="M 1344.5,447.5 C 1352.12,445.637 1356.79,448.471 1358.5,456C 1356.41,464.377 1351.41,466.877 1343.5,463.5C 1339.28,457.856 1339.61,452.523 1344.5,447.5 Z"/></g>
<g><path style="opacity:1" fill="#eacca4" d="M 1347.5,450.5 C 1354.36,451.155 1356.02,454.322 1352.5,460C 1348,462.627 1345,461.461 1343.5,456.5C 1343.87,453.744 1345.2,451.744 1347.5,450.5 Z"/></g>
<g><path style="opacity:1" fill="#2c2f2e" d="M 1006.5,448.5 C 1007.83,448.5 1009.17,448.5 1010.5,448.5C 1010.5,457.833 1010.5,467.167 1010.5,476.5C 1009.18,476.67 1008.01,476.337 1007,475.5C 1006.5,466.506 1006.33,457.506 1006.5,448.5 Z"/></g>
<g><path style="opacity:1" fill="#1f2427" d="M 1119.5,450.5 C 1120.5,450.5 1121.5,450.5 1122.5,450.5C 1122.5,459.833 1122.5,469.167 1122.5,478.5C 1121.18,478.67 1120.01,478.337 1119,477.5C 1118.2,468.422 1118.36,459.422 1119.5,450.5 Z"/></g>
<g><path style="opacity:1" fill="#1f2426" d="M 783.5,460.5 C 784.822,460.33 785.989,460.663 787,461.5C 787.667,470.167 787.667,478.833 787,487.5C 785.989,488.337 784.822,488.67 783.5,488.5C 783.5,479.167 783.5,469.833 783.5,460.5 Z"/></g>
<g><path style="opacity:1" fill="#1e2427" d="M 1234.5,466.5 C 1235.5,466.414 1236.33,466.748 1237,467.5C 1237.67,476.167 1237.67,484.833 1237,493.5C 1235.99,494.337 1234.82,494.67 1233.5,494.5C 1233.19,485.083 1233.53,475.75 1234.5,466.5 Z"/></g>
<g><path style="opacity:1" fill="#26292a" d="M 1348.5,475.5 C 1350.62,476.031 1352.12,477.365 1353,479.5C 1357.22,486.107 1361.05,492.94 1364.5,500C 1360.45,508.696 1355.62,516.863 1350,524.5C 1348.74,524.241 1347.74,523.574 1347,522.5C 1342.82,514.99 1338.65,507.49 1334.5,500C 1339.05,491.741 1343.71,483.574 1348.5,475.5 Z"/></g>
<g><path style="opacity:1" fill="#25282a" d="M 1314.5,470.5 C 1325.38,469.209 1329.88,473.876 1328,484.5C 1325.08,490.025 1320.58,491.858 1314.5,490C 1308.98,487.081 1307.14,482.581 1309,476.5C 1310.36,473.977 1312.19,471.977 1314.5,470.5 Z"/></g>
<g><path style="opacity:1" fill="#f3d4aa" d="M 1316.5,473.5 C 1322.66,473.487 1325.49,476.487 1325,482.5C 1322.95,486.292 1319.78,487.458 1315.5,486C 1311.29,481.361 1311.62,477.195 1316.5,473.5 Z"/></g>
<g><path style="opacity:1" fill="#2b2d2d" d="M 894.5,484.5 C 895.822,484.33 896.989,484.663 898,485.5C 898.667,494.167 898.667,502.833 898,511.5C 896.989,512.337 895.822,512.67 894.5,512.5C 894.5,503.167 894.5,493.833 894.5,484.5 Z"/></g>
<g><path style="opacity:1" fill="#25292b" d="M 507.5,490.5 C 507.489,492.017 506.823,493.184 505.5,494C 500.021,495.77 494.687,497.603 489.5,499.5C 483.276,501.252 477.276,500.752 471.5,498C 464.404,492.908 457.904,487.074 452,480.5C 451.217,478.681 451.717,477.348 453.5,476.5C 460.101,483.607 467.435,489.773 475.5,495C 479.833,495.667 484.167,495.667 488.5,495C 493.876,493.264 499.21,491.43 504.5,489.5C 505.584,489.685 506.584,490.018 507.5,490.5 Z"/></g>
<g><path style="opacity:1" fill="#f6d6ab" d="M 1348.5,482.5 C 1349.5,482.414 1350.33,482.748 1351,483.5C 1354.25,488.825 1357.08,494.325 1359.5,500C 1356.83,506.505 1353.5,512.672 1349.5,518.5C 1345.71,512.416 1342.04,506.249 1338.5,500C 1341.98,494.193 1345.32,488.36 1348.5,482.5 Z"/></g>
<g><path style="opacity:1" fill="#febd01" d="M 390.5,502.5 C 420.474,528.968 450.64,555.302 481,581.5C 484.355,560.281 486.855,538.947 488.5,517.5C 489.492,517.328 490.158,517.662 490.5,518.5C 490.343,519.873 490.51,521.207 491,522.5C 503.488,534.127 508.988,548.461 507.5,565.5C 502.875,562.76 497.875,561.427 492.5,561.5C 491.74,571.244 490.407,580.911 488.5,590.5C 488.188,593.708 489.355,594.708 492,593.5C 493.234,584.022 495.067,574.689 497.5,565.5C 503.115,566.887 507.615,569.887 511,574.5C 511.772,574.355 512.439,574.022 513,573.5C 514.212,556.956 510.545,541.622 502,527.5C 499.706,524.527 497.206,521.86 494.5,519.5C 514.187,525.173 533.853,531.006 553.5,537C 581.99,547.155 599.49,566.989 606,596.5C 612.076,644.211 618.41,691.878 625,739.5C 625.318,741.061 626.151,742.228 627.5,743C 636.079,745.645 644.746,747.978 653.5,750C 633.662,750.168 613.996,750.668 594.5,751.5C 588.995,752.333 583.995,754.333 579.5,757.5C 574.582,715.159 569.582,672.826 564.5,630.5C 563.167,630.5 561.833,630.5 560.5,630.5C 565.195,673.198 570.195,715.865 575.5,758.5C 575.489,760.017 574.823,761.184 573.5,762C 560.563,769.94 547.896,778.274 535.5,787C 517.137,790.772 498.804,794.606 480.5,798.5C 479.774,795.821 478.941,793.154 478,790.5C 476.938,789.903 475.772,789.57 474.5,789.5C 425.447,798.064 376.447,806.731 327.5,815.5C 332.928,762.181 338.261,708.848 343.5,655.5C 342.167,655.5 340.833,655.5 339.5,655.5C 333.919,709.144 328.586,762.811 323.5,816.5C 306.818,819.169 290.151,822.002 273.5,825C 272.663,826.011 272.33,827.178 272.5,828.5C 340.172,817.166 407.839,805.833 475.5,794.5C 482.44,821.091 489.773,847.591 497.5,874C 497.167,874.5 496.833,875 496.5,875.5C 431.174,896.219 365.841,917.053 300.5,938C 299.159,939.826 299.659,940.993 302,941.5C 367.866,920.655 433.699,899.822 499.5,879C 500.624,878.161 501.291,876.994 501.5,875.5C 501.272,873.793 500.938,872.126 500.5,870.5C 509.297,868.068 518.13,865.735 527,863.5C 553.847,869.815 575.68,862.148 592.5,840.5C 597.551,844.23 602.217,848.23 606.5,852.5C 612.911,901.456 618.911,950.456 624.5,999.5C 618.566,1025.68 612.066,1051.68 605,1077.5C 591.969,1060.98 578.803,1044.65 565.5,1028.5C 565.262,1026.6 564.262,1025.26 562.5,1024.5C 557.538,1017.43 552.204,1010.59 546.5,1004C 545.833,1003.33 545.167,1003.33 544.5,1004C 516.583,1029.09 488.249,1053.59 459.5,1077.5C 404.252,1053.97 348.918,1030.64 293.5,1007.5C 293.872,985.929 294.539,964.429 295.5,943C 260.922,946.954 233.756,934.788 214,906.5C 203.991,889.063 200.658,870.396 204,850.5C 210.253,783.881 215.753,717.214 220.5,650.5C 220.155,620.548 227.321,592.548 242,566.5C 251.559,549.603 265.392,537.77 283.5,531C 318.271,521.11 352.937,510.944 387.5,500.5C 388.739,500.942 389.739,501.609 390.5,502.5 Z"/></g>
<g><path style="opacity:1" fill="#1f2427" d="M 1119.5,498.5 C 1120.5,498.5 1121.5,498.5 1122.5,498.5C 1122.5,507.833 1122.5,517.167 1122.5,526.5C 1121.18,526.67 1120.01,526.337 1119,525.5C 1118.2,516.422 1118.36,507.422 1119.5,498.5 Z"/></g>
<g><path style="opacity:1" fill="#1f2426" d="M 783.5,508.5 C 784.822,508.33 785.989,508.663 787,509.5C 787.667,518.167 787.667,526.833 787,535.5C 785.989,536.337 784.822,536.67 783.5,536.5C 783.5,527.167 783.5,517.833 783.5,508.5 Z"/></g>
<g><path style="opacity:1" fill="#2f3130" d="M 1006.5,496.5 C 1007.83,496.5 1009.17,496.5 1010.5,496.5C 1010.67,505.506 1010.5,514.506 1010,523.5C 1007.2,525.118 1005.7,524.285 1005.5,521C 1006.42,512.865 1006.76,504.698 1006.5,496.5 Z"/></g>
<g><path style="opacity:1" fill="#1e2427" d="M 1234.5,514.5 C 1235.5,514.414 1236.33,514.748 1237,515.5C 1237.67,524.167 1237.67,532.833 1237,541.5C 1235.99,542.337 1234.82,542.67 1233.5,542.5C 1233.19,533.083 1233.53,523.75 1234.5,514.5 Z"/></g>
<g><path style="opacity:1" fill="#252727" d="M 383.5,503.5 C 384.833,503.5 386.167,503.5 387.5,503.5C 387.001,533.511 396.668,559.677 416.5,582C 417.483,582.591 418.15,582.257 418.5,581C 423.64,568.432 432.973,562.432 446.5,563C 457.5,571.333 468.5,579.667 479.5,588C 481.607,589.264 482.607,591.097 482.5,593.5C 481.127,593.657 479.793,593.49 478.5,593C 467.833,584.667 457.167,576.333 446.5,568C 437.643,566.071 430.477,568.905 425,576.5C 422.424,580.475 420.924,584.808 420.5,589.5C 419.127,589.657 417.793,589.49 416.5,589C 400.335,571.505 389.835,551.005 385,527.5C 383.777,519.547 383.277,511.547 383.5,503.5 Z"/></g>
<g><path style="opacity:1" fill="#25282a" d="M 898.5,532.5 C 899.978,532.238 901.311,532.571 902.5,533.5C 905.641,540.806 910.141,547.139 916,552.5C 916.301,555.091 915.134,555.925 912.5,555C 905.916,548.658 901.249,541.158 898.5,532.5 Z"/></g>
<g><path style="opacity:1" fill="#272a2b" d="M 997.5,542.5 C 998.5,542.5 999.5,542.5 1000.5,542.5C 1000.66,543.873 1000.49,545.207 1000,546.5C 994.941,553.113 988.774,558.446 981.5,562.5C 979.51,561.537 979.177,560.204 980.5,558.5C 987.474,554.526 993.14,549.192 997.5,542.5 Z"/></g>
<g><path style="opacity:1" fill="#232729" d="M 1119.5,546.5 C 1120.5,546.5 1121.5,546.5 1122.5,546.5C 1122.33,550.846 1122.5,555.179 1123,559.5C 1124.49,564.108 1125.65,568.774 1126.5,573.5C 1125.17,573.5 1123.83,573.5 1122.5,573.5C 1121.18,568.555 1120.01,563.555 1119,558.5C 1118.24,554.413 1118.4,550.413 1119.5,546.5 Z"/></g>
<g><path style="opacity:1" fill="#1f2426" d="M 783.5,556.5 C 784.822,556.33 785.989,556.663 787,557.5C 787.667,566.167 787.667,574.833 787,583.5C 785.989,584.337 784.822,584.67 783.5,584.5C 783.5,575.167 783.5,565.833 783.5,556.5 Z"/></g>
<g><path style="opacity:1" fill="#272a2b" d="M 1497.5,492.5 C 1498.17,492.5 1498.83,492.5 1499.5,492.5C 1500.67,512.627 1497.34,531.961 1489.5,550.5C 1486.83,557.176 1483.17,563.176 1478.5,568.5C 1477.42,567.635 1477.25,566.635 1478,565.5C 1481.9,560.358 1484.74,554.691 1486.5,548.5C 1494.55,530.842 1498.22,512.176 1497.5,492.5 Z"/></g>
<g><path style="opacity:1" fill="#272826" d="M 490.5,518.5 C 491.959,518.433 493.292,518.766 494.5,519.5C 497.206,521.86 499.706,524.527 502,527.5C 510.545,541.622 514.212,556.956 513,573.5C 512.439,574.022 511.772,574.355 511,574.5C 507.615,569.887 503.115,566.887 497.5,565.5C 495.067,574.689 493.234,584.022 492,593.5C 489.355,594.708 488.188,593.708 488.5,590.5C 490.407,580.911 491.74,571.244 492.5,561.5C 497.875,561.427 502.875,562.76 507.5,565.5C 508.988,548.461 503.488,534.127 491,522.5C 490.51,521.207 490.343,519.873 490.5,518.5 Z"/></g>
<g><path style="opacity:1" fill="#292c2d" d="M 933.5,563.5 C 942.076,565.033 950.742,565.866 959.5,566C 960.337,567.011 960.67,568.178 960.5,569.5C 953.492,569.666 946.492,569.5 939.5,569C 937.392,568.64 935.392,567.973 933.5,567C 932.316,565.855 932.316,564.688 933.5,563.5 Z"/></g>
<g><path style="opacity:1" fill="#222729" d="M 1232.5,562.5 C 1233.5,562.5 1234.5,562.5 1235.5,562.5C 1234.38,571.412 1231.04,579.412 1225.5,586.5C 1224.31,587.429 1222.98,587.762 1221.5,587.5C 1225.96,579.576 1229.63,571.243 1232.5,562.5 Z"/></g>
<g><path style="opacity:1" fill="#272a2b" d="M 667.5,563.5 C 677.158,561.993 681.325,565.993 680,575.5C 675.55,582.654 670.217,583.32 664,577.5C 661.236,571.691 662.403,567.025 667.5,563.5 Z"/></g>
<g><path style="opacity:1" fill="#f2d3a9" d="M 669.5,566.5 C 674.813,566.644 676.979,569.31 676,574.5C 673.048,578.482 670.048,578.482 667,574.5C 666.018,571.225 666.851,568.559 669.5,566.5 Z"/></g>
<g><path style="opacity:1" fill="#282b2c" d="M 630.5,571.5 C 637.141,571.639 639.974,574.972 639,581.5C 635.219,586.201 631.219,586.534 627,582.5C 625.518,577.774 626.685,574.107 630.5,571.5 Z"/></g>
<g><path style="opacity:1" fill="#e9cca4" d="M 631.5,575.5 C 635.35,575.701 636.35,577.534 634.5,581C 629.722,581.073 628.722,579.24 631.5,575.5 Z"/></g>
<g><path style="opacity:1" fill="#f5e9d9" d="M 1486.5,548.5 C 1484.74,554.691 1481.9,560.358 1478,565.5C 1477.25,566.635 1477.42,567.635 1478.5,568.5C 1483.17,563.176 1486.83,557.176 1489.5,550.5C 1494.1,549.815 1498.76,549.982 1503.5,551C 1512.74,553.324 1522.08,555.324 1531.5,557C 1539.21,560.573 1547.21,563.573 1555.5,566C 1562.17,570.337 1569.17,574.17 1576.5,577.5C 1616.91,602.286 1644.41,637.286 1659,682.5C 1664.84,708.644 1663.51,734.311 1655,759.5C 1650.14,767.098 1645.48,774.765 1641,782.5C 1635.47,787.035 1630.3,791.869 1625.5,797C 1626.51,798.168 1627.51,799.335 1628.5,800.5C 1635.84,804.114 1642.84,808.28 1649.5,813C 1656.11,818.607 1662.44,824.607 1668.5,831C 1669.45,831.483 1670.45,831.649 1671.5,831.5C 1672.96,835.321 1675.3,838.654 1678.5,841.5C 1680.03,843.289 1681.03,845.289 1681.5,847.5C 1682.68,847.281 1683.68,847.614 1684.5,848.5C 1722.37,901.338 1733.53,959.672 1718,1023.5C 1706.8,1057.69 1695.13,1091.69 1683,1125.5C 1672.32,1148.04 1657.49,1167.37 1638.5,1183.5C 1631.17,1188.5 1623.83,1193.5 1616.5,1198.5C 1609.14,1201.23 1601.81,1204.06 1594.5,1207C 1573.4,1211.87 1552.06,1212.87 1530.5,1210C 1521.43,1207.53 1512.43,1204.87 1503.5,1202C 1492.86,1196.01 1482.19,1190.01 1471.5,1184C 1454.11,1169.12 1437.44,1153.28 1421.5,1136.5C 1417.14,1134.96 1414.48,1131.96 1413.5,1127.5C 1412.02,1127.76 1410.69,1127.43 1409.5,1126.5C 1401.52,1117.85 1393.18,1109.52 1384.5,1101.5C 1382.97,1099.71 1381.97,1097.71 1381.5,1095.5C 1380.32,1095.72 1379.32,1095.39 1378.5,1094.5C 1373.01,1088.17 1368.51,1081.17 1365,1073.5C 1358.96,1067.77 1354.96,1060.77 1353,1052.5C 1352,1051.17 1351,1049.83 1350,1048.5C 1348.19,1043.23 1346.69,1037.89 1345.5,1032.5C 1436.27,1060.66 1522.61,1050.66 1604.5,1002.5C 1629.52,1016.87 1651.69,1013.2 1671,991.5C 1689.85,963.701 1692.52,934.368 1679,903.5C 1666.93,880.049 1647.76,869.549 1621.5,872C 1605.45,876.772 1593.62,886.606 1586,901.5C 1579.53,913.7 1576.37,926.7 1576.5,940.5C 1508.86,983.788 1436.86,992.622 1360.5,967C 1351.6,963.645 1342.93,959.812 1334.5,955.5C 1334.78,941.624 1336.61,927.957 1340,914.5C 1344.31,903.893 1348.31,893.227 1352,882.5C 1356.94,872.938 1362.61,863.938 1369,855.5C 1376.16,847.337 1383.66,839.504 1391.5,832C 1393.3,831.028 1394.97,829.861 1396.5,828.5C 1385.73,825.033 1374.73,822.2 1363.5,820C 1349.71,814.703 1336.38,808.37 1323.5,801C 1302.21,785.15 1288.38,764.317 1282,738.5C 1281.19,733.98 1281.35,729.646 1282.5,725.5C 1291.77,739.139 1304.1,748.973 1319.5,755C 1361.18,770.243 1403.85,773.576 1447.5,765C 1545.19,749.777 1579.52,694.944 1550.5,600.5C 1478.83,600.5 1407.17,600.5 1335.5,600.5C 1345.58,593.268 1355.58,585.768 1365.5,578C 1402.76,556.442 1443.09,546.608 1486.5,548.5 Z"/></g>
<g><path style="opacity:1" fill="#25282a" d="M 1136.5,589.5 C 1137.55,589.351 1138.55,589.517 1139.5,590C 1145.26,595.583 1151.92,599.75 1159.5,602.5C 1160.39,603.325 1160.72,604.325 1160.5,605.5C 1150.76,604.212 1142.59,599.878 1136,592.5C 1135.53,591.423 1135.7,590.423 1136.5,589.5 Z"/></g>
<g><path style="opacity:1" fill="#26292a" d="M 638.5,598.5 C 649.453,598.745 653.287,604.078 650,614.5C 646.257,618.259 641.757,619.426 636.5,618C 630.818,614.469 629.318,609.635 632,603.5C 633.805,601.174 635.972,599.508 638.5,598.5 Z"/></g>
<g><path style="opacity:1" fill="#febe03" d="M 1335.5,600.5 C 1407.17,600.5 1478.83,600.5 1550.5,600.5C 1579.52,694.944 1545.19,749.777 1447.5,765C 1403.85,773.576 1361.18,770.243 1319.5,755C 1304.1,748.973 1291.77,739.139 1282.5,725.5C 1280.97,722.229 1280.31,718.729 1280.5,715C 1282.33,683.144 1292.5,654.311 1311,628.5C 1319,618.999 1327.17,609.666 1335.5,600.5 Z"/></g>
<g><path style="opacity:1" fill="#25292a" d="M 1203.5,598.5 C 1204.5,598.5 1205.5,598.5 1206.5,598.5C 1206.71,600.144 1206.38,601.644 1205.5,603C 1197.37,607.365 1188.71,609.199 1179.5,608.5C 1179.33,607.178 1179.66,606.011 1180.5,605C 1188.91,605.027 1196.58,602.86 1203.5,598.5 Z"/></g>
<g><path style="opacity:1" fill="#1f2426" d="M 783.5,604.5 C 784.822,604.33 785.989,604.663 787,605.5C 787.667,614.167 787.667,622.833 787,631.5C 785.989,632.337 784.822,632.67 783.5,632.5C 783.5,623.167 783.5,613.833 783.5,604.5 Z"/></g>
<g><path style="opacity:1" fill="#f0d2a8" d="M 637.5,602.5 C 646.745,601.899 649.411,605.732 645.5,614C 638.388,616.554 634.888,614.054 635,606.5C 635.662,605.016 636.496,603.683 637.5,602.5 Z"/></g>
<g><path style="opacity:1" fill="#26292a" d="M 687.5,591.5 C 689.017,591.511 690.184,592.177 691,593.5C 696.634,603.269 702.134,613.102 707.5,623C 701.959,633.924 695.792,644.424 689,654.5C 687.233,653.66 685.899,652.327 685,650.5C 679.817,641.323 674.65,632.157 669.5,623C 675.631,612.57 681.631,602.07 687.5,591.5 Z"/></g>
<g><path style="opacity:1" fill="#f8d7ac" d="M 687.5,598.5 C 688.496,598.414 689.329,598.748 690,599.5C 694.626,607.252 699.126,615.085 703.5,623C 698.793,631.581 693.96,640.081 689,648.5C 683.929,640.273 679.096,631.939 674.5,623.5C 678.586,614.992 682.92,606.659 687.5,598.5 Z"/></g>
<g><path style="opacity:1" fill="#febe06" d="M 1113.5,630.5 C 1129.2,628.718 1139.03,635.385 1143,650.5C 1144.2,665.633 1137.37,674.799 1122.5,678C 1109.33,678.828 1100.5,672.995 1096,660.5C 1093.89,645.714 1099.72,635.714 1113.5,630.5 Z"/></g>
<g><path style="opacity:1" fill="#f6e9d9" d="M 1329.5,630.5 C 1347.7,628.87 1359.2,636.87 1364,654.5C 1367.03,672.937 1360.2,686.104 1343.5,694C 1325.68,696.184 1314.18,688.684 1309,671.5C 1305.3,652.229 1312.13,638.563 1329.5,630.5 Z"/></g>
<g><path style="opacity:1" fill="#f6e9d9" d="M 1428.5,630.5 C 1446.44,629.22 1457.94,637.22 1463,654.5C 1466.11,673.462 1458.94,686.629 1441.5,694C 1424.19,695.7 1413.03,688.2 1408,671.5C 1404.65,652.445 1411.48,638.779 1428.5,630.5 Z"/></g>
<g><path style="opacity:1" fill="#febe09" d="M 1015.5,630.5 C 1016.83,630.5 1018.17,630.5 1019.5,630.5C 1020.17,633.5 1020.83,636.5 1021.5,639.5C 1028.53,639.83 1035.53,639.497 1042.5,638.5C 1043.48,635.904 1044.15,633.238 1044.5,630.5C 1053.5,632.003 1061.5,635.669 1068.5,641.5C 1066.88,644.45 1064.88,647.116 1062.5,649.5C 1067.59,654.414 1072.09,659.747 1076,665.5C 1078.59,664.303 1081.26,663.303 1084,662.5C 1086.45,665.731 1088.11,669.397 1089,673.5C 1089.83,678.137 1090.33,682.804 1090.5,687.5C 1087.17,687.5 1083.83,687.5 1080.5,687.5C 1080.09,694.484 1078.42,701.15 1075.5,707.5C 1078.14,709.653 1081.14,710.987 1084.5,711.5C 1081.36,719.596 1076.36,726.429 1069.5,732C 1068.83,732.667 1068.17,732.667 1067.5,732C 1066.02,729.357 1064.02,727.19 1061.5,725.5C 1055.97,729.266 1049.97,731.933 1043.5,733.5C 1044.11,737.135 1044.45,740.802 1044.5,744.5C 1036.16,745.792 1027.83,745.792 1019.5,744.5C 1019.94,740.846 1020.28,737.179 1020.5,733.5C 1014.03,731.933 1008.03,729.266 1002.5,725.5C 999.939,727.64 997.605,729.973 995.5,732.5C 989.057,726.724 983.724,720.057 979.5,712.5C 982.807,711.125 985.807,709.292 988.5,707C 985.819,700.776 984.486,694.276 984.5,687.5C 980.833,687.5 977.167,687.5 973.5,687.5C 973.484,679.082 975.317,671.082 979,663.5C 979.561,662.978 980.228,662.645 981,662.5C 983.695,664.114 986.528,664.948 989.5,665C 992.643,659.236 996.643,654.07 1001.5,649.5C 1000.24,647.321 998.743,645.321 997,643.5C 996.333,642.5 996.333,641.5 997,640.5C 1002.78,636.308 1008.94,632.975 1015.5,630.5 Z"/></g>
<g><path style="opacity:1" fill="#1f2428" d="M 819.5,758.5 C 818.778,758.918 818.278,759.584 818,760.5C 810.787,757.144 803.621,753.644 796.5,750C 784.994,749.34 779.661,754.84 780.5,766.5C 792.868,770.851 804.535,776.518 815.5,783.5C 815.5,784.167 815.5,784.833 815.5,785.5C 813.801,785.66 812.134,785.494 810.5,785C 799.351,779.342 788.185,773.842 777,768.5C 765.751,772.064 762.251,779.397 766.5,790.5C 779.282,795.725 791.615,801.725 803.5,808.5C 803.443,809.609 803.11,810.609 802.5,811.5C 789.824,805.495 777.158,799.495 764.5,793.5C 754.584,796.661 750.918,803.328 753.5,813.5C 767.011,819.992 780.345,826.658 793.5,833.5C 793.443,834.609 793.11,835.609 792.5,836.5C 779.29,830.896 766.29,824.73 753.5,818C 744.514,819.083 740.681,824.25 742,833.5C 743.343,837.51 745.509,841.01 748.5,844C 753.735,846.785 759.068,849.285 764.5,851.5C 764.804,852.15 765.137,852.817 765.5,853.5C 762.333,859.167 759.167,864.833 756,870.5C 753.833,874 751,876.833 747.5,879C 726.215,880.145 704.882,880.645 683.5,880.5C 663.5,880.333 643.5,880.167 623.5,880C 611.605,873.816 608.605,864.649 614.5,852.5C 617.488,847.194 620.488,841.861 623.5,836.5C 616.392,830.106 609.059,823.939 601.5,818C 599.845,816.556 599.178,814.722 599.5,812.5C 600.552,812.351 601.552,812.517 602.5,813C 610.022,819.356 617.689,825.523 625.5,831.5C 629.32,826.539 632.653,821.206 635.5,815.5C 629.469,809.303 622.969,803.636 616,798.5C 615.217,796.681 615.717,795.348 617.5,794.5C 624.455,799.453 631.122,804.787 637.5,810.5C 641.933,804.638 645.599,798.305 648.5,791.5C 651.323,787.864 653.656,783.864 655.5,779.5C 661.591,770.323 666.924,760.657 671.5,750.5C 691.145,717.221 710.312,683.554 729,649.5C 731.833,644 736,639.833 741.5,637C 782.167,636.333 822.833,636.333 863.5,637C 874.165,641.974 877.665,650.14 874,661.5C 855.809,693.888 837.643,726.221 819.5,758.5 Z"/></g>
<g><path style="opacity:1" fill="#292d2f" d="M 1571.5,582.5 C 1573.02,582.511 1574.18,583.177 1575,584.5C 1625.78,649.519 1635.12,720.185 1603,796.5C 1601.47,800.29 1599.3,803.624 1596.5,806.5C 1595.42,805.635 1595.25,804.635 1596,803.5C 1620.89,754.296 1625.22,703.296 1609,650.5C 1600.52,626.522 1588.18,604.855 1572,585.5C 1571.52,584.552 1571.35,583.552 1571.5,582.5 Z"/></g>
<g><path style="opacity:1" fill="#fbd9ae" d="M 1023.5,656.5 C 1051.49,654.654 1064.65,667.654 1063,695.5C 1056.83,713.34 1044.33,721.174 1025.5,719C 1007.27,713.099 999.103,700.599 1001,681.5C 1004.52,669.486 1012.02,661.153 1023.5,656.5 Z"/></g>
<g><path style="opacity:1" fill="#272926" d="M 579.5,757.5 C 578.335,759.109 577.001,759.443 575.5,758.5C 570.195,715.865 565.195,673.198 560.5,630.5C 561.833,630.5 563.167,630.5 564.5,630.5C 569.582,672.826 574.582,715.159 579.5,757.5 Z"/></g>
<g><path style="opacity:1" fill="#febe04" d="M 1151.5,687.5 C 1164.47,687.038 1177.14,688.705 1189.5,692.5C 1187.7,698.574 1185.7,704.574 1183.5,710.5C 1197.03,716.017 1208.53,724.35 1218,735.5C 1223.6,732.239 1228.93,728.572 1234,724.5C 1245.52,740.217 1251.35,757.884 1251.5,777.5C 1244.83,777.5 1238.17,777.5 1231.5,777.5C 1231.4,792.427 1227.06,805.927 1218.5,818C 1223.42,821.713 1228.26,825.546 1233,829.5C 1233.32,830.908 1232.98,832.241 1232,833.5C 1220.57,847.797 1206.07,857.464 1188.5,862.5C 1187.24,856.38 1185.57,850.38 1183.5,844.5C 1176.52,845.717 1169.52,846.717 1162.5,847.5C 1154.75,847.042 1147.09,846.042 1139.5,844.5C 1138.11,849.844 1136.61,855.177 1135,860.5C 1134.48,861.516 1133.65,862.182 1132.5,862.5C 1115.78,856.896 1101.95,847.23 1091,833.5C 1090.02,832.241 1089.68,830.908 1090,829.5C 1095.14,826.019 1099.97,822.186 1104.5,818C 1096.24,805.811 1092.24,792.311 1092.5,777.5C 1085.83,777.5 1079.17,777.5 1072.5,777.5C 1071.41,757.82 1077.08,740.487 1089.5,725.5C 1094.81,728.972 1099.97,732.639 1105,736.5C 1114.24,724.642 1125.74,715.808 1139.5,710C 1137.28,703.972 1135.62,697.805 1134.5,691.5C 1140.28,690.148 1145.95,688.815 1151.5,687.5 Z"/></g>
<g><path style="opacity:1" fill="#2d2c26" d="M 1349.5,702.5 C 1350.5,702.5 1351.5,702.5 1352.5,702.5C 1353.06,717.56 1360.89,724.893 1376,724.5C 1390.53,724.975 1398.53,717.975 1400,703.5C 1400.41,703.043 1400.91,702.709 1401.5,702.5C 1401.68,718.988 1393.35,727.321 1376.5,727.5C 1359.49,727.829 1350.49,719.495 1349.5,702.5 Z"/></g>
<g><path style="opacity:1" fill="#fbd9ae" d="M 1155.5,735.5 C 1179.71,734.895 1194.88,746.229 1201,769.5C 1202.44,792.795 1191.94,807.629 1169.5,814C 1145.5,816.648 1130,806.482 1123,783.5C 1120.17,758.173 1131.01,742.173 1155.5,735.5 Z"/></g>
<g><path style="opacity:1" fill="#f3e7d8" d="M 819.5,758.5 C 820.692,761.562 822.192,764.562 824,767.5C 825.302,775.031 822.469,780.364 815.5,783.5C 804.535,776.518 792.868,770.851 780.5,766.5C 779.661,754.84 784.994,749.34 796.5,750C 803.621,753.644 810.787,757.144 818,760.5C 818.278,759.584 818.778,758.918 819.5,758.5 Z"/></g>
<g><path style="opacity:1" fill="#f5e9d9" d="M 671.5,750.5 C 666.924,760.657 661.591,770.323 655.5,779.5C 654.903,778.861 654.07,778.528 653,778.5C 647.127,779.094 641.294,779.928 635.5,781C 640.269,784.04 644.603,787.54 648.5,791.5C 645.599,798.305 641.933,804.638 637.5,810.5C 631.122,804.787 624.455,799.453 617.5,794.5C 615.717,795.348 615.217,796.681 616,798.5C 622.969,803.636 629.469,809.303 635.5,815.5C 632.653,821.206 629.32,826.539 625.5,831.5C 617.689,825.523 610.022,819.356 602.5,813C 601.552,812.517 600.552,812.351 599.5,812.5C 599.178,814.722 599.845,816.556 601.5,818C 609.059,823.939 616.392,830.106 623.5,836.5C 620.488,841.861 617.488,847.194 614.5,852.5C 611.833,852.5 609.167,852.5 606.5,852.5C 602.217,848.23 597.551,844.23 592.5,840.5C 575.68,862.148 553.847,869.815 527,863.5C 518.13,865.735 509.297,868.068 500.5,870.5C 493.519,846.577 486.853,822.577 480.5,798.5C 498.804,794.606 517.137,790.772 535.5,787C 547.896,778.274 560.563,769.94 573.5,762C 574.823,761.184 575.489,760.017 575.5,758.5C 577.001,759.443 578.335,759.109 579.5,757.5C 583.995,754.333 588.995,752.333 594.5,751.5C 620.176,751.658 645.842,751.325 671.5,750.5 Z"/></g>
<g><path style="opacity:1" fill="#f3e8d8" d="M 815.5,785.5 C 816.931,787.189 817.764,789.189 818,791.5C 818.87,802.121 814.037,807.788 803.5,808.5C 791.615,801.725 779.282,795.725 766.5,790.5C 762.251,779.397 765.751,772.064 777,768.5C 788.185,773.842 799.351,779.342 810.5,785C 812.134,785.494 813.801,785.66 815.5,785.5 Z"/></g>
<g><path style="opacity:1" fill="#fbbd16" d="M 655.5,779.5 C 653.656,783.864 651.323,787.864 648.5,791.5C 644.603,787.54 640.269,784.04 635.5,781C 641.294,779.928 647.127,779.094 653,778.5C 654.07,778.528 654.903,778.861 655.5,779.5 Z"/></g>
<g><path style="opacity:1" fill="#f3e8d8" d="M 802.5,811.5 C 803.458,811.953 804.292,812.619 805,813.5C 807.61,824.024 803.777,830.691 793.5,833.5C 780.345,826.658 767.011,819.992 753.5,813.5C 750.918,803.328 754.584,796.661 764.5,793.5C 777.158,799.495 789.824,805.495 802.5,811.5 Z"/></g>
<g><path style="opacity:1" fill="#febd04" d="M 1053.5,873.5 C 1053.93,882.636 1053.1,891.636 1051,900.5C 1044.5,911.109 1035.67,913.609 1024.5,908C 1016.51,900.376 1014.51,891.376 1018.5,881C 1018.44,878.413 1018.11,875.913 1017.5,873.5C 1011.7,850.498 996.87,838.498 973,837.5C 951.125,840.173 937.625,852.173 932.5,873.5C 930.884,888.605 922.551,894.771 907.5,892C 899.864,888.232 896.197,882.066 896.5,873.5C 902.355,835.476 924.022,811.976 961.5,803C 1004.44,798.991 1033.94,816.824 1050,856.5C 1051.36,862.15 1052.53,867.817 1053.5,873.5 Z"/></g>
<g><path style="opacity:1" fill="#1f2428" d="M 1605.5,808.5 C 1606.5,808.5 1607.5,808.5 1608.5,808.5C 1607.44,821.417 1601.77,831.917 1591.5,840C 1564.55,859.884 1534.55,873.217 1501.5,880C 1470.36,888.386 1439.03,889.386 1407.5,883C 1398.14,880.574 1390.31,875.741 1384,868.5C 1379.28,856.88 1381.28,846.546 1390,837.5C 1392.83,834.667 1395.67,831.833 1398.5,829C 1412.43,830.497 1426.43,831.831 1440.5,833C 1482.26,835.52 1523.59,832.52 1564.5,824C 1578.88,820.466 1592.55,815.299 1605.5,808.5 Z"/></g>
<g><path style="opacity:1" fill="#f3e8d8" d="M 792.5,836.5 C 793.893,838.511 794.56,840.845 794.5,843.5C 793.328,848.006 790.994,851.84 787.5,855C 779.109,857.482 771.442,856.315 764.5,851.5C 759.068,849.285 753.735,846.785 748.5,844C 745.509,841.01 743.343,837.51 742,833.5C 740.681,824.25 744.514,819.083 753.5,818C 766.29,824.73 779.29,830.896 792.5,836.5 Z"/></g>
<g><path style="opacity:1" fill="#f7d6ab" d="M 1017.5,873.5 C 989.167,873.5 960.833,873.5 932.5,873.5C 937.625,852.173 951.125,840.173 973,837.5C 996.87,838.498 1011.7,850.498 1017.5,873.5 Z"/></g>
<g><path style="opacity:1" fill="#fdbd06" d="M 1604.5,1002.5 C 1626.18,988.675 1646.01,972.342 1664,953.5C 1672.61,939.823 1672.61,926.157 1664,912.5C 1650.19,897.948 1634.69,895.781 1617.5,906C 1604.62,918.438 1590.96,929.938 1576.5,940.5C 1576.37,926.7 1579.53,913.7 1586,901.5C 1593.62,886.606 1605.45,876.772 1621.5,872C 1647.76,869.549 1666.93,880.049 1679,903.5C 1692.52,934.368 1689.85,963.701 1671,991.5C 1651.69,1013.2 1629.52,1016.87 1604.5,1002.5 Z"/></g>
<g><path style="opacity:1" fill="#212629" d="M 896.5,873.5 C 896.197,882.066 899.864,888.232 907.5,892C 922.551,894.771 930.884,888.605 932.5,873.5C 960.833,873.5 989.167,873.5 1017.5,873.5C 1018.11,875.913 1018.44,878.413 1018.5,881C 1014.51,891.376 1016.51,900.376 1024.5,908C 1035.67,913.609 1044.5,911.109 1051,900.5C 1053.1,891.636 1053.93,882.636 1053.5,873.5C 1127.5,873.333 1201.5,873.5 1275.5,874C 1283.38,876.658 1287.38,881.825 1287.5,889.5C 1278.98,883.826 1269.65,880.66 1259.5,880C 1246.88,886.039 1244.04,895.206 1251,907.5C 1253.33,909.066 1255.49,910.732 1257.5,912.5C 1094.83,912.5 932.167,912.5 769.5,912.5C 769.333,1005.17 769.5,1097.83 770,1190.5C 771.923,1196.72 776.09,1200.55 782.5,1202C 946.876,1202.99 1111.21,1202.66 1275.5,1201C 1280.99,1198.53 1284.49,1194.36 1286,1188.5C 1286.5,1129.83 1286.67,1071.17 1286.5,1012.5C 1287.5,1011.83 1288.5,1011.17 1289.5,1010.5C 1289.67,1070.17 1289.5,1129.83 1289,1189.5C 1286.5,1197.33 1281.33,1202.5 1273.5,1205C 1108.44,1206 943.445,1205.66 778.5,1204C 772.912,1201.41 769.079,1197.25 767,1191.5C 766.333,1089.5 766.333,987.5 767,885.5C 769.586,879.912 773.753,876.079 779.5,874C 818.499,873.5 857.499,873.333 896.5,873.5 Z"/></g>
<g><path style="opacity:1" fill="#fdbd03" d="M 1287.5,889.5 C 1309.27,904.702 1320.27,925.702 1320.5,952.5C 1319.29,974.253 1310.62,992.253 1294.5,1006.5C 1292.83,1007.83 1291.17,1009.17 1289.5,1010.5C 1288.5,1011.17 1287.5,1011.83 1286.5,1012.5C 1276.8,1017.96 1266.46,1021.62 1255.5,1023.5C 1249.16,1023.67 1242.82,1023.5 1236.5,1023C 1230.76,1021.65 1225.1,1020.15 1219.5,1018.5C 1210.65,1013.79 1207.49,1006.46 1210,996.5C 1213.08,990.584 1217.91,987.25 1224.5,986.5C 1232.11,988.259 1239.77,989.592 1247.5,990.5C 1267.46,989.537 1280.46,979.537 1286.5,960.5C 1287.83,953.833 1287.83,947.167 1286.5,940.5C 1282.04,925.702 1272.37,916.369 1257.5,912.5C 1255.49,910.732 1253.33,909.066 1251,907.5C 1244.04,895.206 1246.88,886.039 1259.5,880C 1269.65,880.66 1278.98,883.826 1287.5,889.5 Z"/></g>
<g><path style="opacity:1" fill="#252727" d="M 480.5,798.5 C 486.853,822.577 493.519,846.577 500.5,870.5C 500.938,872.126 501.272,873.793 501.5,875.5C 501.291,876.994 500.624,878.161 499.5,879C 433.699,899.822 367.866,920.655 302,941.5C 299.659,940.993 299.159,939.826 300.5,938C 365.841,917.053 431.174,896.219 496.5,875.5C 496.833,875 497.167,874.5 497.5,874C 489.773,847.591 482.44,821.091 475.5,794.5C 407.839,805.833 340.172,817.166 272.5,828.5C 272.33,827.178 272.663,826.011 273.5,825C 290.151,822.002 306.818,819.169 323.5,816.5C 328.586,762.811 333.919,709.144 339.5,655.5C 340.833,655.5 342.167,655.5 343.5,655.5C 338.261,708.848 332.928,762.181 327.5,815.5C 376.447,806.731 425.447,798.064 474.5,789.5C 475.772,789.57 476.938,789.903 478,790.5C 478.941,793.154 479.774,795.821 480.5,798.5 Z"/></g>
<g><path style="opacity:1" fill="#1f2428" d="M 1604.5,1002.5 C 1522.61,1050.66 1436.27,1060.66 1345.5,1032.5C 1331.83,1027.89 1318.49,1022.39 1305.5,1016C 1301.05,1013.72 1297.38,1010.55 1294.5,1006.5C 1310.62,992.253 1319.29,974.253 1320.5,952.5C 1325.46,952.266 1330.12,953.266 1334.5,955.5C 1342.93,959.812 1351.6,963.645 1360.5,967C 1436.86,992.622 1508.86,983.788 1576.5,940.5C 1590.96,929.938 1604.62,918.438 1617.5,906C 1634.69,895.781 1650.19,897.948 1664,912.5C 1672.61,926.157 1672.61,939.823 1664,953.5C 1646.01,972.342 1626.18,988.675 1604.5,1002.5 Z"/></g>
<g><path style="opacity:1" fill="#fad9ae" d="M 1257.5,912.5 C 1272.37,916.369 1282.04,925.702 1286.5,940.5C 1285.17,947.167 1285.17,953.833 1286.5,960.5C 1280.46,979.537 1267.46,989.537 1247.5,990.5C 1239.77,989.592 1232.11,988.259 1224.5,986.5C 1217.91,987.25 1213.08,990.584 1210,996.5C 1207.49,1006.46 1210.65,1013.79 1219.5,1018.5C 1109.5,1018.5 999.5,1018.5 889.5,1018.5C 889.5,1022.83 889.5,1027.17 889.5,1031.5C 888.596,1032.21 888.263,1033.21 888.5,1034.5C 1011,1034.83 1133.33,1034.5 1255.5,1033.5C 1255.5,1030.17 1255.5,1026.83 1255.5,1023.5C 1266.46,1021.62 1276.8,1017.96 1286.5,1012.5C 1286.67,1071.17 1286.5,1129.83 1286,1188.5C 1284.49,1194.36 1280.99,1198.53 1275.5,1201C 1111.21,1202.66 946.876,1202.99 782.5,1202C 776.09,1200.55 771.923,1196.72 770,1190.5C 769.5,1097.83 769.333,1005.17 769.5,912.5C 932.167,912.5 1094.83,912.5 1257.5,912.5 Z"/></g>
<g><path style="opacity:1" fill="#f6eada" d="M 889.5,929.5 C 1011.5,929.5 1133.5,929.5 1255.5,929.5C 1255.5,934.5 1255.5,939.5 1255.5,944.5C 1133.5,944.5 1011.5,944.5 889.5,944.5C 889.5,939.5 889.5,934.5 889.5,929.5 Z"/></g>
<g><path style="opacity:1" fill="#f6e9d9" d="M 800.5,924.5 C 825.833,924.5 851.167,924.5 876.5,924.5C 876.5,949.833 876.5,975.167 876.5,1000.5C 850.831,1000.67 825.165,1000.5 799.5,1000C 800.495,974.908 800.828,949.741 800.5,924.5 Z"/></g>
<g><path style="opacity:1" fill="#febe0e" d="M 858.5,931.5 C 863.433,936.095 868.433,940.762 873.5,945.5C 859.833,959.833 845.833,973.833 831.5,987.5C 822.167,978.833 813.167,969.833 804.5,960.5C 808.818,955.681 813.318,951.015 818,946.5C 822.333,950.833 826.667,955.167 831,959.5C 840.369,950.298 849.536,940.965 858.5,931.5 Z"/></g>
<g><path style="opacity:1" fill="#786a53" d="M 1286.5,940.5 C 1287.83,947.167 1287.83,953.833 1286.5,960.5C 1285.17,953.833 1285.17,947.167 1286.5,940.5 Z"/></g>
<g><path style="opacity:1" fill="#f6e9d9" d="M 889.5,957.5 C 1011.5,957.5 1133.5,957.5 1255.5,957.5C 1255.5,962.5 1255.5,967.5 1255.5,972.5C 1133.5,972.5 1011.5,972.5 889.5,972.5C 889.5,967.5 889.5,962.5 889.5,957.5 Z"/></g>
<g><path style="opacity:1" fill="#f6e9d8" d="M 889.5,985.5 C 944.5,985.5 999.5,985.5 1054.5,985.5C 1054.2,990.43 1054.53,995.263 1055.5,1000C 1054.83,1000.33 1054.17,1000.67 1053.5,1001C 999.167,1001.67 944.833,1001.67 890.5,1001C 889.529,995.928 889.195,990.762 889.5,985.5 Z"/></g>
<g><path style="opacity:1" fill="#f6e9d9" d="M 800.5,1016.5 C 826.167,1016.5 851.833,1016.5 877.5,1016.5C 877.5,1041.83 877.5,1067.17 877.5,1092.5C 851.833,1092.5 826.167,1092.5 800.5,1092.5C 800.5,1067.17 800.5,1041.83 800.5,1016.5 Z"/></g>
<g><path style="opacity:1" fill="#f5e9d8" d="M 1219.5,1018.5 C 1225.1,1020.15 1230.76,1021.65 1236.5,1023C 1242.82,1023.5 1249.16,1023.67 1255.5,1023.5C 1255.5,1026.83 1255.5,1030.17 1255.5,1033.5C 1133.16,1034.16 1011.16,1033.5 889.5,1031.5C 889.5,1027.17 889.5,1022.83 889.5,1018.5C 999.5,1018.5 1109.5,1018.5 1219.5,1018.5 Z"/></g>
<g><path style="opacity:1" fill="#febe0d" d="M 858.5,1026.5 C 863.433,1031.1 868.433,1035.76 873.5,1040.5C 859.833,1054.83 845.833,1068.83 831.5,1082.5C 822.167,1073.83 813.167,1064.83 804.5,1055.5C 808.818,1050.68 813.318,1046.01 818,1041.5C 822.333,1045.83 826.667,1050.17 831,1054.5C 840.369,1045.3 849.536,1035.97 858.5,1026.5 Z"/></g>
<g><path style="opacity:1" fill="#1f2428" d="M 624.5,999.5 C 633.768,1207.3 641.768,1415.3 648.5,1623.5C 649.757,1671.16 650.424,1718.82 650.5,1766.5C 647.833,1766.5 645.167,1766.5 642.5,1766.5C 600.706,1765.18 559.039,1765.18 517.5,1766.5C 513.833,1766.5 510.167,1766.5 506.5,1766.5C 494.576,1639.48 482.41,1512.48 470,1385.5C 422.018,1510.61 374.518,1635.94 327.5,1761.5C 326.957,1761.56 326.624,1761.89 326.5,1762.5C 327.612,1763.27 328.279,1764.27 328.5,1765.5C 326.511,1768.81 324.511,1772.14 322.5,1775.5C 321.265,1775.72 320.265,1776.39 319.5,1777.5C 318.893,1777.38 318.56,1777.04 318.5,1776.5C 319.709,1773.28 321.376,1770.28 323.5,1767.5C 317.872,1766.5 312.206,1766.17 306.5,1766.5C 265.5,1766.5 224.5,1766.5 183.5,1766.5C 179.445,1766.82 175.445,1766.49 171.5,1765.5C 205.2,1630.37 239.367,1495.37 274,1360.5C 280.131,1242.8 286.631,1125.14 293.5,1007.5C 348.918,1030.64 404.252,1053.97 459.5,1077.5C 488.249,1053.59 516.583,1029.09 544.5,1004C 545.167,1003.33 545.833,1003.33 546.5,1004C 552.204,1010.59 557.538,1017.43 562.5,1024.5C 550.498,1025.34 538.498,1026.34 526.5,1027.5C 510.828,1145.87 491.161,1263.53 467.5,1380.5C 469.167,1380.5 470.833,1380.5 472.5,1380.5C 495.509,1264.79 514.842,1148.46 530.5,1031.5C 542.207,1030.87 553.874,1029.87 565.5,1028.5C 578.803,1044.65 591.969,1060.98 605,1077.5C 612.066,1051.68 618.566,1025.68 624.5,999.5 Z"/></g>
<g><path style="opacity:1" fill="#f9e1c5" d="M 889.5,1031.5 C 1011.16,1033.5 1133.16,1034.16 1255.5,1033.5C 1133.33,1034.5 1011,1034.83 888.5,1034.5C 888.263,1033.21 888.596,1032.21 889.5,1031.5 Z"/></g>
<g><path style="opacity:1" fill="#f6ead9" d="M 889.5,1047.5 C 1011.5,1047.5 1133.5,1047.5 1255.5,1047.5C 1255.5,1052.5 1255.5,1057.5 1255.5,1062.5C 1133.5,1062.5 1011.5,1062.5 889.5,1062.5C 889.5,1057.5 889.5,1052.5 889.5,1047.5 Z"/></g>
<g><path style="opacity:1" fill="#f6e9da" d="M 889.5,1075.5 C 944.5,1075.5 999.5,1075.5 1054.5,1075.5C 1054.2,1080.43 1054.53,1085.26 1055.5,1090C 1000.17,1090.5 944.834,1090.67 889.5,1090.5C 889.5,1085.5 889.5,1080.5 889.5,1075.5 Z"/></g>
<g><path style="opacity:1" fill="#f6e9d9" d="M 889.5,1109.5 C 1011.5,1109.5 1133.5,1109.5 1255.5,1109.5C 1255.5,1114.5 1255.5,1119.5 1255.5,1124.5C 1133.5,1124.5 1011.5,1124.5 889.5,1124.5C 889.5,1119.5 889.5,1114.5 889.5,1109.5 Z"/></g>
<g><path style="opacity:1" fill="#f6e9da" d="M 889.5,1138.5 C 1011.5,1138.5 1133.5,1138.5 1255.5,1138.5C 1255.5,1143.5 1255.5,1148.5 1255.5,1153.5C 1133.5,1153.5 1011.5,1153.5 889.5,1153.5C 889.5,1148.5 889.5,1143.5 889.5,1138.5 Z"/></g>
<g><path style="opacity:1" fill="#f6e9d8" d="M 800.5,1105.5 C 826.167,1105.5 851.833,1105.5 877.5,1105.5C 877.5,1131.17 877.5,1156.83 877.5,1182.5C 851.833,1182.5 826.167,1182.5 800.5,1182.5C 800.5,1156.83 800.5,1131.17 800.5,1105.5 Z"/></g>
<g><path style="opacity:1" fill="#febe08" d="M 858.5,1113.5 C 859.239,1113.37 859.906,1113.54 860.5,1114C 864.999,1118 868.999,1122.5 872.5,1127.5C 858.847,1141.65 845.014,1155.65 831,1169.5C 822.333,1160.83 813.667,1152.17 805,1143.5C 804.333,1142.5 804.333,1141.5 805,1140.5C 809.015,1136.32 813.182,1132.32 817.5,1128.5C 822.152,1132.65 826.652,1136.98 831,1141.5C 840.369,1132.3 849.536,1122.97 858.5,1113.5 Z"/></g>
<g><path style="opacity:1" fill="#f6ead9" d="M 889.5,1166.5 C 944.168,1166.33 998.834,1166.5 1053.5,1167C 1054.17,1171.67 1054.83,1176.33 1055.5,1181C 1000.17,1181.5 944.834,1181.67 889.5,1181.5C 889.5,1176.5 889.5,1171.5 889.5,1166.5 Z"/></g>
<g><path style="opacity:1" fill="#c9af8c" d="M 1518.5,1228.5 C 1271.81,1228.17 1025.14,1228.5 778.5,1229.5C 901.498,1228.17 1024.83,1227.5 1148.5,1227.5C 1272,1227.5 1395.33,1227.83 1518.5,1228.5 Z"/></g>
<g><path style="opacity:1" fill="#232729" d="M 1518.5,1228.5 C 1527.46,1229.95 1533.63,1234.95 1537,1243.5C 1537.67,1396.5 1537.67,1549.5 1537,1702.5C 1536.21,1703.74 1535.71,1705.08 1535.5,1706.5C 1531.07,1714.88 1524.07,1718.88 1514.5,1718.5C 1269.83,1718.67 1025.17,1718.5 780.5,1718C 773,1715.83 768.167,1711 766,1703.5C 765.333,1549.83 765.333,1396.17 766,1242.5C 768.324,1236.34 772.491,1232.01 778.5,1229.5C 1025.14,1228.5 1271.81,1228.17 1518.5,1228.5 Z"/></g>
<g><path style="opacity:1" fill="#fcbc02" d="M 1532.5,1286.5 C 1278.17,1286.5 1023.83,1286.5 769.5,1286.5C 769.333,1272.83 769.5,1259.16 770,1245.5C 772.167,1239.33 776.333,1235.17 782.5,1233C 1028.17,1232.33 1273.83,1232.33 1519.5,1233C 1525.5,1234.34 1529.67,1237.84 1532,1243.5C 1532.5,1257.83 1532.67,1272.16 1532.5,1286.5 Z"/></g>
<g><path style="opacity:1" fill="#fea900" d="M 1303.5,1248.5 C 1320.89,1248.06 1338.22,1248.56 1355.5,1250C 1357.33,1250.5 1358.5,1251.67 1359,1253.5C 1360.96,1260.18 1358.8,1264.68 1352.5,1267C 1336.17,1267.67 1319.83,1267.67 1303.5,1267C 1300.15,1265.13 1298.15,1262.3 1297.5,1258.5C 1298.96,1254.8 1300.96,1251.46 1303.5,1248.5 Z"/></g>
<g><path style="opacity:1" fill="#f6e9d9" d="M 1450.5,1249.5 C 1467.5,1249.33 1484.5,1249.5 1501.5,1250C 1503.29,1250.78 1504.79,1251.95 1506,1253.5C 1507.19,1258.15 1506.36,1262.32 1503.5,1266C 1502.5,1266.33 1501.5,1266.67 1500.5,1267C 1484.17,1267.67 1467.83,1267.67 1451.5,1267C 1442.65,1261.6 1442.32,1255.77 1450.5,1249.5 Z"/></g>
<g><path style="opacity:1" fill="#272a2a" d="M 1658.5,1238.5 C 1660.02,1238.51 1661.18,1239.18 1662,1240.5C 1665.52,1246.68 1669.02,1252.84 1672.5,1259C 1668.78,1266.28 1664.45,1273.11 1659.5,1279.5C 1654.86,1273.05 1650.86,1266.22 1647.5,1259C 1650.93,1252.06 1654.6,1245.23 1658.5,1238.5 Z"/></g>
<g><path style="opacity:1" fill="#1f2427" d="M 1377.5,1249.5 C 1394.5,1249.33 1411.5,1249.5 1428.5,1250C 1433.15,1252.9 1434.65,1257.06 1433,1262.5C 1431.77,1264.73 1429.94,1266.23 1427.5,1267C 1411.17,1267.67 1394.83,1267.67 1378.5,1267C 1369.65,1261.6 1369.32,1255.77 1377.5,1249.5 Z"/></g>
<g><path style="opacity:1" fill="#f5d5ac" d="M 1658.5,1245.5 C 1659.5,1245.41 1660.33,1245.75 1661,1246.5C 1663.58,1250.49 1665.74,1254.66 1667.5,1259C 1665.41,1264.01 1662.91,1268.84 1660,1273.5C 1656.78,1268.9 1653.95,1264.06 1651.5,1259C 1653.98,1254.54 1656.31,1250.04 1658.5,1245.5 Z"/></g>
<g><path style="opacity:1" fill="#272a2a" d="M 1602.5,1261.5 C 1612.86,1261.01 1616.69,1265.68 1614,1275.5C 1608.24,1281.1 1602.9,1280.77 1598,1274.5C 1596.38,1268.92 1597.88,1264.59 1602.5,1261.5 Z"/></g>
<g><path style="opacity:1" fill="#f2d4aa" d="M 1603.5,1265.5 C 1611.88,1265.27 1613.54,1268.44 1608.5,1275C 1604.07,1276.25 1601.41,1274.59 1600.5,1270C 1601.31,1268.36 1602.31,1266.86 1603.5,1265.5 Z"/></g>
<g><path style="opacity:1" fill="#fad9ae" d="M 769.5,1286.5 C 1023.83,1286.5 1278.17,1286.5 1532.5,1286.5C 1532.67,1425.5 1532.5,1564.5 1532,1703.5C 1529.55,1709.62 1525.05,1713.12 1518.5,1714C 1273.5,1714.67 1028.5,1714.67 783.5,1714C 776.342,1712.18 771.842,1707.68 770,1700.5C 769.5,1562.5 769.333,1424.5 769.5,1286.5 Z"/></g>
<g><path style="opacity:1" fill="#26292a" d="M 1621.5,1289.5 C 1622.5,1289.41 1623.33,1289.75 1624,1290.5C 1629.83,1300.83 1635.67,1311.17 1641.5,1321.5C 1636,1331.17 1630.5,1340.83 1625,1350.5C 1624.26,1351.57 1623.26,1352.24 1622,1352.5C 1615.21,1342.42 1609.04,1331.92 1603.5,1321C 1609.31,1310.36 1615.31,1299.86 1621.5,1289.5 Z"/></g>
<g><path style="opacity:1" fill="#febe08" d="M 1140.5,1323.5 C 1140.55,1325.9 1140.22,1328.24 1139.5,1330.5C 1132.82,1341.33 1123.49,1344.5 1111.5,1340C 1108.31,1337.97 1105.64,1335.47 1103.5,1332.5C 1102.83,1330.83 1102.17,1329.17 1101.5,1327.5C 1099.53,1315.61 1104.2,1307.44 1115.5,1303C 1130.94,1301.28 1139.27,1308.11 1140.5,1323.5 Z"/></g>
<g><path style="opacity:1" fill="#f7d7ac" d="M 1621.5,1296.5 C 1627.61,1303.99 1632.61,1312.32 1636.5,1321.5C 1632.19,1330.12 1627.35,1338.46 1622,1346.5C 1617.17,1338.17 1612.33,1329.83 1607.5,1321.5C 1612.43,1313.3 1617.1,1304.97 1621.5,1296.5 Z"/></g>
<g><path style="opacity:1" fill="#292b2b" d="M 1655.5,1299.5 C 1661.7,1299.53 1664.54,1302.53 1664,1308.5C 1659.58,1315.06 1655.25,1315.06 1651,1308.5C 1650.38,1304.41 1651.88,1301.41 1655.5,1299.5 Z"/></g>
<g><path style="opacity:1" fill="#e5c9a1" d="M 1656.5,1303.5 C 1660.01,1304.03 1661.01,1305.86 1659.5,1309C 1654.29,1309.55 1653.29,1307.71 1656.5,1303.5 Z"/></g>
<g><path style="opacity:1" fill="#e9ded0" d="M 562.5,1024.5 C 564.262,1025.26 565.262,1026.6 565.5,1028.5C 553.874,1029.87 542.207,1030.87 530.5,1031.5C 514.842,1148.46 495.509,1264.79 472.5,1380.5C 470.833,1380.5 469.167,1380.5 467.5,1380.5C 491.161,1263.53 510.828,1145.87 526.5,1027.5C 538.498,1026.34 550.498,1025.34 562.5,1024.5 Z"/></g>
<g><path style="opacity:1" fill="#febe05" d="M 1305.5,1378.5 C 1304.5,1378.5 1303.5,1378.5 1302.5,1378.5C 1291.26,1374.03 1286.76,1365.7 1289,1353.5C 1289.84,1349.84 1291.67,1346.84 1294.5,1344.5C 1296.19,1343.14 1297.86,1341.8 1299.5,1340.5C 1319.07,1336.84 1328.23,1344.84 1327,1364.5C 1323.65,1374.77 1316.49,1379.44 1305.5,1378.5 Z"/></g>
<g><path style="opacity:1" fill="#252828" d="M 1563.5,1335.5 C 1569.09,1334.45 1572.43,1336.62 1573.5,1342C 1572.69,1348.04 1569.35,1350.04 1563.5,1348C 1559.55,1343.84 1559.55,1339.67 1563.5,1335.5 Z"/></g>
<g><path style="opacity:1" fill="#f5e9d8" d="M 1101.5,1327.5 C 1102.17,1329.17 1102.83,1330.83 1103.5,1332.5C 1101.04,1335.36 1098.54,1338.36 1096,1341.5C 1095.27,1343.95 1094.27,1346.29 1093,1348.5C 1092.5,1397.17 1092.33,1445.83 1092.5,1494.5C 1090.17,1494.5 1087.83,1494.5 1085.5,1494.5C 1085.33,1445.83 1085.5,1397.17 1086,1348.5C 1088.35,1339.33 1093.52,1332.33 1101.5,1327.5 Z"/></g>
<g><path style="opacity:1" fill="#dbc09b" d="M 1564.5,1339.5 C 1569.16,1339.01 1570.49,1340.85 1568.5,1345C 1564.27,1345.27 1562.93,1343.43 1564.5,1339.5 Z"/></g>
<g><path style="opacity:1" fill="#f6e9d8" d="M 1299.5,1340.5 C 1297.86,1341.8 1296.19,1343.14 1294.5,1344.5C 1285.58,1334.25 1274.25,1330.09 1260.5,1332C 1252.01,1332.98 1245.18,1336.82 1240,1343.5C 1238.07,1347.76 1235.73,1351.76 1233,1355.5C 1232.83,1364.34 1232.33,1373.01 1231.5,1381.5C 1229.5,1381.5 1227.5,1381.5 1225.5,1381.5C 1224.56,1369.7 1225.89,1358.2 1229.5,1347C 1244.33,1322.97 1264.33,1317.63 1289.5,1331C 1293.1,1333.95 1296.43,1337.12 1299.5,1340.5 Z"/></g>
<g><path style="opacity:1" fill="#f6e9d7" d="M 1140.5,1323.5 C 1151.71,1329.56 1158.55,1338.89 1161,1351.5C 1161.33,1382.17 1161.67,1412.83 1162,1443.5C 1163.52,1457.02 1170.68,1466.19 1183.5,1471C 1192.85,1472.32 1201.85,1471.32 1210.5,1468C 1212.87,1465.73 1215.37,1463.56 1218,1461.5C 1220.52,1456.96 1222.85,1452.29 1225,1447.5C 1225.5,1438.84 1225.67,1430.17 1225.5,1421.5C 1227.74,1421.79 1229.74,1421.46 1231.5,1420.5C 1231.83,1420.5 1232.17,1420.5 1232.5,1420.5C 1233.41,1433.09 1232.25,1445.43 1229,1457.5C 1217.16,1475.49 1200.66,1481.99 1179.5,1477C 1172.12,1472.95 1165.62,1467.79 1160,1461.5C 1158.64,1456.72 1156.97,1452.06 1155,1447.5C 1154.67,1414.17 1154.33,1380.83 1154,1347.5C 1150.55,1340.56 1145.72,1334.9 1139.5,1330.5C 1140.22,1328.24 1140.55,1325.9 1140.5,1323.5 Z"/></g>
<g><path style="opacity:1" fill="#272a2a" d="M 1660.5,1348.5 C 1673.39,1349.04 1677.06,1355.04 1671.5,1366.5C 1663.72,1371.65 1657.89,1369.98 1654,1361.5C 1653.51,1355.82 1655.68,1351.48 1660.5,1348.5 Z"/></g>
<g><path style="opacity:1" fill="#f4d5ac" d="M 1661.5,1352.5 C 1668.88,1352.04 1671.71,1355.38 1670,1362.5C 1665.65,1366.66 1661.65,1366.33 1658,1361.5C 1657.33,1359.83 1657.33,1358.17 1658,1356.5C 1659.38,1355.29 1660.54,1353.96 1661.5,1352.5 Z"/></g>
<g><path style="opacity:1" fill="#febe05" d="M 1225.5,1381.5 C 1227.5,1381.5 1229.5,1381.5 1231.5,1381.5C 1246.48,1387.94 1250.32,1398.61 1243,1413.5C 1240.04,1416.72 1236.54,1419.06 1232.5,1420.5C 1232.17,1420.5 1231.83,1420.5 1231.5,1420.5C 1213.91,1421.41 1206.08,1413.08 1208,1395.5C 1211.05,1387.28 1216.88,1382.61 1225.5,1381.5 Z"/></g>
<g><path style="opacity:1" fill="#f5e9d8" d="M 1302.5,1378.5 C 1303.5,1378.5 1304.5,1378.5 1305.5,1378.5C 1306.21,1379.4 1307.21,1379.74 1308.5,1379.5C 1308.33,1408.5 1308.5,1437.5 1309,1466.5C 1310.3,1469.01 1311.3,1471.67 1312,1474.5C 1315.76,1479.08 1319.6,1483.42 1323.5,1487.5C 1323.17,1489.5 1322.83,1491.5 1322.5,1493.5C 1316.96,1490.47 1312.13,1486.47 1308,1481.5C 1305.43,1475.7 1303.43,1469.7 1302,1463.5C 1301.17,1435 1301.34,1406.66 1302.5,1378.5 Z"/></g>
<g><path style="opacity:1" fill="#f6e9d8" d="M 1464.5,1499.5 C 1462.5,1499.5 1460.5,1499.5 1458.5,1499.5C 1458.67,1475.83 1458.5,1452.16 1458,1428.5C 1449.78,1405.47 1433.62,1396.64 1409.5,1402C 1396.96,1407.88 1389.79,1417.71 1388,1431.5C 1387.87,1444.21 1387.21,1456.87 1386,1469.5C 1381.84,1481.9 1374.01,1490.9 1362.5,1496.5C 1362.5,1494.17 1362.5,1491.83 1362.5,1489.5C 1370.73,1483.74 1376.56,1476.08 1380,1466.5C 1380.33,1454.83 1380.67,1443.17 1381,1431.5C 1386.47,1403.69 1403.31,1391.19 1431.5,1394C 1446.44,1398.29 1456.94,1407.46 1463,1421.5C 1464.44,1447.46 1464.94,1473.46 1464.5,1499.5 Z"/></g>
<g><path style="opacity:1" fill="#f5e9d9" d="M 517.5,1766.5 C 517.5,1797.17 517.5,1827.83 517.5,1858.5C 489.5,1858.5 461.5,1858.5 433.5,1858.5C 431.054,1832.12 417.387,1814.29 392.5,1805C 374.757,1798.54 356.424,1795.21 337.5,1795C 335.294,1792.96 333.294,1790.8 331.5,1788.5C 340.073,1781.43 348.239,1773.77 356,1765.5C 362.936,1753.2 359.436,1747.03 345.5,1747C 342.554,1747.81 339.888,1749.14 337.5,1751C 333.935,1754.4 330.602,1757.9 327.5,1761.5C 374.518,1635.94 422.018,1510.61 470,1385.5C 482.41,1512.48 494.576,1639.48 506.5,1766.5C 510.167,1766.5 513.833,1766.5 517.5,1766.5 Z"/></g>
<g><path style="opacity:1" fill="#febe09" d="M 1362.5,1489.5 C 1362.5,1491.83 1362.5,1494.17 1362.5,1496.5C 1360.52,1507.98 1353.68,1513.98 1342,1514.5C 1329.51,1513.17 1323.01,1506.17 1322.5,1493.5C 1322.83,1491.5 1323.17,1489.5 1323.5,1487.5C 1331.13,1473.88 1341.8,1471.04 1355.5,1479C 1358.51,1482.15 1360.84,1485.65 1362.5,1489.5 Z"/></g>
<g><path style="opacity:1" fill="#febe07" d="M 1085.5,1494.5 C 1087.83,1494.5 1090.17,1494.5 1092.5,1494.5C 1107.94,1500.64 1112.11,1511.31 1105,1526.5C 1093.64,1537.38 1082.64,1537.05 1072,1525.5C 1065.59,1510.33 1070.09,1500 1085.5,1494.5 Z"/></g>
<g><path style="opacity:1" fill="#febe09" d="M 1458.5,1499.5 C 1460.5,1499.5 1462.5,1499.5 1464.5,1499.5C 1479.75,1504.34 1484.59,1514.34 1479,1529.5C 1470.53,1540.55 1460.36,1542.39 1448.5,1535C 1438.37,1522.87 1439.37,1511.87 1451.5,1502C 1453.74,1500.86 1456.08,1500.03 1458.5,1499.5 Z"/></g>
<g><path style="opacity:1" fill="#fec84e" d="M 1027.5,1317.5 C 1028.5,1394 1028.83,1470.66 1028.5,1547.5C 951.5,1547.5 874.5,1547.5 797.5,1547.5C 797.5,1470.5 797.5,1393.5 797.5,1316.5C 874.335,1316.17 951.002,1316.5 1027.5,1317.5 Z"/></g>
<g><path style="opacity:1" fill="#febe01" d="M 1027.5,1317.5 C 1027.5,1393.83 1027.5,1470.17 1027.5,1546.5C 951.167,1546.5 874.833,1546.5 798.5,1546.5C 798.5,1470.17 798.5,1393.83 798.5,1317.5C 874.833,1317.5 951.167,1317.5 1027.5,1317.5 Z"/></g>
<g><path style="opacity:1" fill="#f6e9d9" d="M 981.5,1347.5 C 982.552,1347.35 983.552,1347.52 984.5,1348C 996.167,1359.67 1007.83,1371.33 1019.5,1383C 974.667,1427.83 929.833,1472.67 885,1517.5C 860,1492.5 835,1467.5 810,1442.5C 809.333,1441.83 809.333,1441.17 810,1440.5C 821.681,1428.65 833.514,1416.99 845.5,1405.5C 858.819,1418.32 871.986,1431.32 885,1444.5C 917.368,1412.3 949.535,1379.97 981.5,1347.5 Z"/></g>
<g><path style="opacity:1" fill="#f6e9da" d="M 799.5,1578.5 C 1031.5,1578.33 1263.5,1578.5 1495.5,1579C 1498.92,1579.49 1500.25,1581.49 1499.5,1585C 1499.31,1587.05 1498.64,1588.88 1497.5,1590.5C 1264.5,1591.83 1031.5,1591.83 798.5,1590.5C 796.937,1586.25 797.27,1582.25 799.5,1578.5 Z"/></g>
<g><path style="opacity:1" fill="#f5e9d8" d="M 1499.5,1628.5 C 579.973,1627.83 578.973,1627.83 1496.5,1628.5C 1496.65,1629.55 1496.48,1630.55 1496,1631.5C 1381.37,1630.17 1266.54,1629.5 1151.5,1629.5C 1036.36,1629.33 921.36,1629.83 806.5,1631C 1036.26,1632.17 1266.1,1633 1496,1633.5C 1497.81,1632.39 1498.65,1633.06 1498.5,1635.5C 1266.14,1635.01 1033.8,1635.51 801.5,1637C 1033.69,1638.5 1266.03,1639 1498.5,1638.5C 1266.33,1639.67 1034,1639.83 801.5,1639C 799.077,1637.36 798.077,1635.03 798.5,1632C 798.58,1630.11 798.913,1628.27 799.5,1626.5C 1032.5,1625.33 1265.5,1625.17 1498.5,1626C 1499.25,1626.67 1499.59,1627.5 1499.5,1628.5 Z"/></g>
<g><path style="opacity:1" fill="#f7e9da" d="M 1499.5,1628.5 C 1500.99,1631.98 1500.66,1635.31 1498.5,1638.5C 1266.03,1639 1033.69,1638.5 801.5,1637C 1033.8,1635.51 1266.14,1635.01 1498.5,1635.5C 1498.65,1633.06 1497.81,1632.39 1496,1633.5C 1266.1,1633 1036.26,1632.17 806.5,1631C 921.36,1629.83 1036.36,1629.33 1151.5,1629.5C 1266.54,1629.5 1381.37,1630.17 1496,1631.5C 1496.48,1630.55 1496.65,1629.55 1496.5,1628.5C 578.973,1627.83 579.973,1627.83 1499.5,1628.5 Z"/></g>
<g><path style="opacity:1" fill="#f6e9d8" d="M 799.5,1669.5 C 963.168,1669.17 1126.83,1669.5 1290.5,1670.5C 1291.83,1673.83 1291.83,1677.17 1290.5,1680.5C 1289.5,1681.17 1288.5,1681.83 1287.5,1682.5C 1124.83,1683.5 962.168,1683.83 799.5,1683.5C 798.327,1678.81 798.327,1674.14 799.5,1669.5 Z"/></g>
<g><path style="opacity:1" fill="#f1e5d6" d="M 327.5,1786.5 C 325.781,1783.78 323.447,1781.78 320.5,1780.5C 320.893,1778.72 321.559,1777.05 322.5,1775.5C 324.511,1772.14 326.511,1768.81 328.5,1765.5C 333.014,1759.82 338.347,1754.99 344.5,1751C 356,1749.52 358.833,1753.69 353,1763.5C 344.629,1771.37 336.129,1779.04 327.5,1786.5 Z"/></g>
<g><path style="opacity:1" fill="#fbbb04" d="M 642.5,1766.5 C 645.185,1770.18 648.518,1773.18 652.5,1775.5C 650.171,1780.81 647.838,1786.15 645.5,1791.5C 625.755,1776.95 604.755,1774.79 582.5,1785C 574.222,1795.14 576.555,1801.81 589.5,1805C 610.713,1807.36 631.38,1805.03 651.5,1798C 656.327,1794.67 660.993,1791.17 665.5,1787.5C 667.467,1789.49 669.467,1791.49 671.5,1793.5C 687.757,1794.37 703.757,1796.87 719.5,1801C 742.061,1807.57 757.561,1821.73 766,1843.5C 767.16,1848.43 767.66,1853.43 767.5,1858.5C 684.167,1858.5 600.833,1858.5 517.5,1858.5C 517.5,1827.83 517.5,1797.17 517.5,1766.5C 559.039,1765.18 600.706,1765.18 642.5,1766.5 Z"/></g>
<g><path style="opacity:1" fill="#fcbb02" d="M 183.5,1766.5 C 224.5,1766.5 265.5,1766.5 306.5,1766.5C 309.543,1770.54 313.209,1773.88 317.5,1776.5C 315.437,1781.85 313.271,1787.18 311,1792.5C 291.895,1778.32 271.395,1775.82 249.5,1785C 239.153,1794.58 240.82,1801.58 254.5,1806C 275.689,1808.1 296.356,1805.77 316.5,1799C 321.398,1795.25 326.398,1791.75 331.5,1788.5C 333.294,1790.8 335.294,1792.96 337.5,1795C 356.424,1795.21 374.757,1798.54 392.5,1805C 417.387,1814.29 431.054,1832.12 433.5,1858.5C 350.167,1858.5 266.833,1858.5 183.5,1858.5C 183.5,1827.83 183.5,1797.17 183.5,1766.5 Z"/></g>
<g><path style="opacity:1" fill="#f4e7d6" d="M 306.5,1766.5 C 312.206,1766.17 317.872,1766.5 323.5,1767.5C 321.376,1770.28 319.709,1773.28 318.5,1776.5C 318.167,1776.5 317.833,1776.5 317.5,1776.5C 313.209,1773.88 309.543,1770.54 306.5,1766.5 Z"/></g>
<g><path style="opacity:1" fill="#282a28" d="M 331.5,1788.5 C 326.398,1791.75 321.398,1795.25 316.5,1799C 296.356,1805.77 275.689,1808.1 254.5,1806C 240.82,1801.58 239.153,1794.58 249.5,1785C 271.395,1775.82 291.895,1778.32 311,1792.5C 313.271,1787.18 315.437,1781.85 317.5,1776.5C 317.833,1776.5 318.167,1776.5 318.5,1776.5C 318.56,1777.04 318.893,1777.38 319.5,1777.5C 320.265,1776.39 321.265,1775.72 322.5,1775.5C 321.559,1777.05 320.893,1778.72 320.5,1780.5C 310.869,1797.57 313.202,1799.57 327.5,1786.5C 336.129,1779.04 344.629,1771.37 353,1763.5C 358.833,1753.69 356,1749.52 344.5,1751C 338.347,1754.99 333.014,1759.82 328.5,1765.5C 328.279,1764.27 327.612,1763.27 326.5,1762.5C 326.624,1761.89 326.957,1761.56 327.5,1761.5C 330.602,1757.9 333.935,1754.4 337.5,1751C 339.888,1749.14 342.554,1747.81 345.5,1747C 359.436,1747.03 362.936,1753.2 356,1765.5C 348.239,1773.77 340.073,1781.43 331.5,1788.5 Z"/></g>
<g><path style="opacity:1" fill="#f4b60f" d="M 320.5,1780.5 C 323.447,1781.78 325.781,1783.78 327.5,1786.5C 313.202,1799.57 310.869,1797.57 320.5,1780.5 Z"/></g>
<g><path style="opacity:1" fill="#faba03" d="M 262.5,1783.5 C 280.515,1781.23 296.515,1785.73 310.5,1797C 291.924,1803.39 272.924,1805.06 253.5,1802C 245.084,1798.57 244.417,1793.91 251.5,1788C 255.157,1786.18 258.824,1784.68 262.5,1783.5 Z"/></g>
<g><path style="opacity:1" fill="#272929" d="M 665.5,1787.5 C 660.993,1791.17 656.327,1794.67 651.5,1798C 631.38,1805.03 610.713,1807.36 589.5,1805C 576.555,1801.81 574.222,1795.14 582.5,1785C 604.755,1774.79 625.755,1776.95 645.5,1791.5C 647.838,1786.15 650.171,1780.81 652.5,1775.5C 657.685,1765.33 664.685,1756.5 673.5,1749C 679.446,1744.6 685.446,1744.43 691.5,1748.5C 695.253,1752.97 695.42,1757.63 692,1762.5C 683.626,1771.38 674.792,1779.71 665.5,1787.5 Z"/></g>
<g><path style="opacity:1" fill="#eeb20f" d="M 655.5,1778.5 C 657.219,1781.22 659.553,1783.22 662.5,1784.5C 646.778,1799.11 644.445,1797.11 655.5,1778.5 Z"/></g>
<g><path style="opacity:1" fill="#faba03" d="M 597.5,1782.5 C 615.443,1780.48 631.443,1784.98 645.5,1796C 626.579,1802.37 607.246,1804.04 587.5,1801C 579.83,1798.02 578.83,1793.68 584.5,1788C 588.741,1785.65 593.075,1783.82 597.5,1782.5 Z"/></g>
<g><path style="opacity:1" fill="#f3e7d7" d="M 662.5,1784.5 C 659.553,1783.22 657.219,1781.22 655.5,1778.5C 660.412,1766.88 668.079,1757.38 678.5,1750C 688.228,1747.73 691.728,1751.23 689,1760.5C 680.894,1769.45 672.06,1777.45 662.5,1784.5 Z"/></g>
<g><path style="opacity:1" fill="#2b2a27" d="M 190.5,1850.5 C 270.169,1850.17 349.836,1850.5 429.5,1851.5C 429.291,1852.09 428.957,1852.59 428.5,1853C 349.168,1853.71 269.834,1854.21 190.5,1854.5C 190.5,1853.17 190.5,1851.83 190.5,1850.5 Z"/></g>
<g><path style="opacity:1" fill="#272826" d="M 525.5,1849.5 C 604.833,1849.5 684.167,1849.5 763.5,1849.5C 763.5,1850.5 763.5,1851.5 763.5,1852.5C 684.162,1852.47 604.829,1852.63 525.5,1853C 524.316,1851.85 524.316,1850.69 525.5,1849.5 Z"/></g>
<g><path style="opacity:1" fill="#1e2326" d="M 183.5,1858.5 C 266.833,1858.5 350.167,1858.5 433.5,1858.5C 461.5,1858.5 489.5,1858.5 517.5,1858.5C 600.833,1858.5 684.167,1858.5 767.5,1858.5C 1158.83,1858.5 1550.17,1858.5 1941.5,1858.5C 1941.5,1859.5 1941.5,1860.5 1941.5,1861.5C 1313.5,1861.5 685.5,1861.5 57.5,1861.5C 57.5,1860.5 57.5,1859.5 57.5,1858.5C 99.5,1858.5 141.5,1858.5 183.5,1858.5 Z"/></g>
</svg>
